<?xml version="1.0" standalone="no"?>
<!DOCTYPE svg PUBLIC "-//W3C//DTD SVG 1.1//EN" "http://www.w3.org/Graphics/SVG/1.1/DTD/svg11.dtd" >
<svg xmlns="http://www.w3.org/2000/svg" xmlns:xlink="http://www.w3.org/1999/xlink" version="1.1">
<metadata>
Created by FontForge 20170731 at Wed Sep 20 00:59:18 2017
 By Aleksey,,,
Copyright 2015 Google Inc. All Rights Reserved.
</metadata>
<defs>
<font id="NotoSans-ExtraBoldItalic" horiz-adv-x="0" >
  <font-face 
    font-family="Noto Sans ExtBd"
    font-weight="800"
    font-style="italic"
    font-stretch="normal"
    units-per-em="1000"
    panose-1="2 11 9 2 4 5 4 9 2 4"
    ascent="800"
    descent="-200"
    x-height="549"
    cap-height="714"
    bbox="-598 -389 2821 1073"
    underline-thickness="50"
    underline-position="-175"
    slope="-12"
    unicode-range="U+000D-FFFD"
  />
<missing-glyph horiz-adv-x="600" 
d="M94 0v714h411v-714h-411zM145 51h309v612h-309v-612z" />
    <glyph glyph-name="f_f" unicode="ff" horiz-adv-x="735" 
d="M-12 -240q-25 0 -50.5 3.5t-42.5 8.5v132q30 -9 57 -9q32 0 53 17.5t29 55.5l97 455h-81l18 82l90 43l9 39q21 97 71 137.5t132 40.5q36 0 68.5 -7t57.5 -19l-43 -118q-14 6 -30.5 10.5t-33.5 4.5q-23 0 -38 -14.5t-20 -39.5l-7 -33h179l9 38q21 97 71 137.5t132 40.5
q36 0 68.5 -7t56.5 -19l-43 -118q-14 6 -30 10.5t-34 4.5q-23 0 -38 -14.5t-19 -39.5l-7 -33h105l-28 -126h-104l-103 -481q-11 -52 -35 -93t-66 -65t-106 -24q-25 0 -50.5 3.5t-41.5 8.5v132q30 -9 56 -9q33 0 54 17.5t29 55.5l96 455h-178l-103 -481q-11 -52 -35 -93
t-65.5 -65t-105.5 -24z" />
    <glyph glyph-name="f_i" unicode="fi" horiz-adv-x="700" 
d="M-12 -240q-25 0 -50.5 3.5t-42.5 8.5v132q30 -9 57 -9q32 0 53 17.5t29 55.5l97 455h-81l18 82l90 43l9 39q21 97 71 137.5t132 40.5q36 0 68.5 -7t57.5 -19l-43 -118q-14 6 -30.5 10.5t-33.5 4.5q-23 0 -38 -14.5t-20 -39.5l-7 -33h105l-27 -126h-105l-103 -481
q-11 -52 -35 -93t-65.5 -65t-105.5 -24zM627 610q-35 0 -59 14.5t-24 49.5q0 46 26 70t73 24q33 0 57.5 -14.5t24.5 -49.5q0 -42 -24 -68t-74 -26zM405 0l116 549h167l-117 -549h-166z" />
    <glyph glyph-name="f_l" unicode="fl" horiz-adv-x="700" 
d="M-12 -240q-25 0 -50.5 3.5t-42.5 8.5v132q30 -9 57 -9q32 0 53 17.5t29 55.5l97 455h-81l18 82l90 43l9 39q21 97 71 137.5t132 40.5q36 0 68.5 -7t57.5 -19l-43 -118q-14 6 -30.5 10.5t-33.5 4.5q-23 0 -38 -14.5t-20 -39.5l-7 -33h105l-27 -126h-105l-103 -481
q-11 -52 -35 -93t-65.5 -65t-105.5 -24zM405 0l161 760h166l-161 -760h-166z" />
    <glyph glyph-name="f_f_i" unicode="ffi" horiz-adv-x="1026" 
d="M953 610q-35 0 -59 14.5t-24 49.5q0 46 26 70t73 24q33 0 57.5 -14.5t24.5 -49.5q0 -42 -24 -68t-74 -26zM-12 -240q-25 0 -50.5 3.5t-42.5 8.5v132q30 -9 57 -9q32 0 53 17.5t29 55.5l97 455h-81l18 82l90 43l9 39q21 97 71 137.5t132 40.5q36 0 68.5 -7t57.5 -19
l-43 -118q-14 6 -30.5 10.5t-33.5 4.5q-23 0 -38 -14.5t-20 -39.5l-7 -33h179l9 38q21 97 71 137.5t132 40.5q36 0 68.5 -7t56.5 -19l-43 -118q-14 6 -30 10.5t-34 4.5q-23 0 -38 -14.5t-19 -39.5l-7 -33h105l-28 -126h-104l-103 -481q-11 -52 -35 -93t-66 -65t-106 -24
q-25 0 -50.5 3.5t-41.5 8.5v132q30 -9 56 -9q33 0 54 17.5t29 55.5l96 455h-178l-103 -481q-11 -52 -35 -93t-65.5 -65t-105.5 -24zM731 0l116 549h167l-117 -549h-166z" />
    <glyph glyph-name="f_f_l" unicode="ffl" horiz-adv-x="1025" 
d="M-12 -240q-25 0 -50.5 3.5t-42.5 8.5v132q30 -9 57 -9q32 0 53 17.5t29 55.5l97 455h-81l18 82l90 43l9 39q21 97 71 137.5t132 40.5q36 0 68.5 -7t57.5 -19l-43 -118q-14 6 -30.5 10.5t-33.5 4.5q-23 0 -38 -14.5t-20 -39.5l-7 -33h179l9 38q21 97 71 137.5t132 40.5
q36 0 68.5 -7t56.5 -19l-43 -118q-14 6 -30 10.5t-34 4.5q-23 0 -38 -14.5t-19 -39.5l-7 -33h105l-28 -126h-104l-103 -481q-11 -52 -35 -93t-66 -65t-106 -24q-25 0 -50.5 3.5t-41.5 8.5v132q30 -9 56 -9q33 0 54 17.5t29 55.5l96 455h-178l-103 -481q-11 -52 -35 -93
t-65.5 -65t-105.5 -24zM730 0l161 760h166l-161 -760h-166z" />
    <glyph glyph-name=".notdef" horiz-adv-x="600" 
d="M94 0v714h411v-714h-411zM145 51h309v612h-309v-612z" />
    <glyph glyph-name=".null" 
 />
    <glyph glyph-name="nonmarkingreturn" horiz-adv-x="333" 
 />
    <glyph glyph-name="NULL" 
 />
    <glyph glyph-name="NULL" 
 />
    <glyph glyph-name="CR" unicode="&#xd;" horiz-adv-x="260" 
 />
    <glyph glyph-name="space" unicode=" " horiz-adv-x="260" 
 />
    <glyph glyph-name="exclam" unicode="!" horiz-adv-x="294" 
d="M65 244l79 470h185l-122 -470h-142zM92 -13q-46 0 -64.5 22t-18.5 50q0 41 26 73t83 32q38 0 59 -19.5t21 -54.5q0 -48 -29.5 -75.5t-76.5 -27.5z" />
    <glyph glyph-name="quotedbl" unicode="&#x22;" horiz-adv-x="453" 
d="M299 456l36 258h150l-75 -258h-111zM94 456l35 258h150l-76 -258h-109z" />
    <glyph glyph-name="numbersign" unicode="#" horiz-adv-x="646" 
d="M71 0l55 196h-112l9 108h133l31 106h-119l10 109h140l56 195h118l-56 -195h90l56 195h117l-55 -195h113l-10 -109h-134l-31 -106h122l-9 -108h-144l-56 -196h-118l56 196h-89l-56 -196h-117zM274 304h90l31 106h-90z" />
    <glyph glyph-name="dollar" unicode="$" horiz-adv-x="564" 
d="M178 -58l20 95q-56 4 -98 15t-73 29l-1 138q44 -22 95.5 -37.5t103.5 -18.5l32 147q-70 27 -115 68.5t-45 112.5q0 91 66 141.5t174 57.5l15 70h75l-16 -71q41 -5 77 -15t71 -28l-50 -122q-60 31 -125 37l-30 -141q76 -32 118 -71t42 -108q0 -87 -62.5 -142t-180.5 -63
l-19 -94h-74zM286 450l24 110q-27 -4 -42 -19t-15 -42q0 -34 33 -49zM299 165q63 12 63 62q0 20 -11 33.5t-27 21.5z" />
    <glyph glyph-name="percent" unicode="%" horiz-adv-x="890" 
d="M203 276q-71 0 -109 41.5t-38 120.5q0 44 11 93.5t35.5 93.5t64.5 71.5t99 27.5q72 0 109.5 -41.5t37.5 -119.5q0 -43 -10.5 -92.5t-35 -94t-64.5 -72.5t-100 -28zM127 0l531 714h127l-528 -714h-130zM212 385q16 0 29.5 18t23 47t14.5 61t5 59q0 45 -27 45
q-15 0 -28 -17.5t-22.5 -45.5t-15 -60.5t-5.5 -62.5q0 -44 26 -44zM652 -9q-73 0 -111 40t-38 116q0 49 11.5 100t36 94.5t64.5 70.5t98 27q72 0 109.5 -41.5t37.5 -117.5q0 -45 -10.5 -95t-34.5 -94t-64 -72t-99 -28zM659 99q17 0 30 18.5t22.5 47t14.5 61t5 59.5
q0 44 -27 44q-15 0 -28 -17.5t-22.5 -45t-15 -60t-5.5 -62.5q0 -45 26 -45z" />
    <glyph glyph-name="ampersand" unicode="&#x26;" horiz-adv-x="720" 
d="M250 -10q-108 0 -169 49.5t-61 141.5q0 78 43.5 128.5t129.5 86.5q-19 28 -29 62.5t-10 61.5q0 100 61.5 152.5t161.5 52.5q90 0 139.5 -43t49.5 -111q0 -72 -46 -121.5t-127 -87.5l80 -111q24 29 42 65.5t31 74.5h165q-27 -77 -66 -142t-86 -115l96 -134h-191l-29 40
q-36 -22 -81.5 -36t-103.5 -14zM329 455q34 17 59 40.5t25 60.5q0 23 -13 35.5t-32 12.5q-29 0 -45.5 -21t-16.5 -52q0 -17 5.5 -38t17.5 -38zM272 127q27 0 49.5 6t39.5 15l-103 149q-67 -34 -67 -100q0 -27 20.5 -48.5t60.5 -21.5z" />
    <glyph glyph-name="quotesingle" unicode="'" horiz-adv-x="247" 
d="M94 456l35 258h150l-76 -258h-109z" />
    <glyph glyph-name="parenleft" unicode="(" horiz-adv-x="355" 
d="M108 -158q-36 64 -54.5 145t-18.5 160q0 172 63.5 311.5t183.5 264.5h142q-71 -77 -126.5 -166t-87.5 -192.5t-32 -223.5q0 -73 15 -152t42 -147h-127z" />
    <glyph glyph-name="parenright" unicode=")" horiz-adv-x="355" 
d="M-69 -158q71 78 126 167t86.5 192t31.5 223q0 74 -15 153t-42 146h128q38 -65 55.5 -145t17.5 -160q0 -172 -62.5 -312t-182.5 -264h-143z" />
    <glyph glyph-name="asterisk" unicode="*" horiz-adv-x="544" 
d="M344 276l-41 157l-89 -128l-111 85l129 116l-153 44l46 125l160 -83l16 176l137 -28l-56 -167l184 14l-9 -134l-159 20l75 -158z" />
    <glyph glyph-name="plus" unicode="+" horiz-adv-x="578" 
d="M353 412h186v-119h-186v-182h-118v182h-186v119h186v184h118v-184z" />
    <glyph glyph-name="comma" unicode="," horiz-adv-x="295" 
d="M-50 -129q26 59 50 126t43 119h153l4 -11q-23 -53 -57 -116t-69 -118h-124z" />
    <glyph glyph-name="hyphen" unicode="-" horiz-adv-x="325" 
d="M16 200l28 136h263l-29 -136h-262z" />
    <glyph glyph-name="period" unicode="." horiz-adv-x="295" 
d="M87 -13q-41 0 -61 20t-20 52q0 47 28.5 76t80.5 29q36 0 58 -18.5t22 -55.5q0 -52 -29.5 -77.5t-78.5 -25.5z" />
    <glyph glyph-name="slash" unicode="/" horiz-adv-x="442" 
d="M-44 -5l401 724h156l-402 -724h-155z" />
    <glyph glyph-name="zero" unicode="0" horiz-adv-x="564" 
d="M234 -10q-100 0 -151 61t-51 177q0 94 19.5 183t59 160t100 112.5t141.5 41.5q102 0 151.5 -65t49.5 -172q0 -96 -19 -185.5t-58 -160t-99.5 -111.5t-142.5 -41zM249 127q25 0 46 23t37.5 62t28.5 87t18 98t6 95q0 96 -51 96q-24 0 -45 -24.5t-37.5 -65t-28.5 -89
t-18 -97t-6 -88.5q0 -49 10.5 -73t39.5 -24z" />
    <glyph glyph-name="one" unicode="1" horiz-adv-x="564" 
d="M187 0l87 398q6 26 16.5 65t20.5 68q-11 -10 -30 -24.5t-33 -23.5l-97 -60l-69 113l288 178h136l-151 -714h-168z" />
    <glyph glyph-name="two" unicode="2" horiz-adv-x="564" 
d="M-26 0l23 114l235 209q80 71 109.5 116t29.5 80q0 31 -16.5 46.5t-43.5 15.5q-35 0 -68.5 -18t-75.5 -55l-81 112q52 46 113.5 75t140.5 29q65 0 109.5 -23.5t67.5 -63.5t23 -90q0 -55 -22.5 -103t-67 -95.5t-110.5 -103.5l-116 -98v-5h259l-29 -142h-480z" />
    <glyph glyph-name="three" unicode="3" horiz-adv-x="564" 
d="M196 -10q-55 0 -104.5 10t-84.5 29v145q42 -26 89.5 -37.5t93.5 -11.5q65 0 106.5 24.5t41.5 78.5q0 23 -11 40t-39 26.5t-81 9.5h-55l24 123h37q45 0 82 10.5t59.5 32.5t22.5 58q0 24 -16.5 42t-56.5 18q-39 0 -73 -14t-63 -31l-69 110q49 31 103.5 51t135.5 20
q98 0 152 -46t54 -120q0 -76 -46 -124.5t-125 -63.5v-4q60 -11 96 -50t36 -103q0 -67 -37 -117t-106.5 -78t-165.5 -28z" />
    <glyph glyph-name="four" unicode="4" horiz-adv-x="564" 
d="M240 0l30 143h-279l24 119l374 452h163l-93 -441h79l-28 -130h-78l-30 -143h-162zM168 273h129l26 109q5 22 12.5 48t13.5 48t9 32h-4q-10 -19 -26.5 -43.5t-32.5 -43.5z" />
    <glyph glyph-name="five" unicode="5" horiz-adv-x="564" 
d="M205 -10q-56 0 -110 10.5t-83 29.5v144q36 -21 82.5 -34.5t91.5 -13.5q79 0 114 32.5t35 80.5q0 36 -23 62t-78 26q-28 0 -56 -5t-46 -11l-55 41l103 362h382l-30 -142h-235l-36 -118q12 2 24.5 3t25.5 1q55 0 99 -22.5t70.5 -67t26.5 -110.5q0 -122 -77 -195t-225 -73z
" />
    <glyph glyph-name="six" unicode="6" horiz-adv-x="564" 
d="M261 -10q-112 0 -166 66.5t-54 181.5q0 74 17.5 148.5t50.5 139t80 107.5q56 52 120 72t154 20q29 0 58.5 -4t53.5 -10l-28 -133q-19 5 -44 8.5t-47 3.5q-72 0 -118.5 -22.5t-76.5 -67t-50 -112.5h4q23 33 58.5 57.5t93.5 24.5q73 0 116.5 -47t43.5 -141q0 -51 -15 -103
t-47 -94.5t-82.5 -68.5t-121.5 -26zM266 124q31 0 51.5 21.5t31 55t10.5 68.5q0 32 -14.5 51t-42.5 19q-34 0 -59 -25.5t-32 -56.5q-6 -24 -6 -51q0 -38 16.5 -60t44.5 -22z" />
    <glyph glyph-name="seven" unicode="7" horiz-adv-x="564" 
d="M28 0l356 572h-295l30 142h489l-22 -103l-366 -611h-192z" />
    <glyph glyph-name="eight" unicode="8" horiz-adv-x="564" 
d="M256 -10q-76 0 -127 23.5t-77 64t-26 90.5q0 76 43 127t123 79q-30 24 -54.5 59.5t-24.5 89.5q0 55 27.5 101t80.5 73.5t132 27.5q67 0 112.5 -22t68.5 -59t23 -82q0 -68 -41.5 -115.5t-103.5 -68.5q42 -30 70.5 -72.5t28.5 -105.5q0 -60 -29 -107.5t-85.5 -75
t-140.5 -27.5zM323 444q77 31 77 98q0 28 -16.5 44t-41.5 16q-32 0 -51.5 -21.5t-19.5 -52.5q0 -28 14.5 -49.5t37.5 -34.5zM264 113q42 0 65.5 25t23.5 60q0 36 -19 62t-50 46q-46 -20 -72 -49t-26 -70q0 -35 22.5 -54.5t55.5 -19.5z" />
    <glyph glyph-name="nine" unicode="9" horiz-adv-x="564" 
d="M157 -10q-31 0 -60 4.5t-50 11.5v137q21 -7 47.5 -13.5t57.5 -5.5q68 2 111 28t68 71t39 101h-4q-22 -33 -56 -56.5t-89 -23.5q-81 0 -122.5 54t-41.5 139q0 48 14 98.5t45.5 93.5t83.5 69.5t127 26.5q106 0 161 -64t55 -183q0 -70 -14.5 -142.5t-44.5 -138t-77 -113.5
q-44 -44 -105.5 -69t-144.5 -25zM283 375q34 0 57.5 25.5t30.5 56.5q3 12 5 24.5t2 25.5q0 36 -15 59.5t-46 23.5q-29 0 -50 -20t-31.5 -51t-10.5 -65q0 -79 58 -79z" />
    <glyph glyph-name="colon" unicode=":" horiz-adv-x="295" 
d="M178 382q-40 0 -60 20t-20 51q0 47 28.5 76t80.5 29q36 0 58 -18.5t22 -54.5q0 -53 -29.5 -78t-79.5 -25zM87 -13q-41 0 -61 20t-20 52q0 47 28.5 76t80.5 29q36 0 58 -18.5t22 -55.5q0 -52 -29.5 -77.5t-78.5 -25.5z" />
    <glyph glyph-name="semicolon" unicode=";" horiz-adv-x="295" 
d="M178 382q-40 0 -60 20t-20 51q0 47 28.5 76t80.5 29q36 0 58 -18.5t22 -54.5q0 -53 -29.5 -78t-79.5 -25zM-53 -129q26 59 50 126t43 119h154l4 -11q-24 -53 -58 -116t-69 -118h-124z" />
    <glyph glyph-name="less" unicode="&#x3c;" horiz-adv-x="578" 
d="M538 93l-489 217v76l489 245v-130l-319 -148l319 -130v-130z" />
    <glyph glyph-name="equal" unicode="=" horiz-adv-x="578" 
d="M49 396v117h490v-117h-490zM49 191v118h490v-118h-490z" />
    <glyph glyph-name="greater" unicode="&#x3e;" horiz-adv-x="578" 
d="M49 223l320 130l-320 148v130l489 -245v-76l-489 -217v130z" />
    <glyph glyph-name="question" unicode="?" horiz-adv-x="472" 
d="M125 244q9 50 23.5 84.5t39.5 61.5t66 55q49 33 68 53t19 45q0 21 -12.5 34t-42.5 13q-32 0 -69.5 -13.5t-82.5 -37.5l-51 122q46 26 102 44.5t119 18.5q93 0 146 -43.5t53 -119.5q0 -53 -19 -88.5t-51.5 -62t-70.5 -50.5q-34 -21 -51.5 -37t-27 -34t-17.5 -45h-141z
M158 -13q-46 0 -64.5 22t-18.5 50q0 41 25.5 73t82.5 32q37 0 58.5 -19.5t21.5 -54.5q0 -48 -29 -75.5t-76 -27.5z" />
    <glyph glyph-name="at" unicode="@" horiz-adv-x="875" 
d="M386 -91q-108 0 -185 42.5t-117.5 118t-40.5 174.5q0 115 37.5 203.5t102.5 149t148.5 91.5t175.5 31q108 0 186 -37t120 -106.5t42 -168.5q0 -61 -17.5 -116.5t-50.5 -98.5t-78.5 -67.5t-102.5 -24.5q-39 0 -67.5 16.5t-38.5 51.5h-5q-23 -32 -52 -50t-76 -18
q-56 0 -93 38t-37 113q0 49 17 97.5t50 89t81.5 65t112.5 24.5q47 0 87 -8.5t74 -21.5l-50 -204q-5 -22 -8.5 -37.5t-3.5 -30.5q0 -27 24 -27q31 0 58 27.5t43 74t16 105.5q0 97 -59 154.5t-184 57.5q-95 0 -171 -44.5t-120 -125.5t-44 -192q0 -73 27.5 -128t79 -85.5
t125.5 -30.5q112 0 224 44v-100q-45 -19 -104.5 -32.5t-125.5 -13.5zM402 198q34 0 56 31t39 94l26 101q-7 2 -15 3.5t-18 1.5q-34 0 -58.5 -17t-40.5 -43.5t-23.5 -56t-7.5 -54.5q0 -33 12 -46.5t30 -13.5z" />
    <glyph glyph-name="A" unicode="A" horiz-adv-x="650" 
d="M-60 0l369 714h212l66 -714h-164l-8 153h-226l-73 -153h-176zM254 292h154l-10 194q-2 26 -3 53t0 54h-3q-8 -25 -18.5 -49.5t-23.5 -51.5z" />
    <glyph glyph-name="B" unicode="B" horiz-adv-x="626" 
d="M21 0l151 714h222q108 0 164.5 -40t56.5 -118q0 -73 -39.5 -119t-111.5 -64v-4q46 -13 73.5 -48t27.5 -88q0 -82 -37.5 -133.5t-101.5 -75.5t-144 -24h-261zM282 435h55q104 0 104 86q0 59 -73 59h-55zM219 136h65q50 0 80.5 26t30.5 70q0 36 -19 54.5t-62 18.5h-59z" />
    <glyph glyph-name="C" unicode="C" horiz-adv-x="620" 
d="M319 -10q-132 0 -197.5 76t-65.5 203q0 63 14 128t43 123.5t74 105t107 73t142 26.5q70 0 121.5 -14.5t100.5 -42.5l-64 -134q-40 22 -77 36t-81 14q-52 0 -91.5 -27t-65.5 -72t-39 -99t-13 -108q0 -147 124 -147q42 0 83.5 10.5t88.5 30.5v-141q-41 -17 -92 -29
t-112 -12z" />
    <glyph glyph-name="D" unicode="D" horiz-adv-x="680" 
d="M21 0l151 714h198q131 0 205 -69.5t74 -200.5q0 -137 -47.5 -236.5t-137.5 -153.5t-218 -54h-225zM219 140h44q69 0 117 39.5t73 106t25 149.5q0 71 -32 105.5t-88 34.5h-46z" />
    <glyph glyph-name="E" unicode="E" horiz-adv-x="551" 
d="M21 0l151 714h411l-29 -138h-242l-28 -137h225l-30 -138h-226l-34 -161h242l-29 -140h-411z" />
    <glyph glyph-name="F" unicode="F" horiz-adv-x="549" 
d="M21 0l151 714h408l-29 -138h-239l-34 -162h222l-30 -139h-223l-57 -275h-169z" />
    <glyph glyph-name="G" unicode="G" horiz-adv-x="694" 
d="M322 -10q-123 0 -194.5 71.5t-71.5 209.5q0 89 26 170.5t78.5 145.5t130.5 101t183 37q118 0 209 -50l-64 -136q-34 19 -70.5 31.5t-79.5 12.5q-64 0 -110 -28.5t-75 -74t-43 -99t-14 -102.5q0 -74 30 -110.5t94 -36.5q23 0 39 2t36 7l29 131h-122l30 137h286l-81 -380
q-50 -17 -107.5 -28t-138.5 -11z" />
    <glyph glyph-name="H" unicode="H" horiz-adv-x="706" 
d="M21 0l151 714h169l-57 -273h202l57 273h168l-151 -714h-168l63 300h-202l-63 -300h-169z" />
    <glyph glyph-name="I" unicode="I" horiz-adv-x="403" 
d="M-32 0l20 97l92 39l94 440l-76 41l20 97h340l-20 -97l-96 -41l-93 -440l77 -39l-20 -97h-338z" />
    <glyph glyph-name="J" unicode="J" horiz-adv-x="350" 
d="M-61 -217q-29 0 -53 4t-44 10v138q17 -4 37 -7.5t45 -3.5q47 0 77 27.5t44 96.5l142 666h168l-147 -689q-18 -87 -51.5 -140.5t-87 -77.5t-130.5 -24z" />
    <glyph glyph-name="K" unicode="K" horiz-adv-x="639" 
d="M21 0l151 714h169l-71 -327l74 102l180 225h199l-281 -336l138 -378h-188l-95 286l-54 -31l-53 -255h-169z" />
    <glyph glyph-name="L" unicode="L" horiz-adv-x="522" 
d="M21 0l151 714h169l-122 -575h242l-29 -139h-411z" />
    <glyph glyph-name="M" unicode="M" horiz-adv-x="893" 
d="M21 0l151 714h223l17 -522h4l252 522h230l-152 -714h-152l64 306q17 79 32.5 136t24.5 92h-4l-259 -534h-157l-16 534h-4q-7 -52 -18 -115.5t-22 -118.5l-63 -300h-151z" />
    <glyph glyph-name="N" unicode="N" horiz-adv-x="771" 
d="M21 0l151 714h197l154 -505h4q3 21 8 54.5t11 68.5t11 62l69 320h150l-151 -714h-192l-159 522h-5q-1 -8 -3.5 -31t-7 -53.5t-9.5 -62.5t-10 -57l-67 -318h-151z" />
    <glyph glyph-name="O" unicode="O" horiz-adv-x="733" 
d="M325 -10q-133 0 -201 74.5t-68 198.5q0 84 23 166t70 149t119 107t170 40q130 0 197 -74t67 -197q0 -86 -22 -168.5t-68 -149t-117.5 -106.5t-169.5 -40zM339 131q53 0 97 41.5t69.5 113.5t25.5 165q0 61 -27.5 97t-79.5 36q-44 0 -80 -26.5t-62 -71.5t-40.5 -102.5
t-14.5 -119.5q0 -65 29 -99t83 -34z" />
    <glyph glyph-name="P" unicode="P" horiz-adv-x="616" 
d="M21 0l151 714h192q90 0 145 -27.5t79.5 -75t24.5 -108.5q0 -85 -40.5 -142t-110.5 -86t-161 -29h-60l-51 -246h-169zM271 385h47q57 0 91.5 31t34.5 82q0 36 -20 56.5t-61 20.5h-51z" />
    <glyph glyph-name="Q" unicode="Q" horiz-adv-x="733" 
d="M414 -170l-83 160h-12q-128 0 -195.5 74.5t-67.5 198.5q0 84 23 166t70 149t119 107t171 40q130 0 196.5 -74t66.5 -197q0 -87 -23 -170.5t-71 -150.5t-121 -105l120 -198h-193zM335 133q55 0 99.5 41t70.5 113.5t26 164.5q0 62 -27 96.5t-78 34.5q-58 0 -103 -44
t-70.5 -116.5t-25.5 -160.5q0 -64 28.5 -96.5t79.5 -32.5z" />
    <glyph glyph-name="R" unicode="R" horiz-adv-x="628" 
d="M21 0l151 714h182q115 0 178.5 -47.5t63.5 -148.5q0 -60 -21 -103.5t-55 -71t-72 -42.5l128 -301h-184l-98 268h-48l-56 -268h-169zM275 401h32q52 0 85.5 25.5t33.5 81.5q0 33 -19 52.5t-63 19.5h-32z" />
    <glyph glyph-name="S" unicode="S" horiz-adv-x="538" 
d="M199 -10q-53 0 -99.5 12t-79.5 33v151q42 -24 89.5 -40t92.5 -16q44 0 70.5 17t26.5 52t-24 57.5t-60 49.5q-47 36 -81.5 82.5t-34.5 116.5q0 64 31 113.5t87 77.5t131 28q112 0 201 -50l-59 -128q-36 17 -72 28t-69 11q-41 0 -60.5 -20t-19.5 -48q0 -31 20 -53t64 -53
q59 -41 87.5 -88t28.5 -108q0 -73 -34 -123.5t-95 -76t-141 -25.5z" />
    <glyph glyph-name="T" unicode="T" horiz-adv-x="541" 
d="M123 0l120 573h-164l30 141h498l-31 -141h-164l-121 -573h-168z" />
    <glyph glyph-name="U" unicode="U" horiz-adv-x="696" 
d="M296 -10q-111 0 -171 56.5t-60 147.5q0 15 1.5 33.5t5.5 35.5l96 451h169l-95 -448q-8 -34 -8 -58q0 -36 19.5 -56t59.5 -20q55 0 84 33.5t44 106.5l94 442h169l-98 -459q-17 -81 -53.5 -140.5t-99 -92t-157.5 -32.5z" />
    <glyph glyph-name="V" unicode="V" horiz-adv-x="602" 
d="M139 0l-57 714h164l19 -398q1 -23 1 -52.5t-1 -57.5t-4 -48h4q10 36 24.5 75t27.5 68l192 413h176l-360 -714h-186z" />
    <glyph glyph-name="W" unicode="W" horiz-adv-x="913" 
d="M106 0l-23 714h159l-1 -375q-1 -40 -2.5 -86t-5.5 -83h4q12 37 28.5 79t31.5 76l172 389h147l5 -394q1 -17 0.5 -43.5t-1.5 -55.5t-3 -54h4q8 27 19 59t23 64t22 57l149 367h169l-313 -714h-195l-5 301q-1 53 0 91t3 77h-4q-14 -43 -29.5 -82.5t-31.5 -77.5l-136 -309
h-186z" />
    <glyph glyph-name="X" unicode="X" horiz-adv-x="632" 
d="M-59 0l278 376l-112 338h177l68 -242l165 242h192l-265 -354l130 -360h-185l-78 255l-180 -255h-190z" />
    <glyph glyph-name="Y" unicode="Y" horiz-adv-x="582" 
d="M143 0l58 275l-115 439h173l54 -278l169 278h188l-301 -439l-58 -275h-168z" />
    <glyph glyph-name="Z" unicode="Z" horiz-adv-x="537" 
d="M-37 0l21 107l360 468h-251l29 139h468l-22 -109l-364 -466h279l-29 -139h-491z" />
    <glyph glyph-name="bracketleft" unicode="[" horiz-adv-x="344" 
d="M-22 -163l189 886h244l-24 -112h-105l-141 -661h105l-24 -113h-244z" />
    <glyph glyph-name="backslash" unicode="\" horiz-adv-x="442" 
d="M219 -5l-111 724h138l115 -724h-142z" />
    <glyph glyph-name="bracketright" unicode="]" horiz-adv-x="344" 
d="M-66 -163l24 113h104l140 661h-105l25 112h243l-189 -886h-242z" />
    <glyph glyph-name="asciicircum" unicode="^" horiz-adv-x="544" 
d="M8 250l305 466h77l137 -466h-121l-80 295l-187 -295h-131z" />
    <glyph glyph-name="underscore" unicode="_" horiz-adv-x="423" 
d="M-91 -170l21 92h426l-21 -92h-426z" />
    <glyph glyph-name="grave" unicode="`" horiz-adv-x="336" 
d="M265 606q-21 20 -44.5 46t-44 53t-31.5 51v10h170q7 -33 20.5 -71.5t31.5 -76.5v-12h-102z" />
    <glyph glyph-name="a" unicode="a" horiz-adv-x="600" 
d="M198 -10q-41 0 -76.5 20t-57 64.5t-21.5 119.5q0 59 16.5 123t48 119t78 89t106.5 34q50 0 81.5 -21.5t50.5 -57.5h4l27 69h131l-117 -549h-129l6 66h-4q-26 -34 -60 -55t-84 -21zM265 124q26 0 48.5 22t38.5 57t23 74q6 36 6 73q0 33 -14.5 54t-40.5 21
q-24 0 -44.5 -19.5t-36 -52t-24.5 -71.5t-9 -79q0 -79 53 -79z" />
    <glyph glyph-name="b" unicode="b" horiz-adv-x="601" 
d="M309 -10q-47 0 -79 19t-55 57h-4l-26 -66h-130l161 760h166l-27 -128q-7 -30 -15.5 -60t-16 -53t-10.5 -34h4q23 29 50 51.5t76 22.5q41 0 76 -19.5t57 -64.5t22 -120q0 -59 -16.5 -123t-48 -119t-78 -89t-106.5 -34zM274 124q24 0 44.5 19.5t36.5 52t25 72t9 78.5
q0 79 -54 79q-30 0 -51.5 -23t-35.5 -58t-21 -73t-7 -68q0 -36 14 -57.5t40 -21.5z" />
    <glyph glyph-name="c" unicode="c" horiz-adv-x="493" 
d="M247 -10q-57 0 -103 21.5t-73.5 68.5t-27.5 123q0 73 20 137.5t57.5 113.5t91.5 77t123 28q50 0 90.5 -9.5t78.5 -27.5l-52 -125q-26 11 -53 20t-57 9q-32 0 -56.5 -19.5t-41 -50.5t-25 -68t-8.5 -73q0 -48 19.5 -69.5t53.5 -21.5q36 0 68.5 11.5t67.5 29.5v-134
q-37 -19 -78 -30t-95 -11z" />
    <glyph glyph-name="d" unicode="d" horiz-adv-x="599" 
d="M198 -10q-41 0 -76.5 20t-57 64.5t-21.5 120.5q0 59 16 122.5t48 118.5t78.5 89t106.5 34q47 0 73 -21.5t47 -55.5h4q0 4 1.5 24t4 45t7.5 47l34 162h167l-161 -760h-130l7 66h-4q-25 -32 -58.5 -54t-85.5 -22zM267 124q29 0 50.5 23t35.5 58.5t21 73.5t7 67
q0 36 -14 57.5t-40 21.5q-24 0 -44.5 -19.5t-36.5 -52t-25 -71.5t-9 -79q0 -79 55 -79z" />
    <glyph glyph-name="e" unicode="e" horiz-adv-x="567" 
d="M260 -10q-100 0 -158.5 55t-58.5 160q0 68 19.5 131.5t58.5 113.5t97 79.5t135 29.5q92 0 141.5 -41.5t49.5 -109.5q0 -88 -75 -142t-232 -54h-26q-1 -6 -1 -15q0 -84 89 -84q43 0 79 10.5t82 33.5v-121q-44 -22 -90 -34t-110 -12zM228 320h18q75 0 107 25t32 56
q0 42 -46 42q-25 0 -48 -17t-40 -45t-23 -61z" />
    <glyph glyph-name="f" unicode="f" horiz-adv-x="390" 
d="M-12 -240q-25 0 -50.5 3.5t-42.5 8.5v132q30 -9 57 -9q32 0 53 17.5t29 55.5l97 455h-81l18 82l90 43l9 39q21 97 71 137.5t132 40.5q36 0 68.5 -7t57.5 -19l-43 -118q-14 6 -30.5 10.5t-33.5 4.5q-23 0 -38 -14.5t-20 -39.5l-7 -33h105l-27 -126h-105l-103 -481
q-11 -52 -35 -93t-65.5 -65t-105.5 -24z" />
    <glyph glyph-name="g" unicode="g" horiz-adv-x="600" 
d="M191 -240q-61 0 -101.5 9t-76.5 24v141q38 -20 81 -31t90 -11q95 0 120 88l4 18q4 19 11 40t8 26h-4q-23 -29 -54 -50.5t-80 -21.5q-41 0 -74 20t-52.5 64.5t-19.5 116.5q0 60 16.5 124t48 119t77.5 89t105 34q51 0 79.5 -20t54.5 -59h4l27 69h131l-120 -562
q-18 -86 -57.5 -135.5t-95 -70.5t-122.5 -21zM268 124q27 0 48 21.5t35.5 55.5t22 72.5t7.5 72.5q0 36 -14 57.5t-40 21.5q-24 0 -45 -19.5t-36.5 -52t-24.5 -71.5t-9 -79q0 -79 56 -79z" />
    <glyph glyph-name="h" unicode="h" horiz-adv-x="612" 
d="M15 0l161 760h166l-27 -127q-6 -27 -15 -58.5t-16.5 -56.5t-11.5 -33h4q28 36 63 55t81 19q74 0 108.5 -44.5t34.5 -112.5q0 -46 -11 -99l-64 -303h-166l65 311q3 15 5.5 32t2.5 31q0 52 -45 52q-40 0 -70 -49t-47 -131l-52 -246h-166z" />
    <glyph glyph-name="i" unicode="i" horiz-adv-x="310" 
d="M237 610q-35 0 -59 14.5t-24 49.5q0 46 26 70t73 24q33 0 57.5 -14.5t24.5 -49.5q0 -42 -24 -68t-74 -26zM15 0l116 549h167l-117 -549h-166z" />
    <glyph glyph-name="j" unicode="j" horiz-adv-x="310" 
d="M239 610q-35 0 -58.5 14.5t-23.5 49.5q0 46 25.5 70t72.5 24q33 0 58 -14.5t25 -49.5q0 -42 -24.5 -68t-74.5 -26zM-37 -240q-24 0 -50 3.5t-42 8.5v132q17 -5 29.5 -7t26.5 -2q30 0 52.5 18t31.5 60l123 576h166l-128 -602q-10 -50 -34.5 -92.5t-67 -68.5t-107.5 -26z
" />
    <glyph glyph-name="k" unicode="k" horiz-adv-x="591" 
d="M15 0l160 760h166l-70 -332q-5 -26 -15 -59t-15 -49h4l207 229h190l-242 -248l137 -301h-187l-79 199l-55 -31l-35 -168h-166z" />
    <glyph glyph-name="l" unicode="l" horiz-adv-x="310" 
d="M15 0l161 760h166l-161 -760h-166z" />
    <glyph glyph-name="m" unicode="m" horiz-adv-x="915" 
d="M15 0l116 549h130l-9 -96h4q31 52 70.5 79t96.5 27q56 0 87.5 -28t41.5 -78h4q32 50 74 78t98 28q68 0 103 -41.5t35 -118.5q0 -40 -11 -93l-64 -306h-166l65 314q3 14 5.5 29.5t2.5 31.5q0 51 -42 51q-44 0 -73 -50t-46 -131l-50 -245h-167l66 314q3 14 5.5 30t2.5 28
q0 28 -11 41t-31 13q-40 0 -69.5 -47t-48.5 -133l-53 -246h-166z" />
    <glyph glyph-name="n" unicode="n" horiz-adv-x="612" 
d="M15 0l116 549h130l-8 -90h4q29 48 68.5 74t94.5 26q74 0 108.5 -44.5t34.5 -112.5q0 -46 -11 -99l-64 -303h-166l65 311q3 15 5.5 32t2.5 31q0 52 -45 52q-40 0 -70 -49.5t-47 -130.5l-52 -246h-166z" />
    <glyph glyph-name="o" unicode="o" horiz-adv-x="595" 
d="M253 -10q-97 0 -153.5 56t-56.5 155q0 72 19 136.5t56.5 114.5t93.5 78.5t131 28.5q98 0 154 -56t56 -158q0 -70 -18.5 -134t-56 -113.5t-93.5 -78.5t-132 -29zM270 120q34 0 60 33t40 85t14 109q0 37 -13.5 59.5t-43.5 22.5q-28 0 -49.5 -21t-36.5 -55.5t-22.5 -74.5
t-7.5 -79q0 -79 59 -79z" />
    <glyph glyph-name="p" unicode="p" horiz-adv-x="601" 
d="M-36 -240l167 789h130l-7 -73h4q24 35 59 59t83 24q66 0 112 -48.5t46 -152.5q0 -68 -17.5 -133t-50.5 -118.5t-79.5 -85t-103.5 -31.5q-44 0 -71.5 21.5t-47.5 54.5h-4q-3 -40 -7.5 -76t-15.5 -85l-31 -145h-166zM276 124q24 0 44.5 19.5t36 52t24 72t8.5 78.5
q0 79 -54 79q-29 0 -51 -22.5t-36 -57.5t-21 -73t-7 -69q0 -36 15 -57.5t41 -21.5z" />
    <glyph glyph-name="q" unicode="q" horiz-adv-x="600" 
d="M251 -240l35 155q7 32 17 66.5t17.5 58.5l7.5 24h-4q-23 -30 -53.5 -52t-80.5 -22q-36 0 -70 20t-55.5 65t-21.5 118q0 60 16 124t48 119t78.5 89t106.5 34q48 0 77 -20t55 -59h4l27 69h131l-168 -789h-167zM268 124q28 0 49.5 23t35.5 58.5t21 73.5t7 67q0 36 -14 57.5
t-40 21.5q-24 0 -44.5 -19.5t-36.5 -52t-25 -71.5t-9 -79q0 -79 56 -79z" />
    <glyph glyph-name="r" unicode="r" horiz-adv-x="428" 
d="M15 0l116 549h130l-9 -97h4q34 56 74 81.5t94 25.5q26 0 44 -4l-36 -163q-10 4 -24 6.5t-31 2.5q-49 0 -87.5 -37.5t-56.5 -119.5l-52 -244h-166z" />
    <glyph glyph-name="s" unicode="s" horiz-adv-x="486" 
d="M181 -10q-104 0 -168 32v135q79 -44 159 -44q26 0 52 10.5t26 36.5q0 12 -6 22.5t-23 23t-50 30.5q-52 28 -77.5 62t-25.5 87q0 82 55 128t162 46q50 0 94.5 -11.5t86.5 -37.5l-53 -113q-29 18 -62 30.5t-64 12.5q-21 0 -35.5 -10t-14.5 -30q0 -16 15.5 -29t54.5 -33
q53 -26 82.5 -62.5t29.5 -89.5q0 -98 -64.5 -147t-173.5 -49z" />
    <glyph glyph-name="t" unicode="t" horiz-adv-x="432" 
d="M200 -10q-68 0 -106 29t-38 100q0 16 2.5 35.5t5.5 36.5l50 232h-75l17 82l100 42l66 116h109l-24 -114h140l-28 -126h-139l-49 -228q-5 -23 -5 -37q0 -18 10 -26t27 -8q19 0 40 5.5t44 14.5v-125q-27 -13 -64 -21t-83 -8z" />
    <glyph glyph-name="u" unicode="u" horiz-adv-x="612" 
d="M193 -10q-73 0 -107.5 44.5t-34.5 112.5q0 23 3 51.5t9 56.5l62 294h166l-65 -310q-8 -32 -8 -64q0 -51 45 -51q38 0 68.5 49t48.5 130l52 246h166l-116 -549h-130l8 90h-5q-29 -48 -68 -74t-94 -26z" />
    <glyph glyph-name="v" unicode="v" horiz-adv-x="527" 
d="M116 0l-69 549h164l17 -282q1 -19 1.5 -46t-0.5 -49h4q7 20 17 46.5t18 42.5l138 288h179l-297 -549h-172z" />
    <glyph glyph-name="w" unicode="w" horiz-adv-x="804" 
d="M84 0l-28 549h156l1 -255q0 -34 -1 -68t-5 -69h4q6 21 14 44.5t15.5 44t12.5 32.5l110 271h178l-7 -266q0 -25 -1 -57t-5 -69h5q10 31 23 70t25 68l109 254h167l-260 -549h-182l1 238q0 22 1.5 53t3 63t4.5 57h-5q-12 -38 -28 -84.5t-28 -74.5l-103 -252h-177z" />
    <glyph glyph-name="x" unicode="x" horiz-adv-x="547" 
d="M-53 0l232 281l-105 268h179l47 -158l107 158h196l-227 -277l115 -272h-182l-51 164l-117 -164h-194z" />
    <glyph glyph-name="y" unicode="y" horiz-adv-x="531" 
d="M7 -240q-27 0 -44.5 2.5t-28.5 6.5v132q10 -2 24 -4t31 -2q45 0 73.5 22.5t50.5 63.5l12 22l-80 546h166l23 -253q3 -30 3.5 -62t0.5 -58h4q8 23 19 54t25 61l119 258h179l-329 -623q-45 -85 -105 -125.5t-143 -40.5z" />
    <glyph glyph-name="z" unicode="z" horiz-adv-x="469" 
d="M-22 0l19 97l265 323h-183l28 129h380l-23 -107l-260 -313h201l-28 -129h-399z" />
    <glyph glyph-name="braceleft" unicode="{" horiz-adv-x="357" 
d="M229 -158q-93 0 -132 34.5t-39 92.5q0 17 2 32t5 30l19 88q2 8 3.5 16.5t1.5 15.5q0 33 -22.5 50t-72.5 17l24 125q59 0 90.5 20.5t41.5 66.5l28 130q11 50 32.5 84t61.5 52t104 18h51l-27 -122q-36 -1 -58 -13.5t-30 -53.5l-29 -136q-12 -55 -47.5 -80.5t-88.5 -31.5v-4
q83 -27 83 -109q0 -11 -2 -22.5t-5 -24.5l-17 -83q-3 -15 -3 -25q0 -25 15.5 -35t42.5 -10v-122h-32z" />
    <glyph glyph-name="bar" unicode="|" horiz-adv-x="558" 
d="M219 -227v984h119v-984h-119z" />
    <glyph glyph-name="braceright" unicode="}" horiz-adv-x="357" 
d="M-54 -158v122q44 2 65.5 14.5t29.5 52.5l29 136q12 55 48 80.5t88 31.5v4q-43 13 -63 41t-20 68q0 11 2 22.5t4 24.5l18 83q3 15 3 25q0 45 -69 45l23 122h22q93 0 131 -36.5t38 -90.5q0 -17 -2 -32t-5 -30l-19 -88q-1 -8 -3 -16.5t-2 -15.5q0 -67 98 -67l-24 -125
q-60 0 -92 -20.5t-43 -66.5l-28 -130q-11 -50 -33 -84t-62.5 -52t-105.5 -18h-28z" />
    <glyph glyph-name="asciitilde" unicode="~" horiz-adv-x="578" 
d="M276 295q-37 16 -63.5 21.5t-49.5 5.5q-29 0 -59 -17t-55 -42v125q51 53 127 53q29 0 58.5 -5.5t77.5 -25.5q37 -16 64 -21.5t49 -5.5q29 0 59 17t55 42v-125q-51 -53 -127 -53q-29 0 -58.5 6t-77.5 25z" />
    <glyph glyph-name="uni00A0" unicode="&#xa0;" horiz-adv-x="260" 
 />
    <glyph glyph-name="exclamdown" unicode="&#xa1;" horiz-adv-x="294" 
d="M168 378q-38 0 -59 19t-21 54q0 48 29 75.5t76 27.5t65 -22t18 -49q0 -42 -25.5 -73.5t-82.5 -31.5zM-44 -174l125 470h137l-76 -470h-186z" />
    <glyph glyph-name="cent" unicode="&#xa2;" horiz-adv-x="564" 
d="M186 -10l24 103q-57 16 -94.5 61t-37.5 131q0 95 30 173t85.5 129t133.5 62l16 75h101l-17 -75q33 -5 60 -13.5t52 -20.5l-52 -125q-29 13 -54 20.5t-56 7.5q-32 0 -56.5 -19.5t-41 -51.5t-24.5 -70t-8 -76q0 -84 72 -84q36 0 68.5 12t67.5 30v-135q-33 -17 -68.5 -27.5
t-79.5 -13.5l-20 -93h-101z" />
    <glyph glyph-name="sterling" unicode="&#xa3;" horiz-adv-x="564" 
d="M-7 0l27 135q50 13 77 41t39 83l11 49h-93l24 121h93l18 94q21 109 81 155.5t151 46.5q55 0 99.5 -12.5t81.5 -29.5l-62 -129q-31 15 -58 23.5t-53 8.5q-28 0 -45 -16t-25 -55l-18 -86h135l-25 -121h-135l-10 -43q-10 -47 -38 -77t-62 -45h308l-30 -143h-491z" />
    <glyph glyph-name="currency" unicode="&#xa4;" horiz-adv-x="564" 
d="M444 119l-62 60q-20 -10 -44 -16t-49 -6q-26 0 -49.5 5t-44.5 17l-61 -59l-79 79l62 61q-24 44 -24 93q0 25 6.5 49t17.5 44l-63 62l80 80l62 -61q21 11 45.5 17t47.5 6q49 0 93 -25l62 63l82 -78l-63 -63q11 -19 17 -44t6 -50q0 -26 -6 -49t-17 -45l60 -61zM289 269
q36 0 61 24.5t25 59.5t-25 59.5t-61 24.5q-35 0 -59 -24.5t-24 -59.5t24 -59.5t59 -24.5z" />
    <glyph glyph-name="yen" unicode="&#xa5;" horiz-adv-x="564" 
d="M136 0l22 101h-118l20 93h117l13 65h-117l21 93h91l-92 362h165l46 -265l163 265h171l-243 -362h94l-20 -93h-117l-13 -65h116l-19 -93h-116l-22 -101h-162z" />
    <glyph glyph-name="brokenbar" unicode="&#xa6;" horiz-adv-x="558" 
d="M220 352v404h118v-404h-118zM220 -222v403h118v-403h-118z" />
    <glyph glyph-name="section" unicode="&#xa7;" horiz-adv-x="495" 
d="M179 -11q-54 0 -95.5 11t-69.5 30v115q38 -23 81 -38.5t90 -15.5q45 0 64.5 16.5t19.5 39.5q0 20 -16.5 36.5t-56.5 36.5q-56 28 -88.5 65t-32.5 89q0 86 93 142q-20 17 -32 42.5t-12 51.5q0 80 60 118.5t156 38.5q50 0 91 -12.5t81 -33.5l-44 -101q-27 17 -62 31t-79 14
q-62 0 -62 -45q0 -19 16 -34.5t61 -36.5q64 -29 91.5 -66t27.5 -83q0 -58 -27 -91t-62 -54q18 -18 29 -42.5t11 -53.5q0 -81 -62.5 -125.5t-170.5 -44.5zM289 306q17 11 30 29.5t13 43.5q0 52 -81 85q-22 -10 -35 -30t-13 -41q0 -25 22 -46t64 -41z" />
    <glyph glyph-name="dieresis" unicode="&#xa8;" horiz-adv-x="554" 
d="M467 618q-31 0 -51 12t-20 45q0 43 22 63.5t63 20.5q27 0 48.5 -11.5t21.5 -45.5q0 -38 -19 -61t-65 -23zM257 618q-31 0 -51.5 12t-20.5 45q0 43 22.5 63.5t62.5 20.5q27 0 49 -11.5t22 -45.5q0 -38 -19.5 -61t-64.5 -23z" />
    <glyph glyph-name="copyright" unicode="&#xa9;" horiz-adv-x="828" 
d="M414 -10q-80 0 -147 27t-116.5 76.5t-76.5 116.5t-27 147q0 78 27.5 145t77 116.5t116.5 77.5t146 28q78 0 145 -27t116.5 -76.5t77.5 -116.5t28 -147t-27 -147t-76.5 -116.5t-116.5 -76.5t-147 -27zM414 61q82 0 147 38t103 104.5t38 153.5q0 84 -37.5 151t-102.5 106
t-148 39q-84 0 -149.5 -38t-103 -104.5t-37.5 -153.5t37 -153.5t102.5 -104.5t150.5 -38zM423 128q-105 0 -157.5 63t-52.5 167q0 67 23.5 118.5t70.5 80.5t116 29q37 0 72 -9t66 -25l-36 -82q-25 13 -49 19.5t-49 6.5q-49 0 -77 -36.5t-28 -102.5q0 -70 25 -105t81 -35
q27 0 57.5 7.5t57.5 20.5v-90q-27 -13 -55 -20t-65 -7z" />
    <glyph glyph-name="ordfeminine" unicode="&#xaa;" horiz-adv-x="389" 
d="M176 361q-24 0 -48.5 12t-40.5 41t-16 79q0 36 10 75.5t31 74t52.5 56t75.5 21.5q34 0 56 -13t39 -36h4l18 43h85l-79 -347h-83l4 43h-4q-19 -22 -44 -35.5t-60 -13.5zM225 442q21 0 36 15.5t24.5 38.5t14 47t4.5 42q0 22 -9 38t-30 16q-24 0 -41.5 -23t-27.5 -57
t-10 -66q0 -51 39 -51z" />
    <glyph glyph-name="guillemotleft" unicode="&#xab;" horiz-adv-x="590" 
d="M381 41l-97 235v7l201 233l109 -88l-136 -157l63 -172zM127 41l-94 228v8l197 238l110 -87l-134 -163l61 -166z" />
    <glyph glyph-name="logicalnot" unicode="&#xac;" horiz-adv-x="578" 
d="M539 412v-293h-119v174h-371v119h490z" />
    <glyph glyph-name="uni00AD" unicode="&#xad;" horiz-adv-x="325" 
d="M16 200l28 136h263l-29 -136h-262z" />
    <glyph glyph-name="registered" unicode="&#xae;" horiz-adv-x="828" 
d="M414 -10q-80 0 -147 27t-116.5 76.5t-76.5 116.5t-27 147q0 78 27.5 145t77 116.5t116.5 77.5t146 28q78 0 145 -27t116.5 -76.5t77.5 -116.5t28 -147t-27 -147t-76.5 -116.5t-116.5 -76.5t-147 -27zM414 61q82 0 147 38t103 104.5t38 153.5q0 84 -37.5 151t-102.5 106
t-148 39q-84 0 -149.5 -38t-103 -104.5t-37.5 -153.5t37 -153.5t102.5 -104.5t150.5 -38zM264 145v435h135q92 0 133 -34.5t41 -98.5q0 -49 -22 -76t-52 -40l106 -186h-111l-84 162h-42v-162h-104zM368 383h30q70 0 70 61q0 31 -17 43t-53 12h-30v-116z" />
    <glyph glyph-name="overscore" unicode="&#xaf;" horiz-adv-x="477" 
d="M93 760l25 108h482l-25 -108h-482z" />
    <glyph glyph-name="degree" unicode="&#xb0;" horiz-adv-x="425" 
d="M213 377q-52 0 -92 22t-63 61t-23 90q0 50 23 89.5t63 62t92 22.5t91.5 -22.5t62 -62t22.5 -89.5q0 -51 -22.5 -90t-62 -61t-91.5 -22zM213 481q30 0 50 18.5t20 50.5q0 33 -20 52t-50 19q-31 0 -51 -19t-20 -52q0 -32 20 -50.5t51 -18.5z" />
    <glyph glyph-name="plusminus" unicode="&#xb1;" horiz-adv-x="578" 
d="M353 448h186v-119h-186v-182h-118v182h-186v119h186v184h118v-184zM49 0v118h490v-118h-490z" />
    <glyph glyph-name="uni00B2" unicode="&#xb2;" horiz-adv-x="395" 
d="M58 415l19 90l134 105q49 38 71 61t22 46q0 17 -10.5 25t-25.5 8q-20 0 -43 -9.5t-49 -29.5l-54 84q38 29 79.5 43.5t100.5 14.5q62 0 100.5 -29.5t38.5 -77.5q0 -39 -16 -68.5t-47.5 -56.5t-79.5 -60l-51 -36h163l-23 -110h-329z" />
    <glyph glyph-name="uni00B3" unicode="&#xb3;" horiz-adv-x="395" 
d="M218 408q-88 0 -140 30v102q59 -38 124 -38q36 0 58 12t22 37q0 16 -12 27.5t-44 11.5h-60l19 86h45q38 0 60.5 12t22.5 37q0 17 -11.5 25.5t-30.5 8.5q-21 0 -42.5 -7.5t-49.5 -24.5l-44 80q37 23 74.5 34.5t85.5 11.5q69 0 105.5 -29t36.5 -74q0 -51 -31.5 -76
t-77.5 -36v-4q43 -10 60.5 -33t17.5 -54q0 -43 -24.5 -74.5t-67 -48t-96.5 -16.5z" />
    <glyph glyph-name="acute" unicode="&#xb4;" horiz-adv-x="358" 
d="M113 606v12q29 28 62.5 70.5t58.5 77.5h187v-8q-11 -14 -33.5 -34t-50.5 -42.5t-56 -42.5t-49 -33h-119z" />
    <glyph glyph-name="uni00B5" unicode="&#xb5;" horiz-adv-x="619" 
d="M-36 -240l167 789h167l-65 -308q-8 -34 -8 -65q0 -26 13.5 -39t32.5 -13q45 0 71.5 47.5t43.5 130.5l52 247h167l-117 -549h-124l6 74h-5q-44 -84 -112 -84q-25 0 -42.5 9.5t-26.5 25.5h-4q-6 -61 -20 -126l-29 -139h-167z" />
    <glyph glyph-name="paragraph" unicode="&#xb6;" horiz-adv-x="649" 
d="M333 -127v400q-15 -5 -30 -7t-36 -2q-62 0 -108 23t-71.5 77t-25.5 145q0 95 27.5 150t77 78t115.5 23h301v-887h-85v783h-79v-783h-86z" />
    <glyph glyph-name="periodcentered" unicode="&#xb7;" horiz-adv-x="295" 
d="M141 265q-41 0 -61 20t-20 52q0 47 28.5 76t80.5 29q36 0 58 -18.5t22 -55.5q0 -52 -29.5 -77.5t-78.5 -25.5z" />
    <glyph glyph-name="cedilla" unicode="&#xb8;" horiz-adv-x="197" 
d="M-21 -240q-26 0 -47.5 4t-35.5 8v91q13 -5 33.5 -8.5t33.5 -3.5q42 0 42 32q0 16 -14.5 27.5t-55.5 18.5l42 71h95l-16 -28q33 -9 55.5 -30t22.5 -61q0 -54 -38.5 -87.5t-116.5 -33.5z" />
    <glyph glyph-name="uni00B9" unicode="&#xb9;" horiz-adv-x="395" 
d="M177 415l40 187q7 32 15 58.5t12 42.5q-9 -8 -20.5 -17t-16.5 -12l-61 -39l-54 85l201 123h111l-91 -428h-136z" />
    <glyph glyph-name="ordmasculine" unicode="&#xba;" horiz-adv-x="382" 
d="M221 360q-68 0 -104.5 38t-36.5 105q0 58 21.5 107.5t65 80t109.5 30.5q69 0 104.5 -39t35.5 -106q0 -36 -10.5 -74t-33.5 -70.5t-60 -52t-91 -19.5zM231 450q23 0 38 21t22.5 51.5t7.5 59.5q0 50 -34 50q-23 0 -38.5 -22t-23 -53t-7.5 -57q0 -50 35 -50z" />
    <glyph glyph-name="guillemotright" unicode="&#xbb;" horiz-adv-x="590" 
d="M360 33l-110 87l134 163l-61 167l140 58l94 -229v-7zM105 32l-108 88l135 157l-62 173l139 58l97 -235v-8z" />
    <glyph glyph-name="onequarter" unicode="&#xbc;" horiz-adv-x="879" 
d="M127 0l532 714h127l-529 -714h-130zM162 285l40 187q7 32 15 58.5t12 42.5q-9 -8 -20.5 -17t-16.5 -12l-61 -39l-54 85l201 123h111l-91 -428h-136zM625 0l15 68h-188l15 86l236 277h141l-58 -274h56l-18 -89h-57l-14 -68h-128zM576 157h82l20 79q5 20 10.5 38t10.5 35
q-8 -14 -22.5 -32t-23.5 -29z" />
    <glyph glyph-name="onehalf" unicode="&#xbd;" horiz-adv-x="931" 
d="M122 0l532 714h127l-529 -714h-130zM162 285l40 187q7 32 15 58.5t12 42.5q-9 -8 -20.5 -17t-16.5 -12l-61 -39l-54 85l201 123h111l-91 -428h-136zM507 -1l19 90l134 105q49 38 71 61t22 46q0 17 -10.5 25t-25.5 8q-20 0 -43 -9.5t-49 -29.5l-54 84q38 29 79.5 43.5
t100.5 14.5q62 0 100.5 -29.5t38.5 -77.5q0 -39 -16 -68.5t-47.5 -56.5t-79.5 -60l-51 -36h163l-23 -110h-329z" />
    <glyph glyph-name="threequarters" unicode="&#xbe;" horiz-adv-x="905" 
d="M193 279q-88 0 -140 30v102q59 -38 124 -38q36 0 58 12t22 37q0 16 -12 27.5t-44 11.5h-60l19 86h45q38 0 60.5 12t22.5 37q0 17 -11.5 25.5t-30.5 8.5q-21 0 -42.5 -7.5t-49.5 -24.5l-44 80q37 23 74.5 34.5t85.5 11.5q69 0 105.5 -29t36.5 -74q0 -51 -31.5 -76
t-77.5 -36v-4q43 -10 60.5 -33t17.5 -54q0 -43 -24.5 -74.5t-67 -48t-96.5 -16.5zM154 0l532 714h127l-529 -714h-130zM651 0l15 68h-188l15 86l236 277h141l-58 -274h56l-18 -89h-57l-14 -68h-128zM602 157h82l20 79q5 20 10.5 38t10.5 35q-8 -14 -22.5 -32t-23.5 -29z" />
    <glyph glyph-name="questiondown" unicode="&#xbf;" horiz-adv-x="472" 
d="M348 299q-9 -50 -23.5 -84.5t-39.5 -61.5t-66 -55q-49 -33 -68 -53t-19 -45q0 -21 12.5 -34t42.5 -13q32 0 69.5 13.5t82.5 37.5l51 -122q-46 -26 -102 -44.5t-119 -18.5q-93 0 -146 43.5t-53 119.5q0 53 19 88.5t51.5 62t70.5 50.5q34 21 51.5 37t27 34t17.5 45h141z
M315 556q46 0 64.5 -22t18.5 -50q0 -41 -25.5 -73t-82.5 -32q-37 0 -58.5 19.5t-21.5 54.5q0 48 29 75.5t76 27.5z" />
    <glyph glyph-name="Agrave" unicode="&#xc0;" horiz-adv-x="650" 
d="M-60 0l369 714h212l66 -714h-164l-8 153h-226l-73 -153h-176zM254 292h154l-10 194q-2 26 -3 53t0 54h-3q-8 -25 -18.5 -49.5t-23.5 -51.5zM415 771q-21 20 -44.5 46t-44 53t-31.5 51v10h170q7 -33 20.5 -71.5t31.5 -76.5v-12h-102z" />
    <glyph glyph-name="Aacute" unicode="&#xc1;" horiz-adv-x="650" 
d="M-60 0l369 714h212l66 -714h-164l-8 153h-226l-73 -153h-176zM254 292h154l-10 194q-2 26 -3 53t0 54h-3q-8 -25 -18.5 -49.5t-23.5 -51.5zM342 771v12q29 28 62.5 70.5t58.5 77.5h187v-8q-11 -14 -33.5 -34t-50.5 -42.5t-56 -42.5t-49 -33h-119z" />
    <glyph glyph-name="Acircumflex" unicode="&#xc2;" horiz-adv-x="650" 
d="M-60 0l369 714h212l66 -714h-164l-8 153h-226l-73 -153h-176zM254 292h154l-10 194q-2 26 -3 53t0 54h-3q-8 -25 -18.5 -49.5t-23.5 -51.5zM211 771v12q21 20 48.5 46t54 53t44.5 49h189q15 -34 40.5 -76.5t46.5 -71.5v-12h-112q-17 15 -39.5 39.5t-38.5 43.5
q-28 -23 -56.5 -43.5t-58.5 -39.5h-118z" />
    <glyph glyph-name="Atilde" unicode="&#xc3;" horiz-adv-x="650" 
d="M-60 0l369 714h212l66 -714h-164l-8 153h-226l-73 -153h-176zM254 292h154l-10 194q-2 26 -3 53t0 54h-3q-8 -25 -18.5 -49.5t-23.5 -51.5zM233 770q15 84 52.5 121t91.5 37q31 0 54 -12.5t43 -25t41 -12.5q35 0 54 51h88q-18 -86 -55.5 -122t-92.5 -36q-32 0 -55.5 12
t-43.5 24.5t-42 12.5q-15 0 -28.5 -13.5t-18.5 -36.5h-88z" />
    <glyph glyph-name="Adieresis" unicode="&#xc4;" horiz-adv-x="650" 
d="M-60 0l369 714h212l66 -714h-164l-8 153h-226l-73 -153h-176zM254 292h154l-10 194q-2 26 -3 53t0 54h-3q-8 -25 -18.5 -49.5t-23.5 -51.5zM541 783q-31 0 -51 12t-20 45q0 43 22 63.5t63 20.5q27 0 48.5 -11.5t21.5 -45.5q0 -38 -19 -61t-65 -23zM331 783
q-31 0 -51.5 12t-20.5 45q0 43 22.5 63.5t62.5 20.5q27 0 49 -11.5t22 -45.5q0 -38 -19.5 -61t-64.5 -23z" />
    <glyph glyph-name="Aring" unicode="&#xc5;" horiz-adv-x="650" 
d="M-60 0l369 714h212l66 -714h-164l-8 153h-226l-73 -153h-176zM254 292h154l-10 194q-2 26 -3 53t0 54h-3q-8 -25 -18.5 -49.5t-23.5 -51.5zM440 770q-56 0 -91 31.5t-35 87.5t35 87.5t91 31.5q53 0 90 -31.5t37 -86.5q0 -56 -36.5 -88t-90.5 -32zM440 845q19 0 32 12
t13 32t-13 32t-32 12t-32 -12t-13 -32t11.5 -32t33.5 -12z" />
    <glyph glyph-name="AE" unicode="&#xc6;" horiz-adv-x="919" 
d="M-60 0l447 714h563l-29 -138h-242l-28 -137h226l-31 -138h-226l-34 -161h242l-29 -140h-410l32 153h-206l-96 -153h-179zM304 296h148l58 280h-36z" />
    <glyph glyph-name="Ccedilla" unicode="&#xc7;" horiz-adv-x="620" 
d="M319 -10q-132 0 -197.5 76t-65.5 203q0 63 14 128t43 123.5t74 105t107 73t142 26.5q70 0 121.5 -14.5t100.5 -42.5l-64 -134q-40 22 -77 36t-81 14q-52 0 -91.5 -27t-65.5 -72t-39 -99t-13 -108q0 -147 124 -147q42 0 83.5 10.5t88.5 30.5v-141q-41 -17 -92 -29
t-112 -12zM274 -240q-26 0 -47.5 4t-35.5 8v91q13 -5 33.5 -8.5t33.5 -3.5q42 0 42 32q0 16 -14.5 27.5t-55.5 18.5l42 71h95l-16 -28q33 -9 55.5 -30t22.5 -61q0 -54 -38.5 -87.5t-116.5 -33.5z" />
    <glyph glyph-name="Egrave" unicode="&#xc8;" horiz-adv-x="551" 
d="M21 0l151 714h411l-29 -138h-242l-28 -137h225l-30 -138h-226l-34 -161h242l-29 -140h-411zM372 771q-21 20 -44.5 46t-44 53t-31.5 51v10h170q7 -33 20.5 -71.5t31.5 -76.5v-12h-102z" />
    <glyph glyph-name="Eacute" unicode="&#xc9;" horiz-adv-x="551" 
d="M21 0l151 714h411l-29 -138h-242l-28 -137h225l-30 -138h-226l-34 -161h242l-29 -140h-411zM299 771v12q29 28 62.5 70.5t58.5 77.5h187v-8q-11 -14 -33.5 -34t-50.5 -42.5t-56 -42.5t-49 -33h-119z" />
    <glyph glyph-name="Ecircumflex" unicode="&#xca;" horiz-adv-x="551" 
d="M21 0l151 714h411l-29 -138h-242l-28 -137h225l-30 -138h-226l-34 -161h242l-29 -140h-411zM168 771v12q21 20 48.5 46t54 53t44.5 49h189q15 -34 40.5 -76.5t46.5 -71.5v-12h-112q-17 15 -39.5 39.5t-38.5 43.5q-28 -23 -56.5 -43.5t-58.5 -39.5h-118z" />
    <glyph glyph-name="Edieresis" unicode="&#xcb;" horiz-adv-x="551" 
d="M21 0l151 714h411l-29 -138h-242l-28 -137h225l-30 -138h-226l-34 -161h242l-29 -140h-411zM498 783q-31 0 -51 12t-20 45q0 43 22 63.5t63 20.5q27 0 48.5 -11.5t21.5 -45.5q0 -38 -19 -61t-65 -23zM288 783q-31 0 -51.5 12t-20.5 45q0 43 22.5 63.5t62.5 20.5
q27 0 49 -11.5t22 -45.5q0 -38 -19.5 -61t-64.5 -23z" />
    <glyph glyph-name="Igrave" unicode="&#xcc;" horiz-adv-x="403" 
d="M-32 0l20 97l92 39l94 440l-76 41l20 97h340l-20 -97l-96 -41l-93 -440l77 -39l-20 -97h-338zM284 771q-21 20 -44.5 46t-44 53t-31.5 51v10h170q7 -33 20.5 -71.5t31.5 -76.5v-12h-102z" />
    <glyph glyph-name="Iacute" unicode="&#xcd;" horiz-adv-x="403" 
d="M-32 0l20 97l92 39l94 440l-76 41l20 97h340l-20 -97l-96 -41l-93 -440l77 -39l-20 -97h-338zM211 771v12q29 28 62.5 70.5t58.5 77.5h187v-8q-11 -14 -33.5 -34t-50.5 -42.5t-56 -42.5t-49 -33h-119z" />
    <glyph glyph-name="Icircumflex" unicode="&#xce;" horiz-adv-x="403" 
d="M-32 0l20 97l92 39l94 440l-76 41l20 97h340l-20 -97l-96 -41l-93 -440l77 -39l-20 -97h-338zM80 771v12q21 20 48.5 46t54 53t44.5 49h189q15 -34 40.5 -76.5t46.5 -71.5v-12h-112q-17 15 -39.5 39.5t-38.5 43.5q-28 -23 -56.5 -43.5t-58.5 -39.5h-118z" />
    <glyph glyph-name="Idieresis" unicode="&#xcf;" horiz-adv-x="403" 
d="M-32 0l20 97l92 39l94 440l-76 41l20 97h340l-20 -97l-96 -41l-93 -440l77 -39l-20 -97h-338zM410 783q-31 0 -51 12t-20 45q0 43 22 63.5t63 20.5q27 0 48.5 -11.5t21.5 -45.5q0 -38 -19 -61t-65 -23zM200 783q-31 0 -51.5 12t-20.5 45q0 43 22.5 63.5t62.5 20.5
q27 0 49 -11.5t22 -45.5q0 -38 -19.5 -61t-64.5 -23z" />
    <glyph glyph-name="Eth" unicode="&#xd0;" horiz-adv-x="680" 
d="M21 0l60 284h-69l30 138h68l62 292h201q132 0 204 -70t72 -200q0 -137 -46 -236.5t-135 -153.5t-217 -54h-230zM219 140h44q69 0 117 39.5t73 107t25 151.5q0 68 -32 102.5t-88 34.5h-46l-33 -153h103l-30 -138h-103z" />
    <glyph glyph-name="Ntilde" unicode="&#xd1;" horiz-adv-x="771" 
d="M21 0l151 714h197l154 -505h4q3 21 8 54.5t11 68.5t11 62l69 320h150l-151 -714h-192l-159 522h-5q-1 -8 -3.5 -31t-7 -53.5t-9.5 -62.5t-10 -57l-67 -318h-151zM299 770q15 84 52.5 121t91.5 37q31 0 54 -12.5t43 -25t41 -12.5q35 0 54 51h88q-18 -86 -55.5 -122
t-92.5 -36q-32 0 -55.5 12t-43.5 24.5t-42 12.5q-15 0 -28.5 -13.5t-18.5 -36.5h-88z" />
    <glyph glyph-name="Ograve" unicode="&#xd2;" horiz-adv-x="733" 
d="M325 -10q-133 0 -201 74.5t-68 198.5q0 84 23 166t70 149t119 107t170 40q130 0 197 -74t67 -197q0 -86 -22 -168.5t-68 -149t-117.5 -106.5t-169.5 -40zM339 131q53 0 97 41.5t69.5 113.5t25.5 165q0 61 -27.5 97t-79.5 36q-44 0 -80 -26.5t-62 -71.5t-40.5 -102.5
t-14.5 -119.5q0 -65 29 -99t83 -34zM454 771q-21 20 -44.5 46t-44 53t-31.5 51v10h170q7 -33 20.5 -71.5t31.5 -76.5v-12h-102z" />
    <glyph glyph-name="Oacute" unicode="&#xd3;" horiz-adv-x="733" 
d="M325 -10q-133 0 -201 74.5t-68 198.5q0 84 23 166t70 149t119 107t170 40q130 0 197 -74t67 -197q0 -86 -22 -168.5t-68 -149t-117.5 -106.5t-169.5 -40zM339 131q53 0 97 41.5t69.5 113.5t25.5 165q0 61 -27.5 97t-79.5 36q-44 0 -80 -26.5t-62 -71.5t-40.5 -102.5
t-14.5 -119.5q0 -65 29 -99t83 -34zM380 771v12q29 28 62.5 70.5t58.5 77.5h187v-8q-11 -14 -33.5 -34t-50.5 -42.5t-56 -42.5t-49 -33h-119z" />
    <glyph glyph-name="Ocircumflex" unicode="&#xd4;" horiz-adv-x="733" 
d="M325 -10q-133 0 -201 74.5t-68 198.5q0 84 23 166t70 149t119 107t170 40q130 0 197 -74t67 -197q0 -86 -22 -168.5t-68 -149t-117.5 -106.5t-169.5 -40zM339 131q53 0 97 41.5t69.5 113.5t25.5 165q0 61 -27.5 97t-79.5 36q-44 0 -80 -26.5t-62 -71.5t-40.5 -102.5
t-14.5 -119.5q0 -65 29 -99t83 -34zM249 771v12q21 20 48.5 46t54 53t44.5 49h189q15 -34 40.5 -76.5t46.5 -71.5v-12h-112q-17 15 -39.5 39.5t-38.5 43.5q-28 -23 -56.5 -43.5t-58.5 -39.5h-118z" />
    <glyph glyph-name="Otilde" unicode="&#xd5;" horiz-adv-x="733" 
d="M325 -10q-133 0 -201 74.5t-68 198.5q0 84 23 166t70 149t119 107t170 40q130 0 197 -74t67 -197q0 -86 -22 -168.5t-68 -149t-117.5 -106.5t-169.5 -40zM339 131q53 0 97 41.5t69.5 113.5t25.5 165q0 61 -27.5 97t-79.5 36q-44 0 -80 -26.5t-62 -71.5t-40.5 -102.5
t-14.5 -119.5q0 -65 29 -99t83 -34zM272 770q15 84 52.5 121t91.5 37q31 0 54 -12.5t43 -25t41 -12.5q35 0 54 51h88q-18 -86 -55.5 -122t-92.5 -36q-32 0 -55.5 12t-43.5 24.5t-42 12.5q-15 0 -28.5 -13.5t-18.5 -36.5h-88z" />
    <glyph glyph-name="Odieresis" unicode="&#xd6;" horiz-adv-x="733" 
d="M325 -10q-133 0 -201 74.5t-68 198.5q0 84 23 166t70 149t119 107t170 40q130 0 197 -74t67 -197q0 -86 -22 -168.5t-68 -149t-117.5 -106.5t-169.5 -40zM339 131q53 0 97 41.5t69.5 113.5t25.5 165q0 61 -27.5 97t-79.5 36q-44 0 -80 -26.5t-62 -71.5t-40.5 -102.5
t-14.5 -119.5q0 -65 29 -99t83 -34zM580 783q-31 0 -51 12t-20 45q0 43 22 63.5t63 20.5q27 0 48.5 -11.5t21.5 -45.5q0 -38 -19 -61t-65 -23zM370 783q-31 0 -51.5 12t-20.5 45q0 43 22.5 63.5t62.5 20.5q27 0 49 -11.5t22 -45.5q0 -38 -19.5 -61t-64.5 -23z" />
    <glyph glyph-name="multiply" unicode="&#xd7;" horiz-adv-x="578" 
d="M434 575l83 -80l-142 -142l140 -141l-81 -81l-142 140l-140 -139l-80 81l138 140l-139 140l81 82l140 -138z" />
    <glyph glyph-name="Oslash" unicode="&#xd8;" horiz-adv-x="733" 
d="M124 -42l-76 56l58 73q-26 35 -38 79t-12 97q0 84 23 166t69.5 149t117.5 107t168 40q46 0 83.5 -9.5t67.5 -26.5l48 60l75 -57l-53 -67q24 -34 35.5 -77t11.5 -94q0 -86 -22.5 -168.5t-68 -149t-116 -106.5t-166.5 -40q-91 0 -152 35zM227 236l261 331q-13 8 -29.5 13.5
t-37.5 5.5q-44 0 -80 -25t-62 -68.5t-40 -100t-14 -118.5q0 -9 0.5 -18.5t1.5 -19.5zM340 130q56 0 99.5 40t69 110t25.5 161v15.5t-1 15.5l-259 -326q26 -16 66 -16z" />
    <glyph glyph-name="Ugrave" unicode="&#xd9;" horiz-adv-x="696" 
d="M296 -10q-111 0 -171 56.5t-60 147.5q0 15 1.5 33.5t5.5 35.5l96 451h169l-95 -448q-8 -34 -8 -58q0 -36 19.5 -56t59.5 -20q55 0 84 33.5t44 106.5l94 442h169l-98 -459q-17 -81 -53.5 -140.5t-99 -92t-157.5 -32.5zM431 771q-21 20 -44.5 46t-44 53t-31.5 51v10h170
q7 -33 20.5 -71.5t31.5 -76.5v-12h-102z" />
    <glyph glyph-name="Uacute" unicode="&#xda;" horiz-adv-x="696" 
d="M296 -10q-111 0 -171 56.5t-60 147.5q0 15 1.5 33.5t5.5 35.5l96 451h169l-95 -448q-8 -34 -8 -58q0 -36 19.5 -56t59.5 -20q55 0 84 33.5t44 106.5l94 442h169l-98 -459q-17 -81 -53.5 -140.5t-99 -92t-157.5 -32.5zM357 771v12q29 28 62.5 70.5t58.5 77.5h187v-8
q-11 -14 -33.5 -34t-50.5 -42.5t-56 -42.5t-49 -33h-119z" />
    <glyph glyph-name="Ucircumflex" unicode="&#xdb;" horiz-adv-x="696" 
d="M296 -10q-111 0 -171 56.5t-60 147.5q0 15 1.5 33.5t5.5 35.5l96 451h169l-95 -448q-8 -34 -8 -58q0 -36 19.5 -56t59.5 -20q55 0 84 33.5t44 106.5l94 442h169l-98 -459q-17 -81 -53.5 -140.5t-99 -92t-157.5 -32.5zM226 771v12q21 20 48.5 46t54 53t44.5 49h189
q15 -34 40.5 -76.5t46.5 -71.5v-12h-112q-17 15 -39.5 39.5t-38.5 43.5q-28 -23 -56.5 -43.5t-58.5 -39.5h-118z" />
    <glyph glyph-name="Udieresis" unicode="&#xdc;" horiz-adv-x="696" 
d="M296 -10q-111 0 -171 56.5t-60 147.5q0 15 1.5 33.5t5.5 35.5l96 451h169l-95 -448q-8 -34 -8 -58q0 -36 19.5 -56t59.5 -20q55 0 84 33.5t44 106.5l94 442h169l-98 -459q-17 -81 -53.5 -140.5t-99 -92t-157.5 -32.5zM557 783q-31 0 -51 12t-20 45q0 43 22 63.5t63 20.5
q27 0 48.5 -11.5t21.5 -45.5q0 -38 -19 -61t-65 -23zM347 783q-31 0 -51.5 12t-20.5 45q0 43 22.5 63.5t62.5 20.5q27 0 49 -11.5t22 -45.5q0 -38 -19.5 -61t-64.5 -23z" />
    <glyph glyph-name="Yacute" unicode="&#xdd;" horiz-adv-x="582" 
d="M143 0l58 275l-115 439h173l54 -278l169 278h188l-301 -439l-58 -275h-168zM292 771v12q29 28 62.5 70.5t58.5 77.5h187v-8q-11 -14 -33.5 -34t-50.5 -42.5t-56 -42.5t-49 -33h-119z" />
    <glyph glyph-name="Thorn" unicode="&#xde;" horiz-adv-x="614" 
d="M21 0l151 714h169l-23 -108h28q88 0 140.5 -27.5t76 -75t23.5 -108.5q0 -85 -40.5 -142t-111 -85.5t-160.5 -28.5h-55l-29 -139h-169zM249 278h42q57 0 91.5 28t34.5 84q0 36 -21.5 56.5t-63.5 20.5h-43z" />
    <glyph glyph-name="germandbls" unicode="&#xdf;" horiz-adv-x="684" 
d="M-38 -240q-22 0 -47.5 3.5t-41.5 8.5v132q30 -9 56 -9q33 0 53.5 17.5t28.5 57.5l122 576q23 109 89 164t199 55q115 0 175.5 -47.5t60.5 -123.5q0 -62 -27 -99t-81 -65q-32 -17 -44.5 -30t-12.5 -26q0 -18 17.5 -30t47.5 -34q35 -26 55 -57t20 -77q0 -50 -24.5 -92.5
t-76 -68t-133.5 -25.5q-46 0 -80 7t-60 19v131q27 -15 62 -25t67 -10q40 0 58.5 14t18.5 34q0 19 -12 33.5t-53 42.5q-44 31 -62.5 59.5t-18.5 62.5q0 50 27 78.5t74 55.5q34 19 50.5 37t16.5 43q0 26 -17.5 44t-61.5 18q-49 0 -74.5 -29t-35.5 -74l-123 -587
q-12 -54 -36.5 -95.5t-67 -65t-108.5 -23.5z" />
    <glyph glyph-name="agrave" unicode="&#xe0;" horiz-adv-x="600" 
d="M198 -10q-41 0 -76.5 20t-57 64.5t-21.5 119.5q0 59 16.5 123t48 119t78 89t106.5 34q50 0 81.5 -21.5t50.5 -57.5h4l27 69h131l-117 -549h-129l6 66h-4q-26 -34 -60 -55t-84 -21zM265 124q26 0 48.5 22t38.5 57t23 74q6 36 6 73q0 33 -14.5 54t-40.5 21
q-24 0 -44.5 -19.5t-36 -52t-24.5 -71.5t-9 -79q0 -79 53 -79zM354 606q-21 20 -44.5 46t-44 53t-31.5 51v10h170q7 -33 20.5 -71.5t31.5 -76.5v-12h-102z" />
    <glyph glyph-name="aacute" unicode="&#xe1;" horiz-adv-x="600" 
d="M198 -10q-41 0 -76.5 20t-57 64.5t-21.5 119.5q0 59 16.5 123t48 119t78 89t106.5 34q50 0 81.5 -21.5t50.5 -57.5h4l27 69h131l-117 -549h-129l6 66h-4q-26 -34 -60 -55t-84 -21zM265 124q26 0 48.5 22t38.5 57t23 74q6 36 6 73q0 33 -14.5 54t-40.5 21
q-24 0 -44.5 -19.5t-36 -52t-24.5 -71.5t-9 -79q0 -79 53 -79zM281 606v12q29 28 62.5 70.5t58.5 77.5h187v-8q-11 -14 -33.5 -34t-50.5 -42.5t-56 -42.5t-49 -33h-119z" />
    <glyph glyph-name="acircumflex" unicode="&#xe2;" horiz-adv-x="600" 
d="M198 -10q-41 0 -76.5 20t-57 64.5t-21.5 119.5q0 59 16.5 123t48 119t78 89t106.5 34q50 0 81.5 -21.5t50.5 -57.5h4l27 69h131l-117 -549h-129l6 66h-4q-26 -34 -60 -55t-84 -21zM265 124q26 0 48.5 22t38.5 57t23 74q6 36 6 73q0 33 -14.5 54t-40.5 21
q-24 0 -44.5 -19.5t-36 -52t-24.5 -71.5t-9 -79q0 -79 53 -79zM150 606v12q21 20 48.5 46t54 53t44.5 49h189q15 -34 40.5 -76.5t46.5 -71.5v-12h-112q-17 15 -39.5 39.5t-38.5 43.5q-28 -23 -56.5 -43.5t-58.5 -39.5h-118z" />
    <glyph glyph-name="atilde" unicode="&#xe3;" horiz-adv-x="600" 
d="M198 -10q-41 0 -76.5 20t-57 64.5t-21.5 119.5q0 59 16.5 123t48 119t78 89t106.5 34q50 0 81.5 -21.5t50.5 -57.5h4l27 69h131l-117 -549h-129l6 66h-4q-26 -34 -60 -55t-84 -21zM265 124q26 0 48.5 22t38.5 57t23 74q6 36 6 73q0 33 -14.5 54t-40.5 21
q-24 0 -44.5 -19.5t-36 -52t-24.5 -71.5t-9 -79q0 -79 53 -79zM172 605q15 84 52.5 121t91.5 37q31 0 54 -12.5t43 -25t41 -12.5q35 0 54 51h88q-18 -86 -55.5 -122t-92.5 -36q-32 0 -55.5 12t-43.5 24.5t-42 12.5q-15 0 -28.5 -13.5t-18.5 -36.5h-88z" />
    <glyph glyph-name="adieresis" unicode="&#xe4;" horiz-adv-x="600" 
d="M198 -10q-41 0 -76.5 20t-57 64.5t-21.5 119.5q0 59 16.5 123t48 119t78 89t106.5 34q50 0 81.5 -21.5t50.5 -57.5h4l27 69h131l-117 -549h-129l6 66h-4q-26 -34 -60 -55t-84 -21zM265 124q26 0 48.5 22t38.5 57t23 74q6 36 6 73q0 33 -14.5 54t-40.5 21
q-24 0 -44.5 -19.5t-36 -52t-24.5 -71.5t-9 -79q0 -79 53 -79zM480 618q-31 0 -51 12t-20 45q0 43 22 63.5t63 20.5q27 0 48.5 -11.5t21.5 -45.5q0 -38 -19 -61t-65 -23zM270 618q-31 0 -51.5 12t-20.5 45q0 43 22.5 63.5t62.5 20.5q27 0 49 -11.5t22 -45.5q0 -38 -19.5 -61
t-64.5 -23z" />
    <glyph glyph-name="aring" unicode="&#xe5;" horiz-adv-x="600" 
d="M198 -10q-41 0 -76.5 20t-57 64.5t-21.5 119.5q0 59 16.5 123t48 119t78 89t106.5 34q50 0 81.5 -21.5t50.5 -57.5h4l27 69h131l-117 -549h-129l6 66h-4q-26 -34 -60 -55t-84 -21zM265 124q26 0 48.5 22t38.5 57t23 74q6 36 6 73q0 33 -14.5 54t-40.5 21
q-24 0 -44.5 -19.5t-36 -52t-24.5 -71.5t-9 -79q0 -79 53 -79zM379 605q-56 0 -91 31.5t-35 87.5t35 87.5t91 31.5q53 0 90 -31.5t37 -86.5q0 -56 -36.5 -88t-90.5 -32zM379 680q19 0 32 12t13 32t-13 32t-32 12t-32 -12t-13 -32t11.5 -32t33.5 -12z" />
    <glyph glyph-name="ae" unicode="&#xe6;" horiz-adv-x="872" 
d="M196 -10q-65 0 -109 49t-44 155q0 62 16.5 126t48.5 118.5t78 87.5t105 33q49 0 78 -20t52 -59h4l28 69h96l-5 -45q23 25 60.5 40t78.5 15q77 0 121.5 -41.5t44.5 -109.5q0 -88 -74.5 -142t-231.5 -54h-27q-1 -6 -1 -14q0 -38 22 -61.5t72 -23.5q39 0 79 12.5t77 31.5
v-121q-38 -20 -81 -33t-98 -13q-96 0 -137 56l-12 -46h-100l6 66h-5q-26 -34 -58.5 -55t-83.5 -21zM533 320h19q75 0 106.5 25t31.5 56q0 42 -46 42q-25 0 -48 -17t-39.5 -45t-23.5 -61zM264 124q25 0 46 20t36.5 53t23.5 72q4 19 6 38t2 39q0 36 -14 57.5t-41 21.5
q-24 0 -44.5 -19.5t-35 -52t-23 -71.5t-8.5 -79q0 -41 14.5 -60t37.5 -19z" />
    <glyph glyph-name="ccedilla" unicode="&#xe7;" horiz-adv-x="493" 
d="M247 -10q-57 0 -103 21.5t-73.5 68.5t-27.5 123q0 73 20 137.5t57.5 113.5t91.5 77t123 28q50 0 90.5 -9.5t78.5 -27.5l-52 -125q-26 11 -53 20t-57 9q-32 0 -56.5 -19.5t-41 -50.5t-25 -68t-8.5 -73q0 -48 19.5 -69.5t53.5 -21.5q36 0 68.5 11.5t67.5 29.5v-134
q-37 -19 -78 -30t-95 -11zM179 -240q-26 0 -47.5 4t-35.5 8v91q13 -5 33.5 -8.5t33.5 -3.5q42 0 42 32q0 16 -14.5 27.5t-55.5 18.5l42 71h95l-16 -28q33 -9 55.5 -30t22.5 -61q0 -54 -38.5 -87.5t-116.5 -33.5z" />
    <glyph glyph-name="egrave" unicode="&#xe8;" horiz-adv-x="567" 
d="M260 -10q-100 0 -158.5 55t-58.5 160q0 68 19.5 131.5t58.5 113.5t97 79.5t135 29.5q92 0 141.5 -41.5t49.5 -109.5q0 -88 -75 -142t-232 -54h-26q-1 -6 -1 -15q0 -84 89 -84q43 0 79 10.5t82 33.5v-121q-44 -22 -90 -34t-110 -12zM228 320h18q75 0 107 25t32 56
q0 42 -46 42q-25 0 -48 -17t-40 -45t-23 -61zM344 606q-21 20 -44.5 46t-44 53t-31.5 51v10h170q7 -33 20.5 -71.5t31.5 -76.5v-12h-102z" />
    <glyph glyph-name="eacute" unicode="&#xe9;" horiz-adv-x="567" 
d="M260 -10q-100 0 -158.5 55t-58.5 160q0 68 19.5 131.5t58.5 113.5t97 79.5t135 29.5q92 0 141.5 -41.5t49.5 -109.5q0 -88 -75 -142t-232 -54h-26q-1 -6 -1 -15q0 -84 89 -84q43 0 79 10.5t82 33.5v-121q-44 -22 -90 -34t-110 -12zM228 320h18q75 0 107 25t32 56
q0 42 -46 42q-25 0 -48 -17t-40 -45t-23 -61zM270 606v12q29 28 62.5 70.5t58.5 77.5h187v-8q-11 -14 -33.5 -34t-50.5 -42.5t-56 -42.5t-49 -33h-119z" />
    <glyph glyph-name="ecircumflex" unicode="&#xea;" horiz-adv-x="567" 
d="M260 -10q-100 0 -158.5 55t-58.5 160q0 68 19.5 131.5t58.5 113.5t97 79.5t135 29.5q92 0 141.5 -41.5t49.5 -109.5q0 -88 -75 -142t-232 -54h-26q-1 -6 -1 -15q0 -84 89 -84q43 0 79 10.5t82 33.5v-121q-44 -22 -90 -34t-110 -12zM228 320h18q75 0 107 25t32 56
q0 42 -46 42q-25 0 -48 -17t-40 -45t-23 -61zM139 606v12q21 20 48.5 46t54 53t44.5 49h189q15 -34 40.5 -76.5t46.5 -71.5v-12h-112q-17 15 -39.5 39.5t-38.5 43.5q-28 -23 -56.5 -43.5t-58.5 -39.5h-118z" />
    <glyph glyph-name="edieresis" unicode="&#xeb;" horiz-adv-x="567" 
d="M260 -10q-100 0 -158.5 55t-58.5 160q0 68 19.5 131.5t58.5 113.5t97 79.5t135 29.5q92 0 141.5 -41.5t49.5 -109.5q0 -88 -75 -142t-232 -54h-26q-1 -6 -1 -15q0 -84 89 -84q43 0 79 10.5t82 33.5v-121q-44 -22 -90 -34t-110 -12zM228 320h18q75 0 107 25t32 56
q0 42 -46 42q-25 0 -48 -17t-40 -45t-23 -61zM470 618q-31 0 -51 12t-20 45q0 43 22 63.5t63 20.5q27 0 48.5 -11.5t21.5 -45.5q0 -38 -19 -61t-65 -23zM260 618q-31 0 -51.5 12t-20.5 45q0 43 22.5 63.5t62.5 20.5q27 0 49 -11.5t22 -45.5q0 -38 -19.5 -61t-64.5 -23z" />
    <glyph glyph-name="igrave" unicode="&#xec;" horiz-adv-x="310" 
d="M15 0l116 549h167l-117 -549h-166zM210 606q-21 20 -44.5 46t-44 53t-31.5 51v10h170q7 -33 20.5 -71.5t31.5 -76.5v-12h-102z" />
    <glyph glyph-name="iacute" unicode="&#xed;" horiz-adv-x="310" 
d="M15 0l116 549h167l-117 -549h-166zM137 606v12q29 28 62.5 70.5t58.5 77.5h187v-8q-11 -14 -33.5 -34t-50.5 -42.5t-56 -42.5t-49 -33h-119z" />
    <glyph glyph-name="icircumflex" unicode="&#xee;" horiz-adv-x="310" 
d="M15 0l116 549h167l-117 -549h-166zM6 606v12q21 20 48.5 46t54 53t44.5 49h189q15 -34 40.5 -76.5t46.5 -71.5v-12h-112q-17 15 -39.5 39.5t-38.5 43.5q-28 -23 -56.5 -43.5t-58.5 -39.5h-118z" />
    <glyph glyph-name="idieresis" unicode="&#xef;" horiz-adv-x="310" 
d="M15 0l116 549h167l-117 -549h-166zM336 618q-31 0 -51 12t-20 45q0 43 22 63.5t63 20.5q27 0 48.5 -11.5t21.5 -45.5q0 -38 -19 -61t-65 -23zM126 618q-31 0 -51.5 12t-20.5 45q0 43 22.5 63.5t62.5 20.5q27 0 49 -11.5t22 -45.5q0 -38 -19.5 -61t-64.5 -23z" />
    <glyph glyph-name="eth" unicode="&#xf0;" horiz-adv-x="571" 
d="M252 -10q-95 0 -154.5 53t-59.5 160q0 78 29 143.5t84.5 104.5t134.5 39q44 0 71.5 -16t43.5 -37l5 1q-4 35 -16 71.5t-35 63.5l-122 -63l-42 76l102 53q-11 11 -25 20t-29 18l57 89q66 -29 113 -67l116 59l39 -77l-93 -48q38 -49 56 -118t18 -145q0 -78 -16 -147
t-51 -121.5t-91 -82t-135 -29.5zM264 112q34 0 57 28t35.5 69t12.5 78q0 35 -14 58t-44 23q-27 0 -47 -17t-33 -43.5t-19.5 -57.5t-6.5 -59q0 -37 15 -58t44 -21z" />
    <glyph glyph-name="ntilde" unicode="&#xf1;" horiz-adv-x="612" 
d="M15 0l116 549h130l-8 -90h4q29 48 68.5 74t94.5 26q74 0 108.5 -44.5t34.5 -112.5q0 -46 -11 -99l-64 -303h-166l65 311q3 15 5.5 32t2.5 31q0 52 -45 52q-40 0 -70 -49.5t-47 -130.5l-52 -246h-166zM183 605q15 84 52.5 121t91.5 37q31 0 54 -12.5t43 -25t41 -12.5
q35 0 54 51h88q-18 -86 -55.5 -122t-92.5 -36q-32 0 -55.5 12t-43.5 24.5t-42 12.5q-15 0 -28.5 -13.5t-18.5 -36.5h-88z" />
    <glyph glyph-name="ograve" unicode="&#xf2;" horiz-adv-x="595" 
d="M253 -10q-97 0 -153.5 56t-56.5 155q0 72 19 136.5t56.5 114.5t93.5 78.5t131 28.5q98 0 154 -56t56 -158q0 -70 -18.5 -134t-56 -113.5t-93.5 -78.5t-132 -29zM270 120q34 0 60 33t40 85t14 109q0 37 -13.5 59.5t-43.5 22.5q-28 0 -49.5 -21t-36.5 -55.5t-22.5 -74.5
t-7.5 -79q0 -79 59 -79zM346 606q-21 20 -44.5 46t-44 53t-31.5 51v10h170q7 -33 20.5 -71.5t31.5 -76.5v-12h-102z" />
    <glyph glyph-name="oacute" unicode="&#xf3;" horiz-adv-x="595" 
d="M253 -10q-97 0 -153.5 56t-56.5 155q0 72 19 136.5t56.5 114.5t93.5 78.5t131 28.5q98 0 154 -56t56 -158q0 -70 -18.5 -134t-56 -113.5t-93.5 -78.5t-132 -29zM270 120q34 0 60 33t40 85t14 109q0 37 -13.5 59.5t-43.5 22.5q-28 0 -49.5 -21t-36.5 -55.5t-22.5 -74.5
t-7.5 -79q0 -79 59 -79zM273 606v12q29 28 62.5 70.5t58.5 77.5h187v-8q-11 -14 -33.5 -34t-50.5 -42.5t-56 -42.5t-49 -33h-119z" />
    <glyph glyph-name="ocircumflex" unicode="&#xf4;" horiz-adv-x="595" 
d="M253 -10q-97 0 -153.5 56t-56.5 155q0 72 19 136.5t56.5 114.5t93.5 78.5t131 28.5q98 0 154 -56t56 -158q0 -70 -18.5 -134t-56 -113.5t-93.5 -78.5t-132 -29zM270 120q34 0 60 33t40 85t14 109q0 37 -13.5 59.5t-43.5 22.5q-28 0 -49.5 -21t-36.5 -55.5t-22.5 -74.5
t-7.5 -79q0 -79 59 -79zM142 606v12q21 20 48.5 46t54 53t44.5 49h189q15 -34 40.5 -76.5t46.5 -71.5v-12h-112q-17 15 -39.5 39.5t-38.5 43.5q-28 -23 -56.5 -43.5t-58.5 -39.5h-118z" />
    <glyph glyph-name="otilde" unicode="&#xf5;" horiz-adv-x="595" 
d="M253 -10q-97 0 -153.5 56t-56.5 155q0 72 19 136.5t56.5 114.5t93.5 78.5t131 28.5q98 0 154 -56t56 -158q0 -70 -18.5 -134t-56 -113.5t-93.5 -78.5t-132 -29zM270 120q34 0 60 33t40 85t14 109q0 37 -13.5 59.5t-43.5 22.5q-28 0 -49.5 -21t-36.5 -55.5t-22.5 -74.5
t-7.5 -79q0 -79 59 -79zM164 605q15 84 52.5 121t91.5 37q31 0 54 -12.5t43 -25t41 -12.5q35 0 54 51h88q-18 -86 -55.5 -122t-92.5 -36q-32 0 -55.5 12t-43.5 24.5t-42 12.5q-15 0 -28.5 -13.5t-18.5 -36.5h-88z" />
    <glyph glyph-name="odieresis" unicode="&#xf6;" horiz-adv-x="595" 
d="M253 -10q-97 0 -153.5 56t-56.5 155q0 72 19 136.5t56.5 114.5t93.5 78.5t131 28.5q98 0 154 -56t56 -158q0 -70 -18.5 -134t-56 -113.5t-93.5 -78.5t-132 -29zM270 120q34 0 60 33t40 85t14 109q0 37 -13.5 59.5t-43.5 22.5q-28 0 -49.5 -21t-36.5 -55.5t-22.5 -74.5
t-7.5 -79q0 -79 59 -79zM472 618q-31 0 -51 12t-20 45q0 43 22 63.5t63 20.5q27 0 48.5 -11.5t21.5 -45.5q0 -38 -19 -61t-65 -23zM262 618q-31 0 -51.5 12t-20.5 45q0 43 22.5 63.5t62.5 20.5q27 0 49 -11.5t22 -45.5q0 -38 -19.5 -61t-64.5 -23z" />
    <glyph glyph-name="divide" unicode="&#xf7;" horiz-adv-x="578" 
d="M294 454q-29 0 -50.5 18.5t-21.5 59.5q0 44 21.5 61t50.5 17q28 0 50 -17t22 -61q0 -41 -22 -59.5t-50 -18.5zM49 293v119h490v-119h-490zM294 95q-29 0 -50.5 18.5t-21.5 59.5q0 43 21.5 60.5t50.5 17.5q28 0 50 -17.5t22 -60.5q0 -41 -22 -59.5t-50 -18.5z" />
    <glyph glyph-name="oslash" unicode="&#xf8;" horiz-adv-x="605" 
d="M92 -52l-66 53l57 68q-40 54 -40 132q0 72 19 136.5t57.5 114.5t95.5 78.5t132 28.5q35 0 63.5 -7t52.5 -20l42 50l67 -53l-45 -56q17 -25 26 -57.5t9 -70.5q0 -70 -18.5 -134t-56 -113.5t-94.5 -78.5t-133 -29q-32 0 -60.5 7t-52.5 18zM202 214l172 208q-8 5 -18.5 9
t-23.5 4q-40 0 -67 -28.5t-43 -74.5t-19 -97q-1 -5 -1 -10.5v-10.5zM276 115q38 0 64 26.5t42 70t20 93.5q0 5 0.5 10.5t0.5 10.5l-166 -202q14 -9 39 -9z" />
    <glyph glyph-name="ugrave" unicode="&#xf9;" horiz-adv-x="612" 
d="M193 -10q-73 0 -107.5 44.5t-34.5 112.5q0 23 3 51.5t9 56.5l62 294h166l-65 -310q-8 -32 -8 -64q0 -51 45 -51q38 0 68.5 49t48.5 130l52 246h166l-116 -549h-130l8 90h-5q-29 -48 -68 -74t-94 -26zM358 606q-21 20 -44.5 46t-44 53t-31.5 51v10h170q7 -33 20.5 -71.5
t31.5 -76.5v-12h-102z" />
    <glyph glyph-name="uacute" unicode="&#xfa;" horiz-adv-x="612" 
d="M193 -10q-73 0 -107.5 44.5t-34.5 112.5q0 23 3 51.5t9 56.5l62 294h166l-65 -310q-8 -32 -8 -64q0 -51 45 -51q38 0 68.5 49t48.5 130l52 246h166l-116 -549h-130l8 90h-5q-29 -48 -68 -74t-94 -26zM285 606v12q29 28 62.5 70.5t58.5 77.5h187v-8q-11 -14 -33.5 -34
t-50.5 -42.5t-56 -42.5t-49 -33h-119z" />
    <glyph glyph-name="ucircumflex" unicode="&#xfb;" horiz-adv-x="612" 
d="M193 -10q-73 0 -107.5 44.5t-34.5 112.5q0 23 3 51.5t9 56.5l62 294h166l-65 -310q-8 -32 -8 -64q0 -51 45 -51q38 0 68.5 49t48.5 130l52 246h166l-116 -549h-130l8 90h-5q-29 -48 -68 -74t-94 -26zM154 606v12q21 20 48.5 46t54 53t44.5 49h189q15 -34 40.5 -76.5
t46.5 -71.5v-12h-112q-17 15 -39.5 39.5t-38.5 43.5q-28 -23 -56.5 -43.5t-58.5 -39.5h-118z" />
    <glyph glyph-name="udieresis" unicode="&#xfc;" horiz-adv-x="612" 
d="M193 -10q-73 0 -107.5 44.5t-34.5 112.5q0 23 3 51.5t9 56.5l62 294h166l-65 -310q-8 -32 -8 -64q0 -51 45 -51q38 0 68.5 49t48.5 130l52 246h166l-116 -549h-130l8 90h-5q-29 -48 -68 -74t-94 -26zM484 618q-31 0 -51 12t-20 45q0 43 22 63.5t63 20.5q27 0 48.5 -11.5
t21.5 -45.5q0 -38 -19 -61t-65 -23zM274 618q-31 0 -51.5 12t-20.5 45q0 43 22.5 63.5t62.5 20.5q27 0 49 -11.5t22 -45.5q0 -38 -19.5 -61t-64.5 -23z" />
    <glyph glyph-name="yacute" unicode="&#xfd;" horiz-adv-x="531" 
d="M7 -240q-27 0 -44.5 2.5t-28.5 6.5v132q10 -2 24 -4t31 -2q45 0 73.5 22.5t50.5 63.5l12 22l-80 546h166l23 -253q3 -30 3.5 -62t0.5 -58h4q8 23 19 54t25 61l119 258h179l-329 -623q-45 -85 -105 -125.5t-143 -40.5zM229 606v12q29 28 62.5 70.5t58.5 77.5h187v-8
q-11 -14 -33.5 -34t-50.5 -42.5t-56 -42.5t-49 -33h-119z" />
    <glyph glyph-name="thorn" unicode="&#xfe;" horiz-adv-x="601" 
d="M-36 -240l212 1000h166l-28 -133q-10 -46 -23 -86t-18 -56h4q26 36 56.5 55t68.5 19q70 0 113 -50.5t43 -150.5q0 -64 -16 -129t-47.5 -119t-77 -87t-105.5 -33q-45 0 -74.5 21.5t-49.5 54.5h-4q-3 -40 -7.5 -76t-15.5 -85l-31 -145h-166zM276 124q25 0 45.5 19.5
t35.5 52t23.5 72t8.5 78.5q0 79 -57 79q-26 0 -47.5 -21.5t-36 -56.5t-22.5 -74q-6 -35 -6 -70q0 -36 14 -57.5t42 -21.5z" />
    <glyph glyph-name="ydieresis" unicode="&#xff;" horiz-adv-x="531" 
d="M7 -240q-27 0 -44.5 2.5t-28.5 6.5v132q10 -2 24 -4t31 -2q45 0 73.5 22.5t50.5 63.5l12 22l-80 546h166l23 -253q3 -30 3.5 -62t0.5 -58h4q8 23 19 54t25 61l119 258h179l-329 -623q-45 -85 -105 -125.5t-143 -40.5zM428 618q-31 0 -51 12t-20 45q0 43 22 63.5t63 20.5
q27 0 48.5 -11.5t21.5 -45.5q0 -38 -19 -61t-65 -23zM218 618q-31 0 -51.5 12t-20.5 45q0 43 22.5 63.5t62.5 20.5q27 0 49 -11.5t22 -45.5q0 -38 -19.5 -61t-64.5 -23z" />
    <glyph glyph-name="Amacron" unicode="&#x100;" horiz-adv-x="650" 
d="M-60 0l369 714h212l66 -714h-164l-8 153h-226l-73 -153h-176zM254 292h154l-10 194q-2 26 -3 53t0 54h-3q-8 -25 -18.5 -49.5t-23.5 -51.5zM269 771l23 109h313l-23 -109h-313z" />
    <glyph glyph-name="amacron" unicode="&#x101;" horiz-adv-x="600" 
d="M198 -10q-41 0 -76.5 20t-57 64.5t-21.5 119.5q0 59 16.5 123t48 119t78 89t106.5 34q50 0 81.5 -21.5t50.5 -57.5h4l27 69h131l-117 -549h-129l6 66h-4q-26 -34 -60 -55t-84 -21zM265 124q26 0 48.5 22t38.5 57t23 74q6 36 6 73q0 33 -14.5 54t-40.5 21
q-24 0 -44.5 -19.5t-36 -52t-24.5 -71.5t-9 -79q0 -79 53 -79zM208 606l23 109h313l-23 -109h-313z" />
    <glyph glyph-name="Abreve" unicode="&#x102;" horiz-adv-x="650" 
d="M-60 0l369 714h212l66 -714h-164l-8 153h-226l-73 -153h-176zM254 292h154l-10 194q-2 26 -3 53t0 54h-3q-8 -25 -18.5 -49.5t-23.5 -51.5zM426 771q-85 0 -125 42t-40 101q0 19 3 29h95q0 -62 77 -62q35 0 61 13t36 49h99q-13 -83 -62.5 -127.5t-143.5 -44.5z" />
    <glyph glyph-name="abreve" unicode="&#x103;" horiz-adv-x="600" 
d="M198 -10q-41 0 -76.5 20t-57 64.5t-21.5 119.5q0 59 16.5 123t48 119t78 89t106.5 34q50 0 81.5 -21.5t50.5 -57.5h4l27 69h131l-117 -549h-129l6 66h-4q-26 -34 -60 -55t-84 -21zM265 124q26 0 48.5 22t38.5 57t23 74q6 36 6 73q0 33 -14.5 54t-40.5 21
q-24 0 -44.5 -19.5t-36 -52t-24.5 -71.5t-9 -79q0 -79 53 -79zM366 606q-85 0 -125 42t-40 101q0 19 3 29h95q0 -62 77 -62q35 0 61 13t36 49h99q-13 -83 -62.5 -127.5t-143.5 -44.5z" />
    <glyph glyph-name="Aogonek" unicode="&#x104;" horiz-adv-x="650" 
d="M-60 0l369 714h212l66 -714h-164l-8 153h-226l-73 -153h-176zM254 292h154l-10 194q-2 26 -3 53t0 54h-3q-8 -25 -18.5 -49.5t-23.5 -51.5zM432 -247q-55 0 -85 28t-30 71q0 50 29.5 84.5t76.5 63.5h109q-38 -30 -65.5 -58t-27.5 -63q0 -27 27 -27q15 0 27.5 3t25.5 7
v-96q-19 -6 -39.5 -9.5t-47.5 -3.5z" />
    <glyph glyph-name="aogonek" unicode="&#x105;" horiz-adv-x="600" 
d="M198 -10q-41 0 -76.5 20t-57 64.5t-21.5 119.5q0 59 16.5 123t48 119t78 89t106.5 34q50 0 81.5 -21.5t50.5 -57.5h4l27 69h131l-117 -549h-129l6 66h-4q-26 -34 -60 -55t-84 -21zM265 124q26 0 48.5 22t38.5 57t23 74q6 36 6 73q0 33 -14.5 54t-40.5 21
q-24 0 -44.5 -19.5t-36 -52t-24.5 -71.5t-9 -79q0 -79 53 -79zM350 -247q-55 0 -85 28t-30 71q0 50 29.5 84.5t76.5 63.5h109q-38 -30 -65.5 -58t-27.5 -63q0 -27 27 -27q15 0 27.5 3t25.5 7v-96q-19 -6 -39.5 -9.5t-47.5 -3.5z" />
    <glyph glyph-name="Cacute" unicode="&#x106;" horiz-adv-x="620" 
d="M319 -10q-132 0 -197.5 76t-65.5 203q0 63 14 128t43 123.5t74 105t107 73t142 26.5q70 0 121.5 -14.5t100.5 -42.5l-64 -134q-40 22 -77 36t-81 14q-52 0 -91.5 -27t-65.5 -72t-39 -99t-13 -108q0 -147 124 -147q42 0 83.5 10.5t88.5 30.5v-141q-41 -17 -92 -29
t-112 -12zM356 771v12q29 28 62.5 70.5t58.5 77.5h187v-8q-11 -14 -33.5 -34t-50.5 -42.5t-56 -42.5t-49 -33h-119z" />
    <glyph glyph-name="cacute" unicode="&#x107;" horiz-adv-x="493" 
d="M247 -10q-57 0 -103 21.5t-73.5 68.5t-27.5 123q0 73 20 137.5t57.5 113.5t91.5 77t123 28q50 0 90.5 -9.5t78.5 -27.5l-52 -125q-26 11 -53 20t-57 9q-32 0 -56.5 -19.5t-41 -50.5t-25 -68t-8.5 -73q0 -48 19.5 -69.5t53.5 -21.5q36 0 68.5 11.5t67.5 29.5v-134
q-37 -19 -78 -30t-95 -11zM248 606v12q29 28 62.5 70.5t58.5 77.5h187v-8q-11 -14 -33.5 -34t-50.5 -42.5t-56 -42.5t-49 -33h-119z" />
    <glyph glyph-name="Ccircumflex" unicode="&#x108;" horiz-adv-x="620" 
d="M319 -10q-132 0 -197.5 76t-65.5 203q0 63 14 128t43 123.5t74 105t107 73t142 26.5q70 0 121.5 -14.5t100.5 -42.5l-64 -134q-40 22 -77 36t-81 14q-52 0 -91.5 -27t-65.5 -72t-39 -99t-13 -108q0 -147 124 -147q42 0 83.5 10.5t88.5 30.5v-141q-41 -17 -92 -29
t-112 -12zM225 771v12q21 20 48.5 46t54 53t44.5 49h189q15 -34 40.5 -76.5t46.5 -71.5v-12h-112q-17 15 -39.5 39.5t-38.5 43.5q-28 -23 -56.5 -43.5t-58.5 -39.5h-118z" />
    <glyph glyph-name="ccircumflex" unicode="&#x109;" horiz-adv-x="493" 
d="M247 -10q-57 0 -103 21.5t-73.5 68.5t-27.5 123q0 73 20 137.5t57.5 113.5t91.5 77t123 28q50 0 90.5 -9.5t78.5 -27.5l-52 -125q-26 11 -53 20t-57 9q-32 0 -56.5 -19.5t-41 -50.5t-25 -68t-8.5 -73q0 -48 19.5 -69.5t53.5 -21.5q36 0 68.5 11.5t67.5 29.5v-134
q-37 -19 -78 -30t-95 -11zM117 606v12q21 20 48.5 46t54 53t44.5 49h189q15 -34 40.5 -76.5t46.5 -71.5v-12h-112q-17 15 -39.5 39.5t-38.5 43.5q-28 -23 -56.5 -43.5t-58.5 -39.5h-118z" />
    <glyph glyph-name="Cdot" unicode="&#x10a;" horiz-adv-x="620" 
d="M319 -10q-132 0 -197.5 76t-65.5 203q0 63 14 128t43 123.5t74 105t107 73t142 26.5q70 0 121.5 -14.5t100.5 -42.5l-64 -134q-40 22 -77 36t-81 14q-52 0 -91.5 -27t-65.5 -72t-39 -99t-13 -108q0 -147 124 -147q42 0 83.5 10.5t88.5 30.5v-141q-41 -17 -92 -29
t-112 -12zM450 775q-35 0 -59 14t-24 50q0 48 26 71t73 23q31 0 56.5 -13t25.5 -51q0 -41 -22.5 -67.5t-75.5 -26.5z" />
    <glyph glyph-name="cdot" unicode="&#x10b;" horiz-adv-x="493" 
d="M247 -10q-57 0 -103 21.5t-73.5 68.5t-27.5 123q0 73 20 137.5t57.5 113.5t91.5 77t123 28q50 0 90.5 -9.5t78.5 -27.5l-52 -125q-26 11 -53 20t-57 9q-32 0 -56.5 -19.5t-41 -50.5t-25 -68t-8.5 -73q0 -48 19.5 -69.5t53.5 -21.5q36 0 68.5 11.5t67.5 29.5v-134
q-37 -19 -78 -30t-95 -11zM342 610q-35 0 -59 14t-24 50q0 48 26 71t73 23q31 0 56.5 -13t25.5 -51q0 -41 -22.5 -67.5t-75.5 -26.5z" />
    <glyph glyph-name="Ccaron" unicode="&#x10c;" horiz-adv-x="620" 
d="M319 -10q-132 0 -197.5 76t-65.5 203q0 63 14 128t43 123.5t74 105t107 73t142 26.5q70 0 121.5 -14.5t100.5 -42.5l-64 -134q-40 22 -77 36t-81 14q-52 0 -91.5 -27t-65.5 -72t-39 -99t-13 -108q0 -147 124 -147q42 0 83.5 10.5t88.5 30.5v-141q-41 -17 -92 -29
t-112 -12zM349 771q-15 34 -40 76.5t-46 71.5v12h112q17 -15 39.5 -39.5t37.5 -43.5q28 23 56.5 43.5t58.5 39.5h119v-12q-22 -20 -49 -46t-53 -53t-45 -49h-190z" />
    <glyph glyph-name="ccaron" unicode="&#x10d;" horiz-adv-x="493" 
d="M247 -10q-57 0 -103 21.5t-73.5 68.5t-27.5 123q0 73 20 137.5t57.5 113.5t91.5 77t123 28q50 0 90.5 -9.5t78.5 -27.5l-52 -125q-26 11 -53 20t-57 9q-32 0 -56.5 -19.5t-41 -50.5t-25 -68t-8.5 -73q0 -48 19.5 -69.5t53.5 -21.5q36 0 68.5 11.5t67.5 29.5v-134
q-37 -19 -78 -30t-95 -11zM241 606q-15 34 -40 76.5t-46 71.5v12h112q17 -15 39.5 -39.5t37.5 -43.5q28 23 56.5 43.5t58.5 39.5h119v-12q-22 -20 -49 -46t-53 -53t-45 -49h-190z" />
    <glyph glyph-name="Dcaron" unicode="&#x10e;" horiz-adv-x="680" 
d="M21 0l151 714h198q131 0 205 -69.5t74 -200.5q0 -137 -47.5 -236.5t-137.5 -153.5t-218 -54h-225zM219 140h44q69 0 117 39.5t73 106t25 149.5q0 71 -32 105.5t-88 34.5h-46zM343 771q-15 34 -40 76.5t-46 71.5v12h112q17 -15 39.5 -39.5t37.5 -43.5q28 23 56.5 43.5
t58.5 39.5h119v-12q-22 -20 -49 -46t-53 -53t-45 -49h-190z" />
    <glyph glyph-name="dcaron" unicode="&#x10f;" horiz-adv-x="697" 
d="M198 -10q-41 0 -76.5 20t-57 64.5t-21.5 120.5q0 59 16 122.5t48 118.5t78.5 89t106.5 34q47 0 73 -21.5t47 -55.5h4q0 4 1.5 24t4 45t7.5 47l34 162h167l-161 -760h-130l7 66h-4q-25 -32 -58.5 -54t-85.5 -22zM267 124q29 0 50.5 23t35.5 58.5t21 73.5t7 67
q0 36 -14 57.5t-40 21.5q-24 0 -44.5 -19.5t-36.5 -52t-25 -71.5t-9 -79q0 -79 55 -79zM638 600v13q13 31 30 73t28 74h156v-10q-21 -36 -50 -74t-63 -76h-101z" />
    <glyph glyph-name="Dcroat" unicode="&#x110;" horiz-adv-x="680" 
d="M21 0l60 284h-69l30 138h68l62 292h201q132 0 204 -70t72 -200q0 -137 -46 -236.5t-135 -153.5t-217 -54h-230zM219 140h44q69 0 117 39.5t73 107t25 151.5q0 68 -32 102.5t-88 34.5h-46l-33 -153h103l-30 -138h-103z" />
    <glyph glyph-name="dcroat" unicode="&#x111;" horiz-adv-x="599" 
d="M201 -10q-45 0 -80.5 21t-56.5 66t-21 118q0 56 15.5 113t45.5 105t74 77.5t102 29.5q48 0 77 -20.5t48 -52.5h4q0 11 3 43.5t8 60.5l5 27h-132l21 106h133l16 76h167l-16 -76h76l-23 -106h-76l-122 -578h-129l6 66h-4q-23 -31 -54.5 -53.5t-86.5 -22.5zM268 124
q34 0 58.5 29.5t37 73t12.5 84.5q0 34 -14 54.5t-42 20.5q-34 0 -58 -28.5t-37 -71t-13 -83.5q0 -79 56 -79z" />
    <glyph glyph-name="Emacron" unicode="&#x112;" horiz-adv-x="551" 
d="M21 0l151 714h411l-29 -138h-242l-28 -137h225l-30 -138h-226l-34 -161h242l-29 -140h-411zM225 771l23 109h313l-23 -109h-313z" />
    <glyph glyph-name="emacron" unicode="&#x113;" horiz-adv-x="567" 
d="M260 -10q-100 0 -158.5 55t-58.5 160q0 68 19.5 131.5t58.5 113.5t97 79.5t135 29.5q92 0 141.5 -41.5t49.5 -109.5q0 -88 -75 -142t-232 -54h-26q-1 -6 -1 -15q0 -84 89 -84q43 0 79 10.5t82 33.5v-121q-44 -22 -90 -34t-110 -12zM228 320h18q75 0 107 25t32 56
q0 42 -46 42q-25 0 -48 -17t-40 -45t-23 -61zM197 606l23 109h313l-23 -109h-313z" />
    <glyph glyph-name="Ebreve" unicode="&#x114;" horiz-adv-x="551" 
d="M21 0l151 714h411l-29 -138h-242l-28 -137h225l-30 -138h-226l-34 -161h242l-29 -140h-411zM383 771q-85 0 -125 42t-40 101q0 19 3 29h95q0 -62 77 -62q35 0 61 13t36 49h99q-13 -83 -62.5 -127.5t-143.5 -44.5z" />
    <glyph glyph-name="ebreve" unicode="&#x115;" horiz-adv-x="567" 
d="M260 -10q-100 0 -158.5 55t-58.5 160q0 68 19.5 131.5t58.5 113.5t97 79.5t135 29.5q92 0 141.5 -41.5t49.5 -109.5q0 -88 -75 -142t-232 -54h-26q-1 -6 -1 -15q0 -84 89 -84q43 0 79 10.5t82 33.5v-121q-44 -22 -90 -34t-110 -12zM228 320h18q75 0 107 25t32 56
q0 42 -46 42q-25 0 -48 -17t-40 -45t-23 -61zM355 606q-85 0 -125 42t-40 101q0 19 3 29h95q0 -62 77 -62q35 0 61 13t36 49h99q-13 -83 -62.5 -127.5t-143.5 -44.5z" />
    <glyph glyph-name="Edotaccent" unicode="&#x116;" horiz-adv-x="551" 
d="M21 0l151 714h411l-29 -138h-242l-28 -137h225l-30 -138h-226l-34 -161h242l-29 -140h-411zM392 775q-35 0 -59 14t-24 50q0 48 26 71t73 23q31 0 56.5 -13t25.5 -51q0 -41 -22.5 -67.5t-75.5 -26.5z" />
    <glyph glyph-name="edotaccent" unicode="&#x117;" horiz-adv-x="567" 
d="M260 -10q-100 0 -158.5 55t-58.5 160q0 68 19.5 131.5t58.5 113.5t97 79.5t135 29.5q92 0 141.5 -41.5t49.5 -109.5q0 -88 -75 -142t-232 -54h-26q-1 -6 -1 -15q0 -84 89 -84q43 0 79 10.5t82 33.5v-121q-44 -22 -90 -34t-110 -12zM228 320h18q75 0 107 25t32 56
q0 42 -46 42q-25 0 -48 -17t-40 -45t-23 -61zM364 610q-35 0 -59 14t-24 50q0 48 26 71t73 23q31 0 56.5 -13t25.5 -51q0 -41 -22.5 -67.5t-75.5 -26.5z" />
    <glyph glyph-name="Eogonek" unicode="&#x118;" horiz-adv-x="551" 
d="M21 0l151 714h411l-29 -138h-242l-28 -137h225l-30 -138h-226l-34 -161h242l-29 -140h-411zM301 -247q-55 0 -85 28t-30 71q0 50 29.5 84.5t76.5 63.5h109q-38 -30 -65.5 -58t-27.5 -63q0 -27 27 -27q15 0 27.5 3t25.5 7v-96q-19 -6 -39.5 -9.5t-47.5 -3.5z" />
    <glyph glyph-name="eogonek" unicode="&#x119;" horiz-adv-x="567" 
d="M260 -10q-100 0 -158.5 55t-58.5 160q0 68 19.5 131.5t58.5 113.5t97 79.5t135 29.5q92 0 141.5 -41.5t49.5 -109.5q0 -88 -75 -142t-232 -54h-26q-1 -6 -1 -15q0 -84 89 -84q43 0 79 10.5t82 33.5v-121q-17 -8 -32 -15q-50 -42 -80.5 -75.5t-30.5 -66.5q0 -27 28 -27
q14 0 26.5 3t26.5 7v-96q-20 -6 -40 -9.5t-48 -3.5q-54 0 -84 28t-30 71q0 46 25.5 78.5t65.5 60.5q-13 -1 -27 -1zM228 320h18q75 0 107 25t32 56q0 42 -46 42q-25 0 -48 -17t-40 -45t-23 -61z" />
    <glyph glyph-name="Ecaron" unicode="&#x11a;" horiz-adv-x="551" 
d="M21 0l151 714h411l-29 -138h-242l-28 -137h225l-30 -138h-226l-34 -161h242l-29 -140h-411zM291 771q-15 34 -40 76.5t-46 71.5v12h112q17 -15 39.5 -39.5t37.5 -43.5q28 23 56.5 43.5t58.5 39.5h119v-12q-22 -20 -49 -46t-53 -53t-45 -49h-190z" />
    <glyph glyph-name="ecaron" unicode="&#x11b;" horiz-adv-x="567" 
d="M260 -10q-100 0 -158.5 55t-58.5 160q0 68 19.5 131.5t58.5 113.5t97 79.5t135 29.5q92 0 141.5 -41.5t49.5 -109.5q0 -88 -75 -142t-232 -54h-26q-1 -6 -1 -15q0 -84 89 -84q43 0 79 10.5t82 33.5v-121q-44 -22 -90 -34t-110 -12zM228 320h18q75 0 107 25t32 56
q0 42 -46 42q-25 0 -48 -17t-40 -45t-23 -61zM263 606q-15 34 -40 76.5t-46 71.5v12h112q17 -15 39.5 -39.5t37.5 -43.5q28 23 56.5 43.5t58.5 39.5h119v-12q-22 -20 -49 -46t-53 -53t-45 -49h-190z" />
    <glyph glyph-name="Gcircumflex" unicode="&#x11c;" horiz-adv-x="694" 
d="M322 -10q-123 0 -194.5 71.5t-71.5 209.5q0 89 26 170.5t78.5 145.5t130.5 101t183 37q118 0 209 -50l-64 -136q-34 19 -70.5 31.5t-79.5 12.5q-64 0 -110 -28.5t-75 -74t-43 -99t-14 -102.5q0 -74 30 -110.5t94 -36.5q23 0 39 2t36 7l29 131h-122l30 137h286l-81 -380
q-50 -17 -107.5 -28t-138.5 -11zM247 771v12q21 20 48.5 46t54 53t44.5 49h189q15 -34 40.5 -76.5t46.5 -71.5v-12h-112q-17 15 -39.5 39.5t-38.5 43.5q-28 -23 -56.5 -43.5t-58.5 -39.5h-118z" />
    <glyph glyph-name="gcircumflex" unicode="&#x11d;" horiz-adv-x="600" 
d="M191 -240q-61 0 -101.5 9t-76.5 24v141q38 -20 81 -31t90 -11q95 0 120 88l4 18q4 19 11 40t8 26h-4q-23 -29 -54 -50.5t-80 -21.5q-41 0 -74 20t-52.5 64.5t-19.5 116.5q0 60 16.5 124t48 119t77.5 89t105 34q51 0 79.5 -20t54.5 -59h4l27 69h131l-120 -562
q-18 -86 -57.5 -135.5t-95 -70.5t-122.5 -21zM268 124q27 0 48 21.5t35.5 55.5t22 72.5t7.5 72.5q0 36 -14 57.5t-40 21.5q-24 0 -45 -19.5t-36.5 -52t-24.5 -71.5t-9 -79q0 -79 56 -79zM147 606v12q21 20 48.5 46t54 53t44.5 49h189q15 -34 40.5 -76.5t46.5 -71.5v-12h-112
q-17 15 -39.5 39.5t-38.5 43.5q-28 -23 -56.5 -43.5t-58.5 -39.5h-118z" />
    <glyph glyph-name="Gbreve" unicode="&#x11e;" horiz-adv-x="694" 
d="M322 -10q-123 0 -194.5 71.5t-71.5 209.5q0 89 26 170.5t78.5 145.5t130.5 101t183 37q118 0 209 -50l-64 -136q-34 19 -70.5 31.5t-79.5 12.5q-64 0 -110 -28.5t-75 -74t-43 -99t-14 -102.5q0 -74 30 -110.5t94 -36.5q23 0 39 2t36 7l29 131h-122l30 137h286l-81 -380
q-50 -17 -107.5 -28t-138.5 -11zM463 771q-85 0 -125 42t-40 101q0 19 3 29h95q0 -62 77 -62q35 0 61 13t36 49h99q-13 -83 -62.5 -127.5t-143.5 -44.5z" />
    <glyph glyph-name="gbreve" unicode="&#x11f;" horiz-adv-x="600" 
d="M191 -240q-61 0 -101.5 9t-76.5 24v141q38 -20 81 -31t90 -11q95 0 120 88l4 18q4 19 11 40t8 26h-4q-23 -29 -54 -50.5t-80 -21.5q-41 0 -74 20t-52.5 64.5t-19.5 116.5q0 60 16.5 124t48 119t77.5 89t105 34q51 0 79.5 -20t54.5 -59h4l27 69h131l-120 -562
q-18 -86 -57.5 -135.5t-95 -70.5t-122.5 -21zM268 124q27 0 48 21.5t35.5 55.5t22 72.5t7.5 72.5q0 36 -14 57.5t-40 21.5q-24 0 -45 -19.5t-36.5 -52t-24.5 -71.5t-9 -79q0 -79 56 -79zM362 606q-85 0 -125 42t-40 101q0 19 3 29h95q0 -62 77 -62q35 0 61 13t36 49h99
q-13 -83 -62.5 -127.5t-143.5 -44.5z" />
    <glyph glyph-name="Gdot" unicode="&#x120;" horiz-adv-x="694" 
d="M322 -10q-123 0 -194.5 71.5t-71.5 209.5q0 89 26 170.5t78.5 145.5t130.5 101t183 37q118 0 209 -50l-64 -136q-34 19 -70.5 31.5t-79.5 12.5q-64 0 -110 -28.5t-75 -74t-43 -99t-14 -102.5q0 -74 30 -110.5t94 -36.5q23 0 39 2t36 7l29 131h-122l30 137h286l-81 -380
q-50 -17 -107.5 -28t-138.5 -11zM471 775q-35 0 -59 14t-24 50q0 48 26 71t73 23q31 0 56.5 -13t25.5 -51q0 -41 -22.5 -67.5t-75.5 -26.5z" />
    <glyph glyph-name="gdot" unicode="&#x121;" horiz-adv-x="600" 
d="M191 -240q-61 0 -101.5 9t-76.5 24v141q38 -20 81 -31t90 -11q95 0 120 88l4 18q4 19 11 40t8 26h-4q-23 -29 -54 -50.5t-80 -21.5q-41 0 -74 20t-52.5 64.5t-19.5 116.5q0 60 16.5 124t48 119t77.5 89t105 34q51 0 79.5 -20t54.5 -59h4l27 69h131l-120 -562
q-18 -86 -57.5 -135.5t-95 -70.5t-122.5 -21zM268 124q27 0 48 21.5t35.5 55.5t22 72.5t7.5 72.5q0 36 -14 57.5t-40 21.5q-24 0 -45 -19.5t-36.5 -52t-24.5 -71.5t-9 -79q0 -79 56 -79zM371 610q-35 0 -59 14t-24 50q0 48 26 71t73 23q31 0 56.5 -13t25.5 -51
q0 -41 -22.5 -67.5t-75.5 -26.5z" />
    <glyph glyph-name="uni0122" unicode="&#x122;" horiz-adv-x="694" 
d="M322 -10q-123 0 -194.5 71.5t-71.5 209.5q0 89 26 170.5t78.5 145.5t130.5 101t183 37q118 0 209 -50l-64 -136q-34 19 -70.5 31.5t-79.5 12.5q-64 0 -110 -28.5t-75 -74t-43 -99t-14 -102.5q0 -74 30 -110.5t94 -36.5q23 0 39 2t36 7l29 131h-122l30 137h286l-81 -380
q-50 -17 -107.5 -28t-138.5 -11zM195 -221v13q13 31 30 73t28 74h156v-10q-21 -36 -50.5 -74.5t-62.5 -75.5h-101z" />
    <glyph glyph-name="uni0123" unicode="&#x123;" horiz-adv-x="600" 
d="M191 -240q-61 0 -101.5 9t-76.5 24v141q38 -20 81 -31t90 -11q95 0 120 88l4 18q4 19 11 40t8 26h-4q-23 -29 -54 -50.5t-80 -21.5q-41 0 -74 20t-52.5 64.5t-19.5 116.5q0 60 16.5 124t48 119t77.5 89t105 34q51 0 79.5 -20t54.5 -59h4l27 69h131l-120 -562
q-18 -86 -57.5 -135.5t-95 -70.5t-122.5 -21zM268 124q27 0 48 21.5t35.5 55.5t22 72.5t7.5 72.5q0 36 -14 57.5t-40 21.5q-24 0 -45 -19.5t-36.5 -52t-24.5 -71.5t-9 -79q0 -79 56 -79zM271 606v10q21 36 50 74t63 76h101v-13q-14 -31 -31 -73t-27 -74h-156z" />
    <glyph glyph-name="Hcircumflex" unicode="&#x124;" horiz-adv-x="706" 
d="M21 0l151 714h169l-57 -273h202l57 273h168l-151 -714h-168l63 300h-202l-63 -300h-169zM232 771v12q21 20 48.5 46t54 53t44.5 49h189q15 -34 40.5 -76.5t46.5 -71.5v-12h-112q-17 15 -39.5 39.5t-38.5 43.5q-28 -23 -56.5 -43.5t-58.5 -39.5h-118z" />
    <glyph glyph-name="hcircumflex" unicode="&#x125;" horiz-adv-x="612" 
d="M15 0l161 760h166l-27 -127q-6 -27 -15 -58.5t-16.5 -56.5t-11.5 -33h4q28 36 63 55t81 19q74 0 108.5 -44.5t34.5 -112.5q0 -46 -11 -99l-64 -303h-166l65 311q3 15 5.5 32t2.5 31q0 52 -45 52q-40 0 -70 -49t-47 -131l-52 -246h-166zM51 817v12q21 20 48.5 46t54 53
t44.5 49h189q15 -34 40.5 -76.5t46.5 -71.5v-12h-112q-17 15 -39.5 39.5t-38.5 43.5q-28 -23 -56.5 -43.5t-58.5 -39.5h-118z" />
    <glyph glyph-name="Hbar" unicode="&#x126;" horiz-adv-x="706" 
d="M21 0l110 522h-84l21 105h86l18 87h169l-18 -87h202l18 87h168l-18 -87h86l-22 -105h-87l-110 -522h-168l63 300h-202l-63 -300h-169zM284 441h202l16 81h-202z" />
    <glyph glyph-name="hbar" unicode="&#x127;" horiz-adv-x="612" 
d="M15 0l122 578h-80l22 106h80l17 76h166l-15 -76h139l-23 -106h-139q-10 -40 -21 -75.5t-18 -56.5h4q28 35 63 54.5t80 19.5q74 0 108.5 -44.5t34.5 -112.5q0 -46 -11 -99l-56 -264h-166l57 272q8 32 8 63q0 52 -45 52q-42 0 -71 -50.5t-46 -129.5l-44 -207h-166z" />
    <glyph glyph-name="Itilde" unicode="&#x128;" horiz-adv-x="403" 
d="M-32 0l20 97l92 39l94 440l-76 41l20 97h340l-20 -97l-96 -41l-93 -440l77 -39l-20 -97h-338zM102 770q15 84 52.5 121t91.5 37q31 0 54 -12.5t43 -25t41 -12.5q35 0 54 51h88q-18 -86 -55.5 -122t-92.5 -36q-32 0 -55.5 12t-43.5 24.5t-42 12.5q-15 0 -28.5 -13.5
t-18.5 -36.5h-88z" />
    <glyph glyph-name="itilde" unicode="&#x129;" horiz-adv-x="310" 
d="M15 0l116 549h167l-117 -549h-166zM28 605q15 84 52.5 121t91.5 37q31 0 54 -12.5t43 -25t41 -12.5q35 0 54 51h88q-18 -86 -55.5 -122t-92.5 -36q-32 0 -55.5 12t-43.5 24.5t-42 12.5q-15 0 -28.5 -13.5t-18.5 -36.5h-88z" />
    <glyph glyph-name="Imacron" unicode="&#x12a;" horiz-adv-x="403" 
d="M-32 0l20 97l92 39l94 440l-76 41l20 97h340l-20 -97l-96 -41l-93 -440l77 -39l-20 -97h-338zM137 771l23 109h313l-23 -109h-313z" />
    <glyph glyph-name="imacron" unicode="&#x12b;" horiz-adv-x="310" 
d="M15 0l116 549h167l-117 -549h-166zM64 606l23 109h313l-23 -109h-313z" />
    <glyph glyph-name="Ibreve" unicode="&#x12c;" horiz-adv-x="403" 
d="M-32 0l20 97l92 39l94 440l-76 41l20 97h340l-20 -97l-96 -41l-93 -440l77 -39l-20 -97h-338zM295 771q-85 0 -125 42t-40 101q0 19 3 29h95q0 -62 77 -62q35 0 61 13t36 49h99q-13 -83 -62.5 -127.5t-143.5 -44.5z" />
    <glyph glyph-name="ibreve" unicode="&#x12d;" horiz-adv-x="310" 
d="M15 0l116 549h167l-117 -549h-166zM222 606q-85 0 -125 42t-40 101q0 19 3 29h95q0 -62 77 -62q35 0 61 13t36 49h99q-13 -83 -62.5 -127.5t-143.5 -44.5z" />
    <glyph glyph-name="Iogonek" unicode="&#x12e;" horiz-adv-x="403" 
d="M-32 0l20 97l92 39l94 440l-76 41l20 97h340l-20 -97l-96 -41l-93 -440l77 -39l-20 -97h-338zM157 -247q-55 0 -85 28t-30 71q0 50 29.5 84.5t76.5 63.5h109q-38 -30 -65.5 -58t-27.5 -63q0 -27 27 -27q15 0 27.5 3t25.5 7v-96q-19 -6 -39.5 -9.5t-47.5 -3.5z" />
    <glyph glyph-name="iogonek" unicode="&#x12f;" horiz-adv-x="310" 
d="M237 610q-35 0 -59 14.5t-24 49.5q0 46 26 70t73 24q33 0 57.5 -14.5t24.5 -49.5q0 -42 -24 -68t-74 -26zM15 0l116 549h167l-117 -549h-166zM78 -247q-55 0 -85 28t-30 71q0 50 29.5 84.5t76.5 63.5h109q-38 -30 -65.5 -58t-27.5 -63q0 -27 27 -27q15 0 27.5 3t25.5 7
v-96q-19 -6 -39.5 -9.5t-47.5 -3.5z" />
    <glyph glyph-name="Idotaccent" unicode="&#x130;" horiz-adv-x="403" 
d="M-32 0l20 97l92 39l94 440l-76 41l20 97h340l-20 -97l-96 -41l-93 -440l77 -39l-20 -97h-338zM304 775q-35 0 -59 14t-24 50q0 48 26 71t73 23q31 0 56.5 -13t25.5 -51q0 -41 -22.5 -67.5t-75.5 -26.5z" />
    <glyph glyph-name="dotlessi" unicode="&#x131;" horiz-adv-x="310" 
d="M15 0l116 549h167l-117 -549h-166z" />
    <glyph glyph-name="IJ" unicode="&#x132;" horiz-adv-x="753" 
d="M-32 0l20 97l92 39l94 440l-76 41l20 97h340l-20 -97l-96 -41l-93 -440l77 -39l-20 -97h-338zM342 -217q-29 0 -53 4t-44 10v138q17 -4 37 -7.5t45 -3.5q47 0 77 27.5t44 96.5l142 666h168l-147 -689q-18 -87 -51.5 -140.5t-87 -77.5t-130.5 -24z" />
    <glyph glyph-name="ij" unicode="&#x133;" horiz-adv-x="620" 
d="M237 610q-35 0 -59 14.5t-24 49.5q0 46 26 70t73 24q33 0 57.5 -14.5t24.5 -49.5q0 -42 -24 -68t-74 -26zM15 0l116 549h167l-117 -549h-166zM549 610q-35 0 -58.5 14.5t-23.5 49.5q0 46 25.5 70t72.5 24q33 0 58 -14.5t25 -49.5q0 -42 -24.5 -68t-74.5 -26zM273 -240
q-24 0 -50 3.5t-42 8.5v132q17 -5 29.5 -7t26.5 -2q30 0 52.5 18t31.5 60l123 576h166l-128 -602q-10 -50 -34.5 -92.5t-67 -68.5t-107.5 -26z" />
    <glyph glyph-name="Jcircumflex" unicode="&#x134;" horiz-adv-x="350" 
d="M-61 -217q-29 0 -53 4t-44 10v138q17 -4 37 -7.5t45 -3.5q47 0 77 27.5t44 96.5l142 666h168l-147 -689q-18 -87 -51.5 -140.5t-87 -77.5t-130.5 -24zM61 771v12q21 20 48.5 46t54 53t44.5 49h189q15 -34 40.5 -76.5t46.5 -71.5v-12h-112q-17 15 -39.5 39.5t-38.5 43.5
q-28 -23 -56.5 -43.5t-58.5 -39.5h-118z" />
    <glyph glyph-name="jcircumflex" unicode="&#x135;" horiz-adv-x="310" 
d="M-36 -240q-25 0 -50.5 3.5t-41.5 8.5v132q16 -5 29 -7t26 -2q30 0 53 18t32 60l122 576h167l-129 -602q-10 -50 -34 -92.5t-66 -68.5t-108 -26zM5 606v12q21 20 48.5 46t54 53t44.5 49h189q15 -34 40.5 -76.5t46.5 -71.5v-12h-112q-17 15 -39.5 39.5t-38.5 43.5
q-28 -23 -56.5 -43.5t-58.5 -39.5h-118z" />
    <glyph glyph-name="uni0136" unicode="&#x136;" horiz-adv-x="639" 
d="M21 0l151 714h169l-71 -327l74 102l180 225h199l-281 -336l138 -378h-188l-95 286l-54 -31l-53 -255h-169zM144 -221v13q13 31 30 73t28 74h156v-10q-21 -36 -50.5 -74.5t-62.5 -75.5h-101z" />
    <glyph glyph-name="uni0137" unicode="&#x137;" horiz-adv-x="591" 
d="M15 0l160 760h166l-70 -332q-5 -26 -15 -59t-15 -49h4l207 229h190l-242 -248l137 -301h-187l-79 199l-55 -31l-35 -168h-166zM117 -221v13q13 31 30 73t28 74h156v-10q-21 -36 -50.5 -74.5t-62.5 -75.5h-101z" />
    <glyph glyph-name="kgreenlandic" unicode="&#x138;" horiz-adv-x="591" 
d="M15 0l116 549h166l-26 -118q-6 -27 -15 -57t-17 -54h4l207 229h191l-241 -248l137 -301h-187l-79 199l-55 -31l-35 -168h-166z" />
    <glyph glyph-name="Lacute" unicode="&#x139;" horiz-adv-x="522" 
d="M21 0l151 714h169l-122 -575h242l-29 -139h-411zM207 771v12q29 28 62.5 70.5t58.5 77.5h187v-8q-11 -14 -33.5 -34t-50.5 -42.5t-56 -42.5t-49 -33h-119z" />
    <glyph glyph-name="lacute" unicode="&#x13a;" horiz-adv-x="310" 
d="M15 0l161 760h166l-161 -760h-166zM183 817v12q29 28 62.5 70.5t58.5 77.5h187v-8q-11 -14 -33.5 -34t-50.5 -42.5t-56 -42.5t-49 -33h-119z" />
    <glyph glyph-name="uni013B" unicode="&#x13b;" horiz-adv-x="522" 
d="M21 0l151 714h169l-122 -575h242l-29 -139h-411zM93 -221v13q13 31 30 73t28 74h156v-10q-21 -36 -50.5 -74.5t-62.5 -75.5h-101z" />
    <glyph glyph-name="uni013C" unicode="&#x13c;" horiz-adv-x="310" 
d="M15 0l161 760h166l-161 -760h-166zM-40 -221v13q13 31 30 73t28 74h156v-10q-21 -36 -50.5 -74.5t-62.5 -75.5h-101z" />
    <glyph glyph-name="Lcaron" unicode="&#x13d;" horiz-adv-x="522" 
d="M21 0l151 714h169l-122 -575h242l-29 -139h-411zM379 552v13q13 31 30 73t28 74h156v-10q-21 -36 -50 -74t-63 -76h-101z" />
    <glyph glyph-name="lcaron" unicode="&#x13e;" horiz-adv-x="404" 
d="M15 0l161 760h166l-161 -760h-166zM345 600v13q13 31 30 73t28 74h156v-10q-21 -36 -50 -74t-63 -76h-101z" />
    <glyph glyph-name="Ldot" unicode="&#x13f;" horiz-adv-x="522" 
d="M21 0l151 714h169l-122 -575h242l-29 -139h-411zM427 291q-35 0 -59 14t-24 50q0 48 26 71t73 23q31 0 56.5 -13t25.5 -51q0 -41 -22.5 -67.5t-75.5 -26.5z" />
    <glyph glyph-name="ldot" unicode="&#x140;" horiz-adv-x="480" 
d="M15 0l161 760h166l-161 -760h-166zM402 262q-35 0 -59 14t-24 50q0 48 26 71t73 23q31 0 56.5 -13t25.5 -51q0 -41 -22.5 -67.5t-75.5 -26.5z" />
    <glyph glyph-name="Lslash" unicode="&#x141;" horiz-adv-x="527" 
d="M27 0l50 236l-33 -17l-55 108l120 64l69 323h167l-48 -228l76 41l58 -108l-167 -89l-40 -191h242l-29 -139h-410z" />
    <glyph glyph-name="lslash" unicode="&#x142;" horiz-adv-x="340" 
d="M29 0l46 217l-35 -18l-51 104l117 61l84 396h165l-64 -304l36 19l54 -104l-122 -63l-65 -308h-165z" />
    <glyph glyph-name="Nacute" unicode="&#x143;" horiz-adv-x="771" 
d="M21 0l151 714h197l154 -505h4q3 21 8 54.5t11 68.5t11 62l69 320h150l-151 -714h-192l-159 522h-5q-1 -8 -3.5 -31t-7 -53.5t-9.5 -62.5t-10 -57l-67 -318h-151zM408 771v12q29 28 62.5 70.5t58.5 77.5h187v-8q-11 -14 -33.5 -34t-50.5 -42.5t-56 -42.5t-49 -33h-119z
" />
    <glyph glyph-name="nacute" unicode="&#x144;" horiz-adv-x="612" 
d="M15 0l116 549h130l-8 -90h4q29 48 68.5 74t94.5 26q74 0 108.5 -44.5t34.5 -112.5q0 -46 -11 -99l-64 -303h-166l65 311q3 15 5.5 32t2.5 31q0 52 -45 52q-40 0 -70 -49.5t-47 -130.5l-52 -246h-166zM292 606v12q29 28 62.5 70.5t58.5 77.5h187v-8q-11 -14 -33.5 -34
t-50.5 -42.5t-56 -42.5t-49 -33h-119z" />
    <glyph glyph-name="uni0145" unicode="&#x145;" horiz-adv-x="771" 
d="M21 0l151 714h197l154 -505h4q3 21 8 54.5t11 68.5t11 62l69 320h150l-151 -714h-192l-159 522h-5q-1 -8 -3.5 -31t-7 -53.5t-9.5 -62.5t-10 -57l-67 -318h-151zM183 -221v13q13 31 30 73t28 74h156v-10q-21 -36 -50.5 -74.5t-62.5 -75.5h-101z" />
    <glyph glyph-name="uni0146" unicode="&#x146;" horiz-adv-x="612" 
d="M15 0l116 549h130l-8 -90h4q29 48 68.5 74t94.5 26q74 0 108.5 -44.5t34.5 -112.5q0 -46 -11 -99l-64 -303h-166l65 311q3 15 5.5 32t2.5 31q0 52 -45 52q-40 0 -70 -49.5t-47 -130.5l-52 -246h-166zM116 -221v13q13 31 30 73t28 74h156v-10q-21 -36 -50.5 -74.5
t-62.5 -75.5h-101z" />
    <glyph glyph-name="Ncaron" unicode="&#x147;" horiz-adv-x="771" 
d="M21 0l151 714h197l154 -505h4q3 21 8 54.5t11 68.5t11 62l69 320h150l-151 -714h-192l-159 522h-5q-1 -8 -3.5 -31t-7 -53.5t-9.5 -62.5t-10 -57l-67 -318h-151zM400 771q-15 34 -40 76.5t-46 71.5v12h112q17 -15 39.5 -39.5t37.5 -43.5q28 23 56.5 43.5t58.5 39.5h119
v-12q-22 -20 -49 -46t-53 -53t-45 -49h-190z" />
    <glyph glyph-name="ncaron" unicode="&#x148;" horiz-adv-x="612" 
d="M15 0l116 549h130l-8 -90h4q29 48 68.5 74t94.5 26q74 0 108.5 -44.5t34.5 -112.5q0 -46 -11 -99l-64 -303h-166l65 311q3 15 5.5 32t2.5 31q0 52 -45 52q-40 0 -70 -49.5t-47 -130.5l-52 -246h-166zM284 606q-15 34 -40 76.5t-46 71.5v12h112q17 -15 39.5 -39.5
t37.5 -43.5q28 23 56.5 43.5t58.5 39.5h119v-12q-22 -20 -49 -46t-53 -53t-45 -49h-190z" />
    <glyph glyph-name="napostrophe" unicode="&#x149;" horiz-adv-x="706" 
d="M108 0l116 549h130l-8 -90h4q29 48 68.5 74t94.5 26q74 0 108.5 -44.5t34.5 -112.5q0 -46 -11 -99l-64 -303h-166l65 311q3 15 5.5 32t2.5 31q0 52 -45 52q-40 0 -70 -49.5t-47 -130.5l-52 -246h-166zM-1 469q25 59 50 126t44 119h153l4 -11q-22 -52 -57 -115.5
t-69 -118.5h-125z" />
    <glyph glyph-name="Eng" unicode="&#x14a;" horiz-adv-x="771" 
d="M359 -217q-29 0 -54 4t-44 9v133q18 -5 38.5 -8.5t47.5 -3.5q47 0 78.5 19.5t45.5 65.5l-197 520h-4q-1 -8 -4 -31t-7 -53.5t-9.5 -62.5t-10.5 -57l-67 -318h-151l151 714h184l174 -456h4q3 22 8.5 54.5t11.5 67t12 63.5l60 271h150l-151 -714q-23 -111 -88 -164
t-178 -53z" />
    <glyph glyph-name="eng" unicode="&#x14b;" horiz-adv-x="612" 
d="M268 -240q-25 0 -50.5 3.5t-41.5 8.5v132q16 -5 29 -7t26 -2q30 0 53 18t32 60l71 338q3 15 5.5 32t2.5 31q0 52 -45 52q-40 0 -70 -49.5t-47 -130.5l-52 -246h-166l116 549h130l-8 -90h4q29 48 68.5 74t94.5 26q74 0 108.5 -44.5t34.5 -112.5q0 -46 -11 -99l-75 -355
q-11 -51 -35 -93.5t-66 -68.5t-108 -26z" />
    <glyph glyph-name="Omacron" unicode="&#x14c;" horiz-adv-x="733" 
d="M325 -10q-133 0 -201 74.5t-68 198.5q0 84 23 166t70 149t119 107t170 40q130 0 197 -74t67 -197q0 -86 -22 -168.5t-68 -149t-117.5 -106.5t-169.5 -40zM339 131q53 0 97 41.5t69.5 113.5t25.5 165q0 61 -27.5 97t-79.5 36q-44 0 -80 -26.5t-62 -71.5t-40.5 -102.5
t-14.5 -119.5q0 -65 29 -99t83 -34zM307 771l23 109h313l-23 -109h-313z" />
    <glyph glyph-name="omacron" unicode="&#x14d;" horiz-adv-x="595" 
d="M253 -10q-97 0 -153.5 56t-56.5 155q0 72 19 136.5t56.5 114.5t93.5 78.5t131 28.5q98 0 154 -56t56 -158q0 -70 -18.5 -134t-56 -113.5t-93.5 -78.5t-132 -29zM270 120q34 0 60 33t40 85t14 109q0 37 -13.5 59.5t-43.5 22.5q-28 0 -49.5 -21t-36.5 -55.5t-22.5 -74.5
t-7.5 -79q0 -79 59 -79zM200 606l23 109h313l-23 -109h-313z" />
    <glyph glyph-name="Obreve" unicode="&#x14e;" horiz-adv-x="733" 
d="M325 -10q-133 0 -201 74.5t-68 198.5q0 84 23 166t70 149t119 107t170 40q130 0 197 -74t67 -197q0 -86 -22 -168.5t-68 -149t-117.5 -106.5t-169.5 -40zM339 131q53 0 97 41.5t69.5 113.5t25.5 165q0 61 -27.5 97t-79.5 36q-44 0 -80 -26.5t-62 -71.5t-40.5 -102.5
t-14.5 -119.5q0 -65 29 -99t83 -34zM465 771q-85 0 -125 42t-40 101q0 19 3 29h95q0 -62 77 -62q35 0 61 13t36 49h99q-13 -83 -62.5 -127.5t-143.5 -44.5z" />
    <glyph glyph-name="obreve" unicode="&#x14f;" horiz-adv-x="595" 
d="M253 -10q-97 0 -153.5 56t-56.5 155q0 72 19 136.5t56.5 114.5t93.5 78.5t131 28.5q98 0 154 -56t56 -158q0 -70 -18.5 -134t-56 -113.5t-93.5 -78.5t-132 -29zM270 120q34 0 60 33t40 85t14 109q0 37 -13.5 59.5t-43.5 22.5q-28 0 -49.5 -21t-36.5 -55.5t-22.5 -74.5
t-7.5 -79q0 -79 59 -79zM358 606q-85 0 -125 42t-40 101q0 19 3 29h95q0 -62 77 -62q35 0 61 13t36 49h99q-13 -83 -62.5 -127.5t-143.5 -44.5z" />
    <glyph glyph-name="Ohungarumlaut" unicode="&#x150;" horiz-adv-x="733" 
d="M325 -10q-133 0 -201 74.5t-68 198.5q0 84 23 166t70 149t119 107t170 40q130 0 197 -74t67 -197q0 -86 -22 -168.5t-68 -149t-117.5 -106.5t-169.5 -40zM339 131q53 0 97 41.5t69.5 113.5t25.5 165q0 61 -27.5 97t-79.5 36q-44 0 -80 -26.5t-62 -71.5t-40.5 -102.5
t-14.5 -119.5q0 -65 29 -99t83 -34zM517 771v13q15 19 34.5 44.5t39 52.5t33.5 50h164v-9q-9 -13 -30.5 -33t-48.5 -42t-53.5 -42t-46.5 -34h-92zM308 771v13q16 19 36 44.5t39.5 52.5t34.5 50h164v-9q-10 -13 -32 -33t-49.5 -42t-54 -42t-45.5 -34h-93z" />
    <glyph glyph-name="ohungarumlaut" unicode="&#x151;" horiz-adv-x="595" 
d="M253 -10q-97 0 -153.5 56t-56.5 155q0 72 19 136.5t56.5 114.5t93.5 78.5t131 28.5q98 0 154 -56t56 -158q0 -70 -18.5 -134t-56 -113.5t-93.5 -78.5t-132 -29zM270 120q34 0 60 33t40 85t14 109q0 37 -13.5 59.5t-43.5 22.5q-28 0 -49.5 -21t-36.5 -55.5t-22.5 -74.5
t-7.5 -79q0 -79 59 -79zM409 606v13q15 19 34.5 44.5t39 52.5t33.5 50h164v-9q-9 -13 -30.5 -33t-48.5 -42t-53.5 -42t-46.5 -34h-92zM200 606v13q16 19 36 44.5t39.5 52.5t34.5 50h164v-9q-10 -13 -32 -33t-49.5 -42t-54 -42t-45.5 -34h-93z" />
    <glyph glyph-name="OE" unicode="&#x152;" horiz-adv-x="915" 
d="M321 -10q-87 0 -146 34t-89 94.5t-30 141.5q0 64 14 130t43 126t74 107t108 74.5t144 27.5q30 0 54 -2.5t44 -8.5h410l-29 -139h-242l-29 -135h226l-31 -139h-225l-34 -161h242l-29 -140h-383q-22 -4 -45 -7t-47 -3zM335 133q20 0 41.5 4t40.5 14l87 412q-14 11 -35 16
t-43 5q-42 0 -78 -26t-63.5 -71t-42.5 -103.5t-15 -123.5q0 -64 28.5 -95.5t79.5 -31.5z" />
    <glyph glyph-name="oe" unicode="&#x153;" horiz-adv-x="881" 
d="M248 -10q-95 0 -150 56t-55 156q0 72 18.5 136.5t54.5 114t90.5 78t126.5 28.5q50 0 86.5 -18t58.5 -52q34 32 81 51t108 19q92 0 141 -41.5t49 -109.5q0 -88 -74.5 -142t-231.5 -54h-27v-15q0 -84 89 -84q43 0 79 10.5t82 33.5v-121q-44 -22 -90 -34t-110 -12
q-52 0 -93 16t-65 48q-30 -30 -71 -47t-97 -17zM542 320h18q75 0 107 25t32 56q0 42 -46 42q-25 0 -48 -17t-40 -45t-23 -61zM269 120q33 0 58 33t38.5 85t13.5 109q0 37 -14 59.5t-43 22.5q-27 0 -47.5 -21t-34.5 -55t-21.5 -74t-7.5 -79q0 -80 58 -80z" />
    <glyph glyph-name="Racute" unicode="&#x154;" horiz-adv-x="628" 
d="M21 0l151 714h182q115 0 178.5 -47.5t63.5 -148.5q0 -60 -21 -103.5t-55 -71t-72 -42.5l128 -301h-184l-98 268h-48l-56 -268h-169zM275 401h32q52 0 85.5 25.5t33.5 81.5q0 33 -19 52.5t-63 19.5h-32zM329 771v12q29 28 62.5 70.5t58.5 77.5h187v-8q-11 -14 -33.5 -34
t-50.5 -42.5t-56 -42.5t-49 -33h-119z" />
    <glyph glyph-name="racute" unicode="&#x155;" horiz-adv-x="428" 
d="M15 0l116 549h130l-9 -97h4q34 56 74 81.5t94 25.5q26 0 44 -4l-36 -163q-10 4 -24 6.5t-31 2.5q-49 0 -87.5 -37.5t-56.5 -119.5l-52 -244h-166zM221 606v12q29 28 62.5 70.5t58.5 77.5h187v-8q-11 -14 -33.5 -34t-50.5 -42.5t-56 -42.5t-49 -33h-119z" />
    <glyph glyph-name="uni0156" unicode="&#x156;" horiz-adv-x="628" 
d="M21 0l151 714h182q115 0 178.5 -47.5t63.5 -148.5q0 -60 -21 -103.5t-55 -71t-72 -42.5l128 -301h-184l-98 268h-48l-56 -268h-169zM275 401h32q52 0 85.5 25.5t33.5 81.5q0 33 -19 52.5t-63 19.5h-32zM131 -221v13q13 31 30 73t28 74h156v-10q-21 -36 -50.5 -74.5
t-62.5 -75.5h-101z" />
    <glyph glyph-name="uni0157" unicode="&#x157;" horiz-adv-x="428" 
d="M15 0l116 549h130l-9 -97h4q34 56 74 81.5t94 25.5q26 0 44 -4l-36 -163q-10 4 -24 6.5t-31 2.5q-49 0 -87.5 -37.5t-56.5 -119.5l-52 -244h-166zM-34 -221v13q13 31 30 73t28 74h156v-10q-21 -36 -50.5 -74.5t-62.5 -75.5h-101z" />
    <glyph glyph-name="Rcaron" unicode="&#x158;" horiz-adv-x="628" 
d="M21 0l151 714h182q115 0 178.5 -47.5t63.5 -148.5q0 -60 -21 -103.5t-55 -71t-72 -42.5l128 -301h-184l-98 268h-48l-56 -268h-169zM275 401h32q52 0 85.5 25.5t33.5 81.5q0 33 -19 52.5t-63 19.5h-32zM322 771q-15 34 -40 76.5t-46 71.5v12h112q17 -15 39.5 -39.5
t37.5 -43.5q28 23 56.5 43.5t58.5 39.5h119v-12q-22 -20 -49 -46t-53 -53t-45 -49h-190z" />
    <glyph glyph-name="rcaron" unicode="&#x159;" horiz-adv-x="428" 
d="M15 0l116 549h130l-9 -97h4q34 56 74 81.5t94 25.5q26 0 44 -4l-36 -163q-10 4 -24 6.5t-31 2.5q-49 0 -87.5 -37.5t-56.5 -119.5l-52 -244h-166zM213 606q-15 34 -40 76.5t-46 71.5v12h112q17 -15 39.5 -39.5t37.5 -43.5q28 23 56.5 43.5t58.5 39.5h119v-12
q-22 -20 -49 -46t-53 -53t-45 -49h-190z" />
    <glyph glyph-name="Sacute" unicode="&#x15a;" horiz-adv-x="538" 
d="M199 -10q-53 0 -99.5 12t-79.5 33v151q42 -24 89.5 -40t92.5 -16q44 0 70.5 17t26.5 52t-24 57.5t-60 49.5q-47 36 -81.5 82.5t-34.5 116.5q0 64 31 113.5t87 77.5t131 28q112 0 201 -50l-59 -128q-36 17 -72 28t-69 11q-41 0 -60.5 -20t-19.5 -48q0 -31 20 -53t64 -53
q59 -41 87.5 -88t28.5 -108q0 -73 -34 -123.5t-95 -76t-141 -25.5zM278 771v12q29 28 62.5 70.5t58.5 77.5h187v-8q-11 -14 -33.5 -34t-50.5 -42.5t-56 -42.5t-49 -33h-119z" />
    <glyph glyph-name="sacute" unicode="&#x15b;" horiz-adv-x="486" 
d="M181 -10q-104 0 -168 32v135q79 -44 159 -44q26 0 52 10.5t26 36.5q0 12 -6 22.5t-23 23t-50 30.5q-52 28 -77.5 62t-25.5 87q0 82 55 128t162 46q50 0 94.5 -11.5t86.5 -37.5l-53 -113q-29 18 -62 30.5t-64 12.5q-21 0 -35.5 -10t-14.5 -30q0 -16 15.5 -29t54.5 -33
q53 -26 82.5 -62.5t29.5 -89.5q0 -98 -64.5 -147t-173.5 -49zM209 606v12q29 28 62.5 70.5t58.5 77.5h187v-8q-11 -14 -33.5 -34t-50.5 -42.5t-56 -42.5t-49 -33h-119z" />
    <glyph glyph-name="Scircumflex" unicode="&#x15c;" horiz-adv-x="538" 
d="M199 -10q-53 0 -99.5 12t-79.5 33v151q42 -24 89.5 -40t92.5 -16q44 0 70.5 17t26.5 52t-24 57.5t-60 49.5q-47 36 -81.5 82.5t-34.5 116.5q0 64 31 113.5t87 77.5t131 28q112 0 201 -50l-59 -128q-36 17 -72 28t-69 11q-41 0 -60.5 -20t-19.5 -48q0 -31 20 -53t64 -53
q59 -41 87.5 -88t28.5 -108q0 -73 -34 -123.5t-95 -76t-141 -25.5zM147 771v12q21 20 48.5 46t54 53t44.5 49h189q15 -34 40.5 -76.5t46.5 -71.5v-12h-112q-17 15 -39.5 39.5t-38.5 43.5q-28 -23 -56.5 -43.5t-58.5 -39.5h-118z" />
    <glyph glyph-name="scircumflex" unicode="&#x15d;" horiz-adv-x="486" 
d="M181 -10q-104 0 -168 32v135q79 -44 159 -44q26 0 52 10.5t26 36.5q0 12 -6 22.5t-23 23t-50 30.5q-52 28 -77.5 62t-25.5 87q0 82 55 128t162 46q50 0 94.5 -11.5t86.5 -37.5l-53 -113q-29 18 -62 30.5t-64 12.5q-21 0 -35.5 -10t-14.5 -30q0 -16 15.5 -29t54.5 -33
q53 -26 82.5 -62.5t29.5 -89.5q0 -98 -64.5 -147t-173.5 -49zM78 606v12q21 20 48.5 46t54 53t44.5 49h189q15 -34 40.5 -76.5t46.5 -71.5v-12h-112q-17 15 -39.5 39.5t-38.5 43.5q-28 -23 -56.5 -43.5t-58.5 -39.5h-118z" />
    <glyph glyph-name="Scedilla" unicode="&#x15e;" horiz-adv-x="538" 
d="M199 -10q-53 0 -99.5 12t-79.5 33v151q42 -24 89.5 -40t92.5 -16q44 0 70.5 17t26.5 52t-24 57.5t-60 49.5q-47 36 -81.5 82.5t-34.5 116.5q0 64 31 113.5t87 77.5t131 28q112 0 201 -50l-59 -128q-36 17 -72 28t-69 11q-41 0 -60.5 -20t-19.5 -48q0 -31 20 -53t64 -53
q59 -41 87.5 -88t28.5 -108q0 -73 -34 -123.5t-95 -76t-141 -25.5zM157 -240q-26 0 -47.5 4t-35.5 8v91q13 -5 33.5 -8.5t33.5 -3.5q42 0 42 32q0 16 -14.5 27.5t-55.5 18.5l42 71h95l-16 -28q33 -9 55.5 -30t22.5 -61q0 -54 -38.5 -87.5t-116.5 -33.5z" />
    <glyph glyph-name="scedilla" unicode="&#x15f;" horiz-adv-x="486" 
d="M181 -10q-104 0 -168 32v135q79 -44 159 -44q26 0 52 10.5t26 36.5q0 12 -6 22.5t-23 23t-50 30.5q-52 28 -77.5 62t-25.5 87q0 82 55 128t162 46q50 0 94.5 -11.5t86.5 -37.5l-53 -113q-29 18 -62 30.5t-64 12.5q-21 0 -35.5 -10t-14.5 -30q0 -16 15.5 -29t54.5 -33
q53 -26 82.5 -62.5t29.5 -89.5q0 -98 -64.5 -147t-173.5 -49zM135 -240q-26 0 -47.5 4t-35.5 8v91q13 -5 33.5 -8.5t33.5 -3.5q42 0 42 32q0 16 -14.5 27.5t-55.5 18.5l42 71h95l-16 -28q33 -9 55.5 -30t22.5 -61q0 -54 -38.5 -87.5t-116.5 -33.5z" />
    <glyph glyph-name="Scaron" unicode="&#x160;" horiz-adv-x="538" 
d="M199 -10q-53 0 -99.5 12t-79.5 33v151q42 -24 89.5 -40t92.5 -16q44 0 70.5 17t26.5 52t-24 57.5t-60 49.5q-47 36 -81.5 82.5t-34.5 116.5q0 64 31 113.5t87 77.5t131 28q112 0 201 -50l-59 -128q-36 17 -72 28t-69 11q-41 0 -60.5 -20t-19.5 -48q0 -31 20 -53t64 -53
q59 -41 87.5 -88t28.5 -108q0 -73 -34 -123.5t-95 -76t-141 -25.5zM271 771q-15 34 -40 76.5t-46 71.5v12h112q17 -15 39.5 -39.5t37.5 -43.5q28 23 56.5 43.5t58.5 39.5h119v-12q-22 -20 -49 -46t-53 -53t-45 -49h-190z" />
    <glyph glyph-name="scaron" unicode="&#x161;" horiz-adv-x="486" 
d="M181 -10q-104 0 -168 32v135q79 -44 159 -44q26 0 52 10.5t26 36.5q0 12 -6 22.5t-23 23t-50 30.5q-52 28 -77.5 62t-25.5 87q0 82 55 128t162 46q50 0 94.5 -11.5t86.5 -37.5l-53 -113q-29 18 -62 30.5t-64 12.5q-21 0 -35.5 -10t-14.5 -30q0 -16 15.5 -29t54.5 -33
q53 -26 82.5 -62.5t29.5 -89.5q0 -98 -64.5 -147t-173.5 -49zM201 606q-15 34 -40 76.5t-46 71.5v12h112q17 -15 39.5 -39.5t37.5 -43.5q28 23 56.5 43.5t58.5 39.5h119v-12q-22 -20 -49 -46t-53 -53t-45 -49h-190z" />
    <glyph glyph-name="uni0162" unicode="&#x162;" horiz-adv-x="541" 
d="M123 0l120 573h-164l30 141h498l-31 -141h-164l-121 -573h-168zM163 -240q-26 0 -47.5 4t-35.5 8v91q13 -5 33.5 -8.5t33.5 -3.5q42 0 42 32q0 16 -14.5 27.5t-55.5 18.5l42 71h95l-16 -28q33 -9 55.5 -30t22.5 -61q0 -54 -38.5 -87.5t-116.5 -33.5z" />
    <glyph glyph-name="uni0163" unicode="&#x163;" horiz-adv-x="432" 
d="M200 -10q-68 0 -106 29t-38 100q0 16 2.5 35.5t5.5 36.5l50 232h-75l17 82l100 42l66 116h109l-24 -114h140l-28 -126h-139l-49 -228q-5 -23 -5 -37q0 -18 10 -26t27 -8q19 0 40 5.5t44 14.5v-125q-27 -13 -64 -21t-83 -8zM139 -240q-26 0 -47.5 4t-35.5 8v91
q13 -5 33.5 -8.5t33.5 -3.5q42 0 42 32q0 16 -14.5 27.5t-55.5 18.5l42 71h95l-16 -28q33 -9 55.5 -30t22.5 -61q0 -54 -38.5 -87.5t-116.5 -33.5z" />
    <glyph glyph-name="Tcaron" unicode="&#x164;" horiz-adv-x="541" 
d="M123 0l120 573h-164l30 141h498l-31 -141h-164l-121 -573h-168zM280 771q-15 34 -40 76.5t-46 71.5v12h112q17 -15 39.5 -39.5t37.5 -43.5q28 23 56.5 43.5t58.5 39.5h119v-12q-22 -20 -49 -46t-53 -53t-45 -49h-190z" />
    <glyph glyph-name="tcaron" unicode="&#x165;" horiz-adv-x="432" 
d="M200 -10q-68 0 -106 29t-38 100q0 16 2.5 35.5t5.5 36.5l50 232h-75l17 82l100 42l66 116h109l-24 -114h140l-28 -126h-139l-49 -228q-5 -23 -5 -37q0 -18 10 -26t27 -8q19 0 40 5.5t44 14.5v-125q-27 -13 -64 -21t-83 -8zM363 600v13q13 31 30 73t28 74h156v-10
q-21 -36 -50 -74t-63 -76h-101z" />
    <glyph glyph-name="Tbar" unicode="&#x166;" horiz-adv-x="541" 
d="M123 0l58 279h-105l30 139h105l32 155h-164l30 141h498l-31 -141h-164l-33 -155h108l-30 -139h-107l-59 -279h-168z" />
    <glyph glyph-name="tbar" unicode="&#x167;" horiz-adv-x="432" 
d="M201 -10q-68 0 -107.5 27.5t-39.5 98.5q0 13 1.5 28.5t5.5 30.5l12 56h-60l22 106h60l19 86h-75l17 82l100 42l65 115h110l-24 -113h140l-28 -126h-139l-19 -86h118l-23 -106h-118l-9 -42q-1 -11 -2.5 -19.5t-1.5 -15.5q0 -18 10.5 -24t26.5 -6q35 0 84 19v-124
q-27 -13 -62.5 -21t-82.5 -8z" />
    <glyph glyph-name="Utilde" unicode="&#x168;" horiz-adv-x="696" 
d="M296 -10q-111 0 -171 56.5t-60 147.5q0 15 1.5 33.5t5.5 35.5l96 451h169l-95 -448q-8 -34 -8 -58q0 -36 19.5 -56t59.5 -20q55 0 84 33.5t44 106.5l94 442h169l-98 -459q-17 -81 -53.5 -140.5t-99 -92t-157.5 -32.5zM249 770q15 84 52.5 121t91.5 37q31 0 54 -12.5
t43 -25t41 -12.5q35 0 54 51h88q-18 -86 -55.5 -122t-92.5 -36q-32 0 -55.5 12t-43.5 24.5t-42 12.5q-15 0 -28.5 -13.5t-18.5 -36.5h-88z" />
    <glyph glyph-name="utilde" unicode="&#x169;" horiz-adv-x="612" 
d="M193 -10q-73 0 -107.5 44.5t-34.5 112.5q0 23 3 51.5t9 56.5l62 294h166l-65 -310q-8 -32 -8 -64q0 -51 45 -51q38 0 68.5 49t48.5 130l52 246h166l-116 -549h-130l8 90h-5q-29 -48 -68 -74t-94 -26zM176 605q15 84 52.5 121t91.5 37q31 0 54 -12.5t43 -25t41 -12.5
q35 0 54 51h88q-18 -86 -55.5 -122t-92.5 -36q-32 0 -55.5 12t-43.5 24.5t-42 12.5q-15 0 -28.5 -13.5t-18.5 -36.5h-88z" />
    <glyph glyph-name="Umacron" unicode="&#x16a;" horiz-adv-x="696" 
d="M296 -10q-111 0 -171 56.5t-60 147.5q0 15 1.5 33.5t5.5 35.5l96 451h169l-95 -448q-8 -34 -8 -58q0 -36 19.5 -56t59.5 -20q55 0 84 33.5t44 106.5l94 442h169l-98 -459q-17 -81 -53.5 -140.5t-99 -92t-157.5 -32.5zM284 771l23 109h313l-23 -109h-313z" />
    <glyph glyph-name="umacron" unicode="&#x16b;" horiz-adv-x="612" 
d="M193 -10q-73 0 -107.5 44.5t-34.5 112.5q0 23 3 51.5t9 56.5l62 294h166l-65 -310q-8 -32 -8 -64q0 -51 45 -51q38 0 68.5 49t48.5 130l52 246h166l-116 -549h-130l8 90h-5q-29 -48 -68 -74t-94 -26zM211 606l23 109h313l-23 -109h-313z" />
    <glyph glyph-name="Ubreve" unicode="&#x16c;" horiz-adv-x="696" 
d="M296 -10q-111 0 -171 56.5t-60 147.5q0 15 1.5 33.5t5.5 35.5l96 451h169l-95 -448q-8 -34 -8 -58q0 -36 19.5 -56t59.5 -20q55 0 84 33.5t44 106.5l94 442h169l-98 -459q-17 -81 -53.5 -140.5t-99 -92t-157.5 -32.5zM442 771q-85 0 -125 42t-40 101q0 19 3 29h95
q0 -62 77 -62q35 0 61 13t36 49h99q-13 -83 -62.5 -127.5t-143.5 -44.5z" />
    <glyph glyph-name="ubreve" unicode="&#x16d;" horiz-adv-x="612" 
d="M193 -10q-73 0 -107.5 44.5t-34.5 112.5q0 23 3 51.5t9 56.5l62 294h166l-65 -310q-8 -32 -8 -64q0 -51 45 -51q38 0 68.5 49t48.5 130l52 246h166l-116 -549h-130l8 90h-5q-29 -48 -68 -74t-94 -26zM369 606q-85 0 -125 42t-40 101q0 19 3 29h95q0 -62 77 -62
q35 0 61 13t36 49h99q-13 -83 -62.5 -127.5t-143.5 -44.5z" />
    <glyph glyph-name="Uring" unicode="&#x16e;" horiz-adv-x="696" 
d="M296 -10q-111 0 -171 56.5t-60 147.5q0 15 1.5 33.5t5.5 35.5l96 451h169l-95 -448q-8 -34 -8 -58q0 -36 19.5 -56t59.5 -20q55 0 84 33.5t44 106.5l94 442h169l-98 -459q-17 -81 -53.5 -140.5t-99 -92t-157.5 -32.5zM455 770q-56 0 -91 31.5t-35 87.5t35 87.5t91 31.5
q53 0 90 -31.5t37 -86.5q0 -56 -36.5 -88t-90.5 -32zM455 845q19 0 32 12t13 32t-13 32t-32 12t-32 -12t-13 -32t11.5 -32t33.5 -12z" />
    <glyph glyph-name="uring" unicode="&#x16f;" horiz-adv-x="612" 
d="M193 -10q-73 0 -107.5 44.5t-34.5 112.5q0 23 3 51.5t9 56.5l62 294h166l-65 -310q-8 -32 -8 -64q0 -51 45 -51q38 0 68.5 49t48.5 130l52 246h166l-116 -549h-130l8 90h-5q-29 -48 -68 -74t-94 -26zM383 605q-56 0 -91 31.5t-35 87.5t35 87.5t91 31.5q53 0 90 -31.5
t37 -86.5q0 -56 -36.5 -88t-90.5 -32zM383 680q19 0 32 12t13 32t-13 32t-32 12t-32 -12t-13 -32t11.5 -32t33.5 -12z" />
    <glyph glyph-name="Uhungarumlaut" unicode="&#x170;" horiz-adv-x="696" 
d="M296 -10q-111 0 -171 56.5t-60 147.5q0 15 1.5 33.5t5.5 35.5l96 451h169l-95 -448q-8 -34 -8 -58q0 -36 19.5 -56t59.5 -20q55 0 84 33.5t44 106.5l94 442h169l-98 -459q-17 -81 -53.5 -140.5t-99 -92t-157.5 -32.5zM494 771v13q15 19 34.5 44.5t39 52.5t33.5 50h164v-9
q-9 -13 -30.5 -33t-48.5 -42t-53.5 -42t-46.5 -34h-92zM285 771v13q16 19 36 44.5t39.5 52.5t34.5 50h164v-9q-10 -13 -32 -33t-49.5 -42t-54 -42t-45.5 -34h-93z" />
    <glyph glyph-name="uhungarumlaut" unicode="&#x171;" horiz-adv-x="612" 
d="M193 -10q-73 0 -107.5 44.5t-34.5 112.5q0 23 3 51.5t9 56.5l62 294h166l-65 -310q-8 -32 -8 -64q0 -51 45 -51q38 0 68.5 49t48.5 130l52 246h166l-116 -549h-130l8 90h-5q-29 -48 -68 -74t-94 -26zM421 606v13q15 19 34.5 44.5t39 52.5t33.5 50h164v-9
q-9 -13 -30.5 -33t-48.5 -42t-53.5 -42t-46.5 -34h-92zM212 606v13q16 19 36 44.5t39.5 52.5t34.5 50h164v-9q-10 -13 -32 -33t-49.5 -42t-54 -42t-45.5 -34h-93z" />
    <glyph glyph-name="Uogonek" unicode="&#x172;" horiz-adv-x="696" 
d="M296 -10q-111 0 -171 56.5t-60 147.5q0 15 1.5 33.5t5.5 35.5l96 451h169l-95 -448q-8 -34 -8 -58q0 -36 19.5 -56t59.5 -20q55 0 84 33.5t44 106.5l94 442h169l-98 -459q-17 -81 -53.5 -140.5t-99 -92t-157.5 -32.5zM289 -247q-55 0 -85 28t-30 71q0 50 29.5 84.5
t76.5 63.5h109q-38 -30 -65.5 -58t-27.5 -63q0 -27 27 -27q15 0 27.5 3t25.5 7v-96q-19 -6 -39.5 -9.5t-47.5 -3.5z" />
    <glyph glyph-name="uogonek" unicode="&#x173;" horiz-adv-x="612" 
d="M193 -10q-73 0 -107.5 44.5t-34.5 112.5q0 23 3 51.5t9 56.5l62 294h166l-65 -310q-8 -32 -8 -64q0 -51 45 -51q38 0 68.5 49t48.5 130l52 246h166l-116 -549h-130l8 90h-5q-29 -48 -68 -74t-94 -26zM358 -247q-55 0 -85 28t-30 71q0 50 29.5 84.5t76.5 63.5h109
q-38 -30 -65.5 -58t-27.5 -63q0 -27 27 -27q15 0 27.5 3t25.5 7v-96q-19 -6 -39.5 -9.5t-47.5 -3.5z" />
    <glyph glyph-name="Wcircumflex" unicode="&#x174;" horiz-adv-x="913" 
d="M106 0l-23 714h159l-1 -375q-1 -40 -2.5 -86t-5.5 -83h4q12 37 28.5 79t31.5 76l172 389h147l5 -394q1 -17 0.5 -43.5t-1.5 -55.5t-3 -54h4q8 27 19 59t23 64t22 57l149 367h169l-313 -714h-195l-5 301q-1 53 0 91t3 77h-4q-14 -43 -29.5 -82.5t-31.5 -77.5l-136 -309
h-186zM336 771v12q21 20 48.5 46t54 53t44.5 49h189q15 -34 40.5 -76.5t46.5 -71.5v-12h-112q-17 15 -39.5 39.5t-38.5 43.5q-28 -23 -56.5 -43.5t-58.5 -39.5h-118z" />
    <glyph glyph-name="wcircumflex" unicode="&#x175;" horiz-adv-x="804" 
d="M84 0l-28 549h156l1 -255q0 -34 -1 -68t-5 -69h4q6 21 14 44.5t15.5 44t12.5 32.5l110 271h178l-7 -266q0 -25 -1 -57t-5 -69h5q10 31 23 70t25 68l109 254h167l-260 -549h-182l1 238q0 22 1.5 53t3 63t4.5 57h-5q-12 -38 -28 -84.5t-28 -74.5l-103 -252h-177zM240 606
v12q21 20 48.5 46t54 53t44.5 49h189q15 -34 40.5 -76.5t46.5 -71.5v-12h-112q-17 15 -39.5 39.5t-38.5 43.5q-28 -23 -56.5 -43.5t-58.5 -39.5h-118z" />
    <glyph glyph-name="Ycircumflex" unicode="&#x176;" horiz-adv-x="582" 
d="M143 0l58 275l-115 439h173l54 -278l169 278h188l-301 -439l-58 -275h-168zM161 771v12q21 20 48.5 46t54 53t44.5 49h189q15 -34 40.5 -76.5t46.5 -71.5v-12h-112q-17 15 -39.5 39.5t-38.5 43.5q-28 -23 -56.5 -43.5t-58.5 -39.5h-118z" />
    <glyph glyph-name="ycircumflex" unicode="&#x177;" horiz-adv-x="531" 
d="M7 -240q-27 0 -44.5 2.5t-28.5 6.5v132q10 -2 24 -4t31 -2q45 0 73.5 22.5t50.5 63.5l12 22l-80 546h166l23 -253q3 -30 3.5 -62t0.5 -58h4q8 23 19 54t25 61l119 258h179l-329 -623q-45 -85 -105 -125.5t-143 -40.5zM98 606v12q21 20 48.5 46t54 53t44.5 49h189
q15 -34 40.5 -76.5t46.5 -71.5v-12h-112q-17 15 -39.5 39.5t-38.5 43.5q-28 -23 -56.5 -43.5t-58.5 -39.5h-118z" />
    <glyph glyph-name="Ydieresis" unicode="&#x178;" horiz-adv-x="582" 
d="M143 0l58 275l-115 439h173l54 -278l169 278h188l-301 -439l-58 -275h-168zM491 783q-31 0 -51 12t-20 45q0 43 22 63.5t63 20.5q27 0 48.5 -11.5t21.5 -45.5q0 -38 -19 -61t-65 -23zM281 783q-31 0 -51.5 12t-20.5 45q0 43 22.5 63.5t62.5 20.5q27 0 49 -11.5t22 -45.5
q0 -38 -19.5 -61t-64.5 -23z" />
    <glyph glyph-name="Zacute" unicode="&#x179;" horiz-adv-x="537" 
d="M-37 0l21 107l360 468h-251l29 139h468l-22 -109l-364 -466h279l-29 -139h-491zM288 771v12q29 28 62.5 70.5t58.5 77.5h187v-8q-11 -14 -33.5 -34t-50.5 -42.5t-56 -42.5t-49 -33h-119z" />
    <glyph glyph-name="zacute" unicode="&#x17a;" horiz-adv-x="469" 
d="M-22 0l19 97l265 323h-183l28 129h380l-23 -107l-260 -313h201l-28 -129h-399zM217 606v12q29 28 62.5 70.5t58.5 77.5h187v-8q-11 -14 -33.5 -34t-50.5 -42.5t-56 -42.5t-49 -33h-119z" />
    <glyph glyph-name="Zdotaccent" unicode="&#x17b;" horiz-adv-x="537" 
d="M-37 0l21 107l360 468h-251l29 139h468l-22 -109l-364 -466h279l-29 -139h-491zM381 775q-35 0 -59 14t-24 50q0 48 26 71t73 23q31 0 56.5 -13t25.5 -51q0 -41 -22.5 -67.5t-75.5 -26.5z" />
    <glyph glyph-name="zdotaccent" unicode="&#x17c;" horiz-adv-x="469" 
d="M-22 0l19 97l265 323h-183l28 129h380l-23 -107l-260 -313h201l-28 -129h-399zM310 610q-35 0 -59 14t-24 50q0 48 26 71t73 23q31 0 56.5 -13t25.5 -51q0 -41 -22.5 -67.5t-75.5 -26.5z" />
    <glyph glyph-name="Zcaron" unicode="&#x17d;" horiz-adv-x="537" 
d="M-37 0l21 107l360 468h-251l29 139h468l-22 -109l-364 -466h279l-29 -139h-491zM281 771q-15 34 -40 76.5t-46 71.5v12h112q17 -15 39.5 -39.5t37.5 -43.5q28 23 56.5 43.5t58.5 39.5h119v-12q-22 -20 -49 -46t-53 -53t-45 -49h-190z" />
    <glyph glyph-name="zcaron" unicode="&#x17e;" horiz-adv-x="469" 
d="M-22 0l19 97l265 323h-183l28 129h380l-23 -107l-260 -313h201l-28 -129h-399zM210 606q-15 34 -40 76.5t-46 71.5v12h112q17 -15 39.5 -39.5t37.5 -43.5q28 23 56.5 43.5t58.5 39.5h119v-12q-22 -20 -49 -46t-53 -53t-45 -49h-190z" />
    <glyph glyph-name="longs" unicode="&#x17f;" horiz-adv-x="362" 
d="M-27 -240q-25 0 -51 3.5t-42 8.5v132q30 -9 57 -9q33 0 53.5 17.5t28.5 55.5l133 619q21 97 71 137.5t132 40.5q37 0 69 -7t57 -19l-45 -123q-14 7 -29.5 11t-32.5 4q-24 0 -39 -16.5t-21 -44.5l-134 -628q-11 -52 -35 -93t-66 -65t-106 -24z" />
    <glyph glyph-name="uni0180" unicode="&#x180;" horiz-adv-x="601" 
d="M309 -10q-47 0 -79 19t-55 57h-4l-26 -66h-130l124 585h-69l22 105h69l15 70h166l-15 -70h145l-22 -105h-146q-10 -37 -19 -66.5t-14 -41.5h4q23 27 51 48t75 21q41 0 76.5 -19.5t57.5 -62t22 -112.5q0 -59 -16 -122.5t-48 -118t-78 -88t-106 -33.5zM275 124
q31 0 56.5 32.5t40.5 83t15 103.5q0 68 -54 68q-30 0 -51 -21.5t-35 -54.5t-20.5 -69t-6.5 -66q0 -34 14.5 -55t40.5 -21z" />
    <glyph glyph-name="uni0181" unicode="&#x181;" horiz-adv-x="758" 
d="M153 0l123 584h-22q-33 0 -52.5 -20.5t-19.5 -52.5q0 -7 1 -14t2 -11h-119q-2 8 -3 18t-1 20q0 84 53.5 137t164.5 53h246q108 0 164.5 -40t56.5 -118q0 -73 -39.5 -119t-111.5 -64v-4q46 -13 73.5 -48t27.5 -88q0 -82 -37.5 -133.5t-101.5 -75.5t-144 -24h-261zM413 435
h56q104 0 104 86q0 59 -74 59h-54zM350 136h66q50 0 80.5 26t30.5 70q0 36 -19.5 54.5t-62.5 18.5h-58z" />
    <glyph glyph-name="uni0182" unicode="&#x182;" horiz-adv-x="600" 
d="M21 0l151 714h411l-30 -139h-243l-27 -131h24q125 0 183 -56.5t58 -144.5q0 -115 -77 -179t-219 -64h-231zM218 136h44q62 0 89 28t27 70q0 34 -20 54.5t-60 20.5h-44z" />
    <glyph glyph-name="uni0183" unicode="&#x183;" horiz-adv-x="599" 
d="M308 -10q-51 0 -82.5 21.5t-50.5 55.5h-4l-26 -67h-130l161 760h427l-27 -122h-260l-5 -23q-5 -24 -15 -61.5t-24 -74.5h4q23 28 52.5 47.5t73.5 19.5q40 0 75 -19t57 -61.5t22 -111.5q0 -62 -16.5 -125.5t-49 -118t-78.5 -87.5t-104 -33zM274 124q22 0 42.5 19
t36.5 50.5t25 69t9 75.5q0 75 -53 75q-30 0 -51.5 -21.5t-35.5 -55t-20.5 -70t-6.5 -66.5q0 -35 15 -55.5t39 -20.5z" />
    <glyph glyph-name="uni0184" unicode="&#x184;" horiz-adv-x="654" 
d="M300 -10q-72 0 -126 23.5t-83.5 66t-29.5 99.5q0 18 1.5 37t6.5 39l99 459h168l-56 -267h68q92 0 148 -26t81 -71t25 -102q0 -88 -39 -145t-107.5 -85t-155.5 -28zM315 126q46 0 81 24.5t35 82.5q0 35 -21.5 56.5t-86.5 21.5h-72l-17 -81q-2 -10 -3 -20.5t-1 -18.5
q0 -30 21.5 -47.5t63.5 -17.5z" />
    <glyph glyph-name="uni0185" unicode="&#x185;" horiz-adv-x="598" 
d="M270 -10q-101 0 -154.5 53.5t-53.5 147.5q0 49 13 104l98 465h166l-31 -146q-8 -38 -19 -73t-19 -54h5q24 29 50.5 50.5t75.5 21.5q67 0 109.5 -50t42.5 -155q0 -41 -9.5 -90t-30 -97t-53.5 -88.5t-80 -64.5t-110 -24zM272 124q28 0 49 23t35.5 58t22 73t7.5 69
q0 78 -54 78q-28 0 -49.5 -21.5t-36 -56t-22 -73t-7.5 -71.5q0 -41 14.5 -60t40.5 -19z" />
    <glyph glyph-name="uni0186" unicode="&#x186;" horiz-adv-x="620" 
d="M336 724q132 0 197.5 -76t65.5 -203q0 -63 -14 -128t-43 -123.5t-74 -105t-107 -73t-142 -26.5q-70 0 -121.5 14.5t-100.5 42.5l64 134q40 -22 77 -36t81 -14q52 0 91.5 27t65.5 72t39 99t13 108q0 147 -124 147q-42 0 -83.5 -10.5t-88.5 -30.5v141q41 17 92 29t112 12z
" />
    <glyph glyph-name="uni0187" unicode="&#x187;" horiz-adv-x="620" 
d="M319 -10q-132 0 -197.5 76t-65.5 203q0 63 14 128t43 123.5t74 105t107 73t142 26.5q31 0 53.5 -2.5t44.5 -6.5l4 15q22 84 62.5 119t101.5 35q26 0 44 -5.5t29 -9.5v-125q-12 4 -24 6.5t-29 2.5q-22 0 -36.5 -16t-24.5 -54l-40 -152q-44 22 -92 37t-93 15
q-52 0 -91.5 -27t-65.5 -72t-39 -99t-13 -108q0 -147 124 -147q42 0 83.5 10.5t88.5 30.5v-141q-41 -17 -92 -29t-112 -12z" />
    <glyph glyph-name="uni0188" unicode="&#x188;" horiz-adv-x="493" 
d="M247 -10q-57 0 -103 21.5t-73.5 68.5t-27.5 123q0 73 20 137.5t57.5 113.5t91.5 77t123 28q10 0 20.5 -1t20.5 -3l5 24q21 100 62.5 143t112.5 43q22 0 40 -4.5t30 -10.5v-125q-8 3 -20.5 6t-30.5 3q-23 0 -39 -13t-23 -42l-41 -189q-23 13 -54 24.5t-66 11.5
q-36 0 -62.5 -19.5t-44 -50.5t-26 -68t-8.5 -73q0 -48 19.5 -69.5t53.5 -21.5q36 0 68.5 11.5t67.5 29.5v-134q-37 -19 -78 -30t-95 -11z" />
    <glyph glyph-name="uni0189" unicode="&#x189;" horiz-adv-x="680" 
d="M21 0l60 284h-69l30 138h68l62 292h201q132 0 204 -70t72 -200q0 -137 -46 -236.5t-135 -153.5t-217 -54h-230zM219 140h44q69 0 117 39.5t73 107t25 151.5q0 68 -32 102.5t-88 34.5h-46l-33 -153h103l-30 -138h-103z" />
    <glyph glyph-name="uni018A" unicode="&#x18a;" horiz-adv-x="800" 
d="M142 0l122 578h-25q-34 0 -54.5 -20.5t-20.5 -60.5q0 -7 0.5 -13t1.5 -10h-122q-2 7 -3 15.5t-1 17.5q0 97 57.5 152t168.5 55h224q131 0 205 -69.5t74 -200.5q0 -137 -47.5 -236.5t-137.5 -153.5t-218 -54h-224zM340 140h43q69 0 117 39.5t73 106t25 149.5
q0 71 -32 105.5t-88 34.5h-46z" />
    <glyph glyph-name="uni018B" unicode="&#x18b;" horiz-adv-x="599" 
d="M278 0q-90 0 -146 27t-81.5 74t-25.5 108q0 62 25.5 107t69 74t100 43t117.5 14h44l26 130h-261l29 137h429l-151 -714h-175zM282 136h32l37 175h-25q-59 0 -95.5 -25.5t-36.5 -71.5q0 -37 23 -57.5t65 -20.5z" />
    <glyph glyph-name="uni018C" unicode="&#x18c;" horiz-adv-x="598" 
d="M200 -10q-44 0 -79.5 20.5t-56.5 65.5t-21 117q0 67 17.5 130t49.5 113.5t77.5 80t102.5 29.5q44 0 74 -18t49 -46h4q-1 9 1.5 41.5t7.5 61.5l11 53h-257l27 122h423l-161 -760h-130l7 66h-4q-26 -34 -59.5 -55t-82.5 -21zM266 124q30 0 52 24.5t36 60.5t21 73.5t7 62.5
q0 33 -15 51.5t-45 18.5t-55 -30t-40 -78.5t-15 -103.5q0 -79 54 -79z" />
    <glyph glyph-name="uni018D" unicode="&#x18d;" horiz-adv-x="596" 
d="M343 560q77 0 126 -26.5t71.5 -70.5t22.5 -97q0 -103 -61.5 -170t-161.5 -97q28 -25 48.5 -60.5t20.5 -79.5q0 -59 -31 -98t-83 -57.5t-115 -18.5q-65 0 -114 14t-94 41l66 118q77 -50 143 -50q29 0 46 13.5t17 36.5q0 16 -7 29t-25 29.5t-49 42.5q-54 45 -82 97.5
t-28 114.5q0 86 34 151t98.5 101.5t157.5 36.5zM328 430q-29 0 -52.5 -20t-37.5 -54.5t-14 -78.5q0 -34 13 -60.5t33 -41.5q52 21 86.5 68t34.5 108q0 37 -15.5 58t-47.5 21z" />
    <glyph glyph-name="uni018E" unicode="&#x18e;" horiz-adv-x="551" 
d="M1 0l28 139h245l35 168h-227l30 138h228l27 130h-245l30 139h410l-151 -714h-410z" />
    <glyph glyph-name="uni018F" unicode="&#x18f;" horiz-adv-x="651" 
d="M239 -10q-107 0 -160.5 51t-53.5 134q0 73 38.5 127.5t122.5 85.5t219 31h43q1 6 1 12.5v13.5q0 71 -33 105t-90 34q-48 0 -91 -10t-88 -26v141q43 17 94.5 26.5t109.5 9.5q94 0 153.5 -36t87.5 -99t28 -144t-23 -161.5t-70 -147t-119 -107t-169 -40.5zM253 131
q59 0 104 44.5t67 111.5h-62q-90 0 -129.5 -29t-39.5 -71q0 -27 16 -41.5t44 -14.5z" />
    <glyph glyph-name="uni0190" unicode="&#x190;" horiz-adv-x="614" 
d="M290 -10q-134 0 -204.5 52t-70.5 141q0 88 63.5 137.5t178.5 57.5v4q-66 10 -109 45t-43 96q0 60 27.5 99t71 61.5t93.5 31.5t95 9q91 0 153.5 -21.5t108.5 -57.5l-75 -113q-35 27 -79.5 43t-97.5 16q-70 0 -98.5 -21.5t-28.5 -55.5q0 -23 17 -40.5t57 -27.5t110 -10h47
l-28 -129h-54q-116 0 -177 -24t-61 -79q0 -44 39 -63.5t107 -19.5q49 0 102 11.5t103 33.5v-134q-48 -21 -104 -31.5t-143 -10.5z" />
    <glyph glyph-name="uni0191" unicode="&#x191;" horiz-adv-x="549" 
d="M-16 -240q-26 0 -50 4.5t-36 9.5v124q8 -3 21.5 -5.5t28.5 -2.5q51 0 62 56l162 768h408l-29 -138h-239l-34 -162h222l-30 -139h-223l-70 -334q-15 -69 -38 -108.5t-60.5 -56t-94.5 -16.5z" />
    <glyph glyph-name="florin" unicode="&#x192;" horiz-adv-x="564" 
d="M72 -240q-25 0 -50.5 3.5t-41.5 8.5v133q16 -5 29 -7t27 -2q30 0 52.5 17t30.5 56l86 409h-78l16 85l90 41l10 42q22 98 73.5 138t133.5 40q36 0 65.5 -6.5t55.5 -19.5l-44 -122q-14 6 -29.5 10.5t-34.5 4.5q-24 0 -37.5 -14.5t-18.5 -37.5l-8 -34h105l-28 -127h-104
l-93 -436q-10 -48 -33.5 -89.5t-65.5 -67t-108 -25.5z" />
    <glyph glyph-name="uni0193" unicode="&#x193;" horiz-adv-x="694" 
d="M322 -10q-123 0 -194.5 71.5t-71.5 209.5q0 89 26 170.5t78.5 145.5t130.5 101t183 37q22 0 42.5 -2t40.5 -6l4 18q20 81 62.5 115.5t101.5 34.5q26 0 43.5 -5.5t28.5 -9.5v-125q-11 4 -23 6.5t-29 2.5q-22 0 -37 -16t-25 -54l-39 -148q-49 22 -91 34.5t-84 12.5
q-64 0 -110 -28.5t-75 -74t-43 -99t-14 -102.5q0 -74 30 -110.5t94 -36.5q23 0 39 2t36 7l29 131h-122l30 137h286l-81 -380q-50 -17 -107.5 -28t-138.5 -11z" />
    <glyph glyph-name="uni0194" unicode="&#x194;" horiz-adv-x="602" 
d="M228 -240q-62 0 -98 35t-36 94q0 53 31 113t78 128l-120 584h163l49 -282q3 -18 7 -46t6.5 -56.5t2.5 -47.5q12 31 27.5 71.5t34.5 74.5l152 286h173l-332 -583q13 -43 20 -89t7 -86q0 -94 -40.5 -145t-124.5 -51zM236 -148q24 0 33.5 26.5t9.5 58.5q0 43 -12 84
q-31 -41 -45 -78.5t-14 -54.5q0 -36 28 -36z" />
    <glyph glyph-name="uni0195" unicode="&#x195;" horiz-adv-x="917" 
d="M576 -10q-102 0 -157.5 43t-55.5 128q0 18 3 40.5t7 40.5l15 72q8 34 8 59q0 23 -10 38t-35 15q-26 0 -45.5 -18t-33.5 -46.5t-24 -60.5t-16 -60l-51 -241h-166l161 760h166l-30 -144q-10 -48 -23 -85t-17 -48h4q32 44 70 60t79 16q62 0 101.5 -41.5t39.5 -114.5
q0 -30 -7 -61l-19 -94q-4 -18 -6.5 -34t-2.5 -29q0 -61 54 -61q35 0 59 31.5t40 108.5l59 285h164l-63 -304q-27 -127 -88 -191t-180 -64z" />
    <glyph glyph-name="uni0196" unicode="&#x196;" horiz-adv-x="390" 
d="M194 -10q-68 0 -108 27t-40 100q0 12 3 30.5t8 43.5l112 523h168l-111 -519q-6 -29 -6 -40q0 -15 9.5 -23t25.5 -8q37 0 79 17v-124q-27 -13 -61.5 -20t-78.5 -7z" />
    <glyph glyph-name="uni0197" unicode="&#x197;" horiz-adv-x="403" 
d="M-32 0l20 97l92 39l32 151h-89l30 136h88l33 153l-76 41l20 97h340l-20 -97l-96 -41l-33 -153h92l-30 -136h-90l-32 -151l77 -39l-20 -97h-338z" />
    <glyph glyph-name="uni0198" unicode="&#x198;" horiz-adv-x="639" 
d="M21 0l151 714h169l-71 -327l80 113l75 97q33 43 61.5 71.5t62.5 43t81 14.5q24 0 41 -4.5t30 -10.5v-133q-22 10 -50 10q-21 0 -38.5 -13t-31.5 -30l-139 -167l138 -378h-188l-95 286l-54 -31l-53 -255h-169z" />
    <glyph glyph-name="uni0199" unicode="&#x199;" horiz-adv-x="591" 
d="M15 0l123 587q19 89 66.5 134.5t129.5 45.5q29 0 50 -5.5t30 -9.5v-125q-8 3 -20 6.5t-29 3.5q-23 0 -39.5 -14.5t-22.5 -42.5l-32 -152q-5 -26 -15.5 -59t-15.5 -49h4l208 229h190l-242 -248l137 -301h-187l-79 199l-55 -31l-35 -168h-166z" />
    <glyph glyph-name="uni019A" unicode="&#x19a;" horiz-adv-x="310" 
d="M15 0l62 296h-80l27 124h80l72 340h166l-72 -340h82l-27 -124h-81l-63 -296h-166z" />
    <glyph glyph-name="uni019B" unicode="&#x19b;" horiz-adv-x="587" 
d="M441 -10q-65 0 -96 37t-41 107l-11 74q-3 22 -5 53t-3 50q-10 -23 -21 -50.5t-26 -55.5l-107 -205h-180l295 516l-1 16l-87 -27l-24 83l88 27q-14 18 -42 18q-12 0 -25 -2.5t-24 -4.5l-20 128q49 11 104 11q64 0 104 -26t61 -76l82 25l23 -84l-84 -25l48 -337
q10 -70 23.5 -92.5t38.5 -22.5q7 0 14.5 1t18.5 4v-125q-17 -7 -41.5 -12t-61.5 -5z" />
    <glyph glyph-name="uni019C" unicode="&#x19c;" horiz-adv-x="1005" 
d="M219 -10q-71 0 -116.5 43t-45.5 125q0 18 2.5 37.5t6.5 38.5l102 480h168l-98 -470q-7 -27 -7 -52q0 -62 57 -62q38 0 63 23.5t40 60t24 75.5l89 425h168l-97 -458q-3 -16 -5.5 -32t-2.5 -31q0 -63 60 -63q40 0 65 25t39.5 65t24.5 85l87 409h167l-151 -714h-135l4 86h-7
q-28 -44 -71 -70t-101 -26q-54 0 -90 24t-52 74h-6q-69 -98 -182 -98z" />
    <glyph glyph-name="uni019D" unicode="&#x19d;" horiz-adv-x="771" 
d="M-16 -240q-24 0 -46.5 4.5t-38.5 9.5v124q5 -2 19 -5t30 -3q50 0 61 54l163 770h197l154 -505h4q3 21 8 54.5t11 68.5t11 62l69 320h150l-151 -714h-192l-159 522h-5q-1 -8 -3.5 -31t-7 -53.5t-9.5 -62.5t-10 -57l-79 -374q-14 -70 -37 -110.5t-57 -57t-82 -16.5z" />
    <glyph glyph-name="uni019E" unicode="&#x19e;" horiz-adv-x="612" 
d="M272 -240l115 551q3 15 5.5 32t2.5 31q0 52 -45 52q-44 0 -71.5 -47t-45.5 -133l-52 -246h-166l116 549h130l-8 -90h4q29 48 68.5 74t94.5 26q74 0 108.5 -44.5t34.5 -112.5q0 -46 -11 -99l-114 -543h-166z" />
    <glyph glyph-name="uni019F" unicode="&#x19f;" horiz-adv-x="733" 
d="M325 -10q-133 0 -201 74.5t-68 198.5q0 84 23 166t70 149t119 107t170 40q130 0 197 -74t67 -197q0 -86 -22 -168.5t-68 -149t-117.5 -106.5t-169.5 -40zM252 435h284v18q0 61 -28 98.5t-84 37.5t-101 -42t-71 -112zM339 127q61 0 106.5 47t69.5 125h-292q-1 -7 -1 -16.5
v-18.5q0 -68 30.5 -102.5t86.5 -34.5z" />
    <glyph glyph-name="Ohorn" unicode="&#x1a0;" horiz-adv-x="786" 
d="M325 -10q-133 0 -201 74.5t-68 198.5q0 84 23 166t70 149t119 107t170 40q76 0 130.5 -26.5t86.5 -72.5q19 16 38 50.5t26 83.5h165l6 -12q-28 -88 -78 -140t-117 -78q4 -18 5.5 -37t1.5 -39q0 -86 -22 -168.5t-68 -149t-117.5 -106.5t-169.5 -40zM339 131q53 0 97 41.5
t69.5 113.5t25.5 165q0 61 -27.5 97t-79.5 36q-44 0 -80 -26.5t-62 -71.5t-40.5 -102.5t-14.5 -119.5q0 -65 29 -99t83 -34z" />
    <glyph glyph-name="ohorn" unicode="&#x1a1;" horiz-adv-x="673" 
d="M253 -10q-97 0 -153.5 56t-56.5 155q0 72 19 136.5t56.5 114.5t93.5 78.5t131 28.5q110 0 166 -70q40 16 57.5 57.5t25.5 84.5h159l6 -12q-15 -57 -40 -99.5t-65.5 -73t-103.5 -51.5q2 -12 3.5 -24.5t1.5 -25.5q0 -70 -18.5 -134t-56 -113.5t-93.5 -78.5t-132 -29z
M270 120q34 0 60 33t40 85t14 109q0 37 -13.5 59.5t-43.5 22.5q-28 0 -49.5 -21t-36.5 -55.5t-22.5 -74.5t-7.5 -79q0 -79 59 -79z" />
    <glyph glyph-name="uni01A2" unicode="&#x1a2;" horiz-adv-x="1090" 
d="M321 -10q-133 0 -201 74.5t-68 198.5q0 84 23 166t69.5 149t118.5 107t171 40q71 0 124 -23.5t86 -66.5q46 43 92 66.5t111 23.5q51 0 94.5 -22t70 -63.5t26.5 -100.5q0 -23 -3 -43t-8 -41l-97 -455h-163l98 457q6 25 6 51q0 38 -21 58.5t-60 20.5q-28 0 -56 -12.5
t-47 -30.5q5 -21 8 -43.5t3 -46.5q0 -86 -22 -168.5t-68 -149t-117.5 -106.5t-169.5 -40zM334 131q54 0 97.5 41.5t69.5 113.5t26 165q0 61 -27.5 97t-79.5 36q-44 0 -80 -26.5t-62.5 -71.5t-41 -102.5t-14.5 -119.5q0 -65 29 -99t83 -34z" />
    <glyph glyph-name="uni01A3" unicode="&#x1a3;" horiz-adv-x="922" 
d="M582 -240l114 543q3 16 5.5 30t2.5 27q0 38 -20 53t-51 15q-25 0 -47 -10t-38 -22q5 -25 5 -51q0 -70 -18.5 -134t-56 -113.5t-93.5 -78.5t-132 -29q-97 0 -153.5 56t-56.5 155q0 72 19 136.5t56.5 114.5t93.5 78.5t131 28.5q115 0 169 -75q44 40 84.5 57.5t90.5 17.5
q83 0 134 -44.5t51 -126.5q0 -21 -4 -46t-8 -42l-113 -540h-165zM270 120q34 0 60 33t40 85t14 109q0 37 -13.5 59.5t-43.5 22.5q-28 0 -49.5 -21t-36.5 -55.5t-22.5 -74.5t-7.5 -79q0 -79 59 -79z" />
    <glyph glyph-name="uni01A4" unicode="&#x1a4;" horiz-adv-x="737" 
d="M142 0l123 578h-25q-34 0 -55 -21.5t-21 -57.5q0 -9 0.5 -15t1.5 -10h-122q-2 8 -3 16.5t-1 21.5q0 92 57 147t169 55h219q91 0 145.5 -27.5t79 -75t24.5 -108.5q0 -85 -40.5 -142t-111 -86t-160.5 -29h-60l-51 -246h-169zM392 385h47q57 0 91.5 31t34.5 82
q0 36 -20 56.5t-61 20.5h-51z" />
    <glyph glyph-name="uni01A5" unicode="&#x1a5;" horiz-adv-x="601" 
d="M-36 -240l175 827q19 89 65.5 134.5t128.5 45.5q29 0 50.5 -5.5t30.5 -9.5v-125q-8 3 -20 6.5t-29 3.5q-22 0 -38 -11.5t-23 -35.5l-4 -17q-8 -29 -15.5 -52.5t-11.5 -35.5h4q26 36 56.5 55t68.5 19q70 0 113 -50.5t43 -150.5q0 -64 -16 -129t-47.5 -119t-77 -87
t-105.5 -33q-45 0 -74.5 21.5t-49.5 54.5h-4q-3 -40 -7.5 -76t-15.5 -85l-31 -145h-166zM276 124q25 0 45.5 19.5t35.5 52t23.5 72t8.5 78.5q0 79 -57 79q-26 0 -47 -20.5t-35.5 -53.5t-22 -72t-7.5 -76q0 -36 14 -57.5t42 -21.5z" />
    <glyph glyph-name="uni01A6" unicode="&#x1a6;" horiz-adv-x="620" 
d="M365 -100l-101 268h-39l-35 -168h-169l151 714h168l-21 -100h19q118 0 174 -53.5t56 -145.5q0 -58 -21.5 -101t-56 -71.5t-72.5 -42.5l129 -300h-182zM254 304h25q53 0 85.5 24t32.5 78q0 34 -20 53t-64 19h-23z" />
    <glyph glyph-name="uni01A7" unicode="&#x1a7;" horiz-adv-x="538" 
d="M241 -10q-75 0 -124 25t-73 67.5t-24 95.5q0 70 27.5 117t72 77t96.5 50q42 15 79.5 29t60.5 33.5t23 51.5q0 23 -17.5 36.5t-50.5 13.5q-34 0 -66.5 -10.5t-85.5 -31.5l-46 127q39 17 72.5 29t69 18t79.5 6q61 0 107 -23t72 -64t26 -96q0 -71 -28 -114.5t-78.5 -72
t-116.5 -54.5q-36 -14 -66 -28t-48.5 -33.5t-18.5 -48.5q0 -63 77 -63q34 0 63.5 6t60.5 17t71 26v-139q-48 -22 -99.5 -34.5t-114.5 -12.5z" />
    <glyph glyph-name="uni01A8" unicode="&#x1a8;" horiz-adv-x="486" 
d="M222 -10q-104 0 -155.5 43t-51.5 116q0 68 41 111.5t135 74.5q48 16 73.5 27t35 21.5t9.5 24.5q0 31 -54 31q-37 0 -75 -13.5t-70 -27.5l-42 115q56 25 104 35.5t100 10.5q97 0 147 -39.5t50 -107.5q0 -56 -21 -90.5t-59.5 -57t-91.5 -40.5q-48 -17 -74.5 -28.5t-37 -22
t-10.5 -24.5q0 -23 18.5 -31.5t47.5 -8.5q35 0 74.5 9t91.5 33v-121q-47 -20 -87 -30t-98 -10z" />
    <glyph glyph-name="uni01A9" unicode="&#x1a9;" horiz-adv-x="547" 
d="M-25 0l26 127l257 241l-153 222l26 124h451l-30 -139h-256l149 -218l-231 -218h273l-28 -139h-484z" />
    <glyph glyph-name="uni01AA" unicode="&#x1aa;" horiz-adv-x="379" 
d="M175 -240q-66 0 -110 28.5t-44 100.5q0 16 3.5 37.5t7.5 39.5l117 553h-1q-53 0 -90 28.5t-37 84.5q0 61 42 96t116 35t112.5 -34.5t38.5 -97.5q0 -18 -2.5 -38.5t-8.5 -48.5l-121 -572q-3 -13 -5 -23.5t-2 -17.5q0 -36 45 -36q22 0 43 5t37 11v-124q-25 -11 -61.5 -19
t-79.5 -8zM152 597h14l6 29q1 5 2 10.5t1 12.5q0 14 -9.5 22t-23.5 8q-18 0 -29.5 -11.5t-11.5 -31.5q0 -39 51 -39z" />
    <glyph glyph-name="uni01AB" unicode="&#x1ab;" horiz-adv-x="432" 
d="M156 -240q-25 0 -44.5 3.5t-35.5 9.5l-1 113q23 -9 56 -9q25 0 42.5 13.5t23.5 45.5l11 54q-80 0 -116 30.5t-36 98.5q0 16 2.5 35.5t5.5 36.5l50 232h-75l17 82l100 42l66 116h109l-24 -114h140l-28 -126h-139l-49 -228q-5 -23 -5 -37q0 -34 41 -34q26 0 52 5t53 12
l-46 -219q-14 -71 -54 -116.5t-116 -45.5z" />
    <glyph glyph-name="uni01AC" unicode="&#x1ac;" horiz-adv-x="588" 
d="M170 0l122 576h-51q-38 0 -57.5 -21.5t-19.5 -57.5q0 -7 0.5 -13t1.5 -10h-122q-2 7 -3 15.5t-1 17.5q0 95 55 151t171 56h388l-31 -141h-164l-120 -573h-169z" />
    <glyph glyph-name="uni01AD" unicode="&#x1ad;" horiz-adv-x="432" 
d="M200 -10q-68 0 -106 29t-38 100q0 16 2.5 35.5t5.5 36.5l50 232h-75l17 82l85 36l11 47q21 95 70.5 136t129.5 41q34 0 59 -5.5t38 -11.5v-125q-11 5 -30 9t-40 4q-53 0 -65 -55l-7 -32h140l-28 -126h-139l-49 -228q-5 -23 -5 -37q0 -18 10 -26t27 -8q19 0 40 5.5
t44 14.5v-125q-27 -13 -64 -21t-83 -8z" />
    <glyph glyph-name="uni01AE" unicode="&#x1ae;" horiz-adv-x="541" 
d="M270 -240q-76 0 -119.5 34t-43.5 101q0 29 9 73l127 605h-164l30 141h498l-31 -141h-164l-127 -603q-2 -10 -4 -21t-2 -19q0 -23 11.5 -31.5t27.5 -8.5q18 0 33 3.5t23 6.5v-125q-14 -5 -42.5 -10t-61.5 -5z" />
    <glyph glyph-name="Uhorn" unicode="&#x1af;" horiz-adv-x="791" 
d="M286 -10q-70 0 -119.5 27t-75.5 74t-26 107q0 15 1.5 31.5t5.5 33.5l96 451h169l-95 -448q-8 -34 -8 -58q0 -36 19 -56t58 -20q52 0 83.5 33.5t46.5 106.5l94 442h169l-19 -88q42 14 60 48.5t24 85.5h165l6 -12q-18 -56 -51.5 -106t-88 -82t-137.5 -36l-57 -269
q-17 -81 -56 -140.5t-103.5 -92t-160.5 -32.5z" />
    <glyph glyph-name="uhorn" unicode="&#x1b0;" horiz-adv-x="737" 
d="M193 -10q-73 0 -108 44.5t-35 112.5q0 23 3.5 51.5t9.5 56.5l62 294h166l-65 -310q-8 -32 -8 -64q0 -51 45 -51q38 0 68.5 49t48.5 130l52 246h166l-11 -52q44 12 59.5 47.5t23.5 85.5h166l5 -12q-18 -56 -50.5 -105.5t-87.5 -82t-138 -36.5l-83 -394h-130l8 90h-4
q-29 -48 -68.5 -74t-94.5 -26z" />
    <glyph glyph-name="uni01B1" unicode="&#x1b1;" horiz-adv-x="747" 
d="M345 -11q-93 0 -157 33t-96.5 91.5t-32.5 135.5q0 91 29 155t75.5 106t100.5 63h-183l30 141h319l-34 -156q-77 -44 -121.5 -116t-44.5 -169q0 -69 32 -106t93 -37q51 0 86 23t56 59.5t30.5 78t9.5 79.5q0 68 -18 112.5t-51 75.5l34 156h308l-29 -141h-185
q43 -27 77 -83.5t34 -139.5q0 -102 -41.5 -183.5t-122.5 -129.5t-198 -48z" />
    <glyph glyph-name="uni01B2" unicode="&#x1b2;" horiz-adv-x="696" 
d="M296 -10q-111 0 -171 56.5t-60 147.5q0 15 1.5 33.5t5.5 35.5l96 451h169l-95 -448q-8 -34 -8 -58q0 -36 19.5 -56t59.5 -20q55 0 84 33.5t44 106.5l54 248q3 16 3 29q0 38 -34 38q-14 0 -25.5 -3.5t-24.5 -9.5v128q58 22 116 22q54 0 84 -20t42.5 -52t12.5 -66
q0 -19 -2 -37t-6 -36l-55 -258q-17 -81 -53.5 -140.5t-99 -92t-157.5 -32.5z" />
    <glyph glyph-name="uni01B3" unicode="&#x1b3;" horiz-adv-x="624" 
d="M185 0l58 274l-51 200q-12 48 -21.5 72.5t-21 32.5t-29.5 8q-8 0 -20 -2.5t-20 -6.5v129q15 6 42 12t51 6q67 0 99 -34t46 -96l37 -159l168 278h189l-301 -439l-58 -275h-168z" />
    <glyph glyph-name="uni01B4" unicode="&#x1b4;" horiz-adv-x="577" 
d="M7 -240q-27 0 -44.5 2.5t-28.5 6.5v132q10 -2 24 -4t31 -2q45 0 73.5 22.5t50.5 63.5l12 22l-80 546h166l24 -262q2 -23 3 -53.5t1 -55.5h4q7 23 17 52t27 63l54 112q21 43 47.5 77.5t63 55.5t87.5 21q44 0 88 -14l-24 -130q-10 2 -19 3.5t-17 1.5q-28 0 -49.5 -19
t-47.5 -68l-216 -407q-45 -84 -104.5 -125t-142.5 -41z" />
    <glyph glyph-name="uni01B5" unicode="&#x1b5;" horiz-adv-x="537" 
d="M-37 0l21 107l132 172h-83l31 138h158l122 158h-251l29 139h468l-22 -109l-147 -188h92l-31 -138h-169l-109 -140h279l-29 -139h-491z" />
    <glyph glyph-name="uni01B6" unicode="&#x1b6;" horiz-adv-x="469" 
d="M-22 0l19 97l106 130h-67l22 104h130l74 89h-183l28 129h380l-23 -107l-93 -111h69l-23 -104h-132l-81 -98h201l-28 -129h-399z" />
    <glyph glyph-name="uni01B7" unicode="&#x1b7;" horiz-adv-x="564" 
d="M194 -10q-59 0 -110 10t-85 29v142q35 -21 86 -34t93 -13q68 0 112 23.5t44 80.5q0 38 -27.5 59.5t-102.5 21.5h-71l24 106l177 160h-217l30 139h429l-23 -107l-210 -191q79 -13 120.5 -60.5t41.5 -125.5q0 -112 -80.5 -176t-230.5 -64z" />
    <glyph glyph-name="uni01B8" unicode="&#x1b8;" horiz-adv-x="563" 
d="M297 -10q-87 0 -146.5 26t-90.5 72t-31 105q0 79 35.5 127.5t95.5 72t136 27.5l-161 187l22 107h461l-29 -139h-254l141 -160l-25 -109h-59q-56 0 -99.5 -8t-68 -29.5t-24.5 -60.5q0 -40 33.5 -62t87.5 -22q49 0 92 11t95 34v-139q-47 -20 -95.5 -30t-115.5 -10z" />
    <glyph glyph-name="uni01B9" unicode="&#x1b9;" horiz-adv-x="557" 
d="M252 -240q-84 0 -144 29.5t-92 81t-32 117.5q0 75 37 131t103.5 90.5t156.5 42.5l-158 191l23 106h447l-29 -127h-253l145 -170l-25 -120h-51q-101 0 -161.5 -33.5t-60.5 -104.5q0 -46 33 -73t86 -27q43 0 87 13t92 35v-140q-34 -14 -63 -23.5t-62 -14t-79 -4.5z" />
    <glyph glyph-name="uni01BA" unicode="&#x1ba;" horiz-adv-x="561" 
d="M164 -240q-88 0 -143 37.5t-55 112.5q0 83 60.5 129.5t169.5 54.5q70 5 98 17.5t28 39.5q0 22 -28 30t-94 8h-69l24 110l148 125h-206l28 125h419l-24 -105l-170 -137q64 -12 101.5 -47t37.5 -99q0 -41 -13 -74.5t-45.5 -59.5t-91.5 -43.5t-151 -25.5q-36 -3 -61 -11
t-25 -30q0 -20 23 -28.5t63 -8.5q67 0 124 13.5t96 26.5v-119q-40 -16 -107 -28.5t-137 -12.5z" />
    <glyph glyph-name="uni01BB" unicode="&#x1bb;" horiz-adv-x="556" 
d="M-25 0l23 111l211 204h-163l23 104h249q40 38 61.5 74t21.5 66q0 36 -18.5 51.5t-47.5 15.5q-36 0 -69.5 -19t-83.5 -60l-80 111q53 45 115 76t145 31q103 0 156 -52t53 -130q0 -47 -21 -91t-51 -73h59l-23 -104h-133l-174 -171v-5h269l-30 -139h-492z" />
    <glyph glyph-name="uni01BC" unicode="&#x1bc;" horiz-adv-x="567" 
d="M186 -10q-56 0 -106.5 11t-81.5 30v140q20 -13 51.5 -23t66 -16t65.5 -6q47 0 85.5 12t61.5 38t23 67q0 39 -29 58t-96 19h-115l58 256h-80l30 138h482l-30 -138h-239l-29 -116h9q97 0 153.5 -55t56.5 -146q0 -99 -44 -158t-120 -85t-172 -26z" />
    <glyph glyph-name="uni01BD" unicode="&#x1bd;" horiz-adv-x="558" 
d="M196 -10q-53 0 -108.5 10t-87.5 27v131q20 -10 50 -20t64 -16t64 -6q151 0 151 62q0 25 -30 34.5t-96 9.5h-98l44 205h-88l27 122h470l-26 -122h-231l-22 -92h15q90 0 147 -34t57 -108q0 -98 -72 -150.5t-230 -52.5z" />
    <glyph glyph-name="uni01BE" unicode="&#x1be;" horiz-adv-x="487" 
d="M179 -10q-48 0 -97 9t-75 24v133q30 -16 71 -29.5t84 -13.5q50 0 71.5 13t21.5 39q0 19 -17.5 33.5t-39.5 33.5q-25 20 -47 47t-22 76q0 19 6 49l4 19h-95l17 82l100 42l66 116h110l-24 -114h139l-28 -126h-135l-5 -20q-2 -6 -2 -11.5v-11.5q0 -18 8.5 -31t24.5 -24
q27 -19 51 -40t39 -47.5t15 -63.5q0 -48 -23 -90t-76 -68t-142 -26z" />
    <glyph glyph-name="uni01BF" unicode="&#x1bf;" horiz-adv-x="601" 
d="M-37 -240l168 789h130l-7 -73h4q26 36 59.5 59.5t86.5 23.5q68 0 111 -49.5t43 -140.5q0 -66 -24.5 -131t-72.5 -120t-119.5 -91.5t-165.5 -47.5l-46 -219h-167zM206 119q50 9 92 41t66.5 82t24.5 110q0 34 -12.5 53.5t-38.5 19.5q-40 0 -62 -43t-42 -135z" />
    <glyph glyph-name="uni01C0" unicode="&#x1c0;" horiz-adv-x="313" 
d="M40 0l162 760h115l-161 -760h-116z" />
    <glyph glyph-name="uni01C1" unicode="&#x1c1;" horiz-adv-x="570" 
d="M40 0l162 760h115l-161 -760h-116zM298 0l162 760h115l-161 -760h-116z" />
    <glyph glyph-name="uni01C2" unicode="&#x1c2;" horiz-adv-x="516" 
d="M141 0l53 247h-154l21 103h154l18 82h-154l22 104h154l48 224h117l-48 -224h155l-22 -104h-155l-18 -82h155l-21 -103h-155l-53 -247h-117z" />
    <glyph glyph-name="uni01C3" unicode="&#x1c3;" horiz-adv-x="294" 
d="M65 244l79 470h185l-122 -470h-142zM92 -13q-46 0 -64.5 22t-18.5 50q0 41 26 73t83 32q38 0 59 -19.5t21 -54.5q0 -48 -29.5 -75.5t-76.5 -27.5z" />
    <glyph glyph-name="uni01C4" unicode="&#x1c4;" horiz-adv-x="1218" 
d="M21 0l151 714h198q131 0 205 -69.5t74 -200.5q0 -137 -47.5 -236.5t-137.5 -153.5t-218 -54h-225zM219 140h44q69 0 117 39.5t73 106t25 149.5q0 71 -32 105.5t-88 34.5h-46zM643 0l21 107l360 468h-251l29 139h468l-22 -109l-364 -466h279l-29 -139h-491zM961 771
q-15 34 -40 76.5t-46 71.5v12h112q17 -15 39.5 -39.5t37.5 -43.5q28 23 56.5 43.5t58.5 39.5h119v-12q-22 -20 -49 -46t-53 -53t-45 -49h-190z" />
    <glyph glyph-name="uni01C5" unicode="&#x1c5;" horiz-adv-x="1157" 
d="M21 0l151 714h198q131 0 205 -69.5t74 -200.5q0 -137 -47.5 -236.5t-137.5 -153.5t-218 -54h-225zM219 140h44q69 0 117 39.5t73 106t25 149.5q0 71 -32 105.5t-88 34.5h-46zM658 0l19 97l265 323h-183l28 129h380l-23 -107l-260 -313h201l-28 -129h-399zM890 606
q-15 34 -40 76.5t-46 71.5v12h112q17 -15 39.5 -39.5t37.5 -43.5q28 23 56.5 43.5t58.5 39.5h119v-12q-22 -20 -49 -46t-53 -53t-45 -49h-190z" />
    <glyph glyph-name="uni01C6" unicode="&#x1c6;" horiz-adv-x="1076" 
d="M198 -10q-41 0 -76.5 20t-57 64.5t-21.5 120.5q0 59 16 122.5t48 118.5t78.5 89t106.5 34q47 0 73 -21.5t47 -55.5h4q0 4 1.5 24t4 45t7.5 47l34 162h167l-161 -760h-130l7 66h-4q-25 -32 -58.5 -54t-85.5 -22zM267 124q29 0 50.5 23t35.5 58.5t21 73.5t7 67
q0 36 -14 57.5t-40 21.5q-24 0 -44.5 -19.5t-36.5 -52t-25 -71.5t-9 -79q0 -79 55 -79zM577 0l19 97l265 323h-183l28 129h380l-23 -107l-260 -313h201l-28 -129h-399zM808 606q-15 34 -40 76.5t-46 71.5v12h112q17 -15 39.5 -39.5t37.5 -43.5q28 23 56.5 43.5t58.5 39.5
h119v-12q-22 -20 -49 -46t-53 -53t-45 -49h-190z" />
    <glyph glyph-name="uni01C7" unicode="&#x1c7;" horiz-adv-x="873" 
d="M21 0l151 714h169l-122 -575h242l-29 -139h-411zM461 -217q-29 0 -53 4t-44 10v138q17 -4 37 -7.5t45 -3.5q47 0 77 27.5t44 96.5l142 666h168l-147 -689q-18 -87 -51.5 -140.5t-87 -77.5t-130.5 -24z" />
    <glyph glyph-name="uni01C8" unicode="&#x1c8;" horiz-adv-x="832" 
d="M21 0l151 714h169l-122 -575h242l-29 -139h-411zM761 610q-35 0 -58.5 14.5t-23.5 49.5q0 46 25.5 70t72.5 24q33 0 58 -14.5t25 -49.5q0 -42 -24.5 -68t-74.5 -26zM485 -240q-24 0 -50 3.5t-42 8.5v132q17 -5 29.5 -7t26.5 -2q30 0 52.5 18t31.5 60l123 576h166
l-128 -602q-10 -50 -34.5 -92.5t-67 -68.5t-107.5 -26z" />
    <glyph glyph-name="uni01C9" unicode="&#x1c9;" horiz-adv-x="620" 
d="M15 0l161 760h166l-161 -760h-166zM549 610q-35 0 -58.5 14.5t-23.5 49.5q0 46 25.5 70t72.5 24q33 0 58 -14.5t25 -49.5q0 -42 -24.5 -68t-74.5 -26zM273 -240q-24 0 -50 3.5t-42 8.5v132q17 -5 29.5 -7t26.5 -2q30 0 52.5 18t31.5 60l123 576h166l-128 -602
q-10 -50 -34.5 -92.5t-67 -68.5t-107.5 -26z" />
    <glyph glyph-name="uni01CA" unicode="&#x1ca;" horiz-adv-x="1122" 
d="M21 0l151 714h197l154 -505h4q3 21 8 54.5t11 68.5t11 62l69 320h150l-151 -714h-192l-159 522h-5q-1 -8 -3.5 -31t-7 -53.5t-9.5 -62.5t-10 -57l-67 -318h-151zM710 -217q-29 0 -53 4t-44 10v138q17 -4 37 -7.5t45 -3.5q47 0 77 27.5t44 96.5l142 666h168l-147 -689
q-18 -87 -51.5 -140.5t-87 -77.5t-130.5 -24z" />
    <glyph glyph-name="uni01CB" unicode="&#x1cb;" horiz-adv-x="1081" 
d="M21 0l151 714h197l154 -505h4q3 21 8 54.5t11 68.5t11 62l69 320h150l-151 -714h-192l-159 522h-5q-1 -8 -3.5 -31t-7 -53.5t-9.5 -62.5t-10 -57l-67 -318h-151zM1010 610q-35 0 -58.5 14.5t-23.5 49.5q0 46 25.5 70t72.5 24q33 0 58 -14.5t25 -49.5q0 -42 -24.5 -68
t-74.5 -26zM734 -240q-24 0 -50 3.5t-42 8.5v132q17 -5 29.5 -7t26.5 -2q30 0 52.5 18t31.5 60l123 576h166l-128 -602q-10 -50 -34.5 -92.5t-67 -68.5t-107.5 -26z" />
    <glyph glyph-name="uni01CC" unicode="&#x1cc;" horiz-adv-x="922" 
d="M15 0l116 549h130l-8 -90h4q29 48 68.5 74t94.5 26q74 0 108.5 -44.5t34.5 -112.5q0 -46 -11 -99l-64 -303h-166l65 311q3 15 5.5 32t2.5 31q0 52 -45 52q-40 0 -70 -49.5t-47 -130.5l-52 -246h-166zM851 610q-35 0 -58.5 14.5t-23.5 49.5q0 46 25.5 70t72.5 24
q33 0 58 -14.5t25 -49.5q0 -42 -24.5 -68t-74.5 -26zM575 -240q-24 0 -50 3.5t-42 8.5v132q17 -5 29.5 -7t26.5 -2q30 0 52.5 18t31.5 60l123 576h166l-128 -602q-10 -50 -34.5 -92.5t-67 -68.5t-107.5 -26z" />
    <glyph glyph-name="uni01CD" unicode="&#x1cd;" horiz-adv-x="650" 
d="M-60 0l369 714h212l66 -714h-164l-8 153h-226l-73 -153h-176zM254 292h154l-10 194q-2 26 -3 53t0 54h-3q-8 -25 -18.5 -49.5t-23.5 -51.5zM334 771q-15 34 -40 76.5t-46 71.5v12h112q17 -15 39.5 -39.5t37.5 -43.5q28 23 56.5 43.5t58.5 39.5h119v-12q-22 -20 -49 -46
t-53 -53t-45 -49h-190z" />
    <glyph glyph-name="uni01CE" unicode="&#x1ce;" horiz-adv-x="600" 
d="M198 -10q-41 0 -76.5 20t-57 64.5t-21.5 119.5q0 59 16.5 123t48 119t78 89t106.5 34q50 0 81.5 -21.5t50.5 -57.5h4l27 69h131l-117 -549h-129l6 66h-4q-26 -34 -60 -55t-84 -21zM265 124q26 0 48.5 22t38.5 57t23 74q6 36 6 73q0 33 -14.5 54t-40.5 21
q-24 0 -44.5 -19.5t-36 -52t-24.5 -71.5t-9 -79q0 -79 53 -79zM274 606q-15 34 -40 76.5t-46 71.5v12h112q17 -15 39.5 -39.5t37.5 -43.5q28 23 56.5 43.5t58.5 39.5h119v-12q-22 -20 -49 -46t-53 -53t-45 -49h-190z" />
    <glyph glyph-name="uni01CF" unicode="&#x1cf;" horiz-adv-x="403" 
d="M-32 0l20 97l92 39l94 440l-76 41l20 97h340l-20 -97l-96 -41l-93 -440l77 -39l-20 -97h-338zM203 771q-15 34 -40 76.5t-46 71.5v12h112q17 -15 39.5 -39.5t37.5 -43.5q28 23 56.5 43.5t58.5 39.5h119v-12q-22 -20 -49 -46t-53 -53t-45 -49h-190z" />
    <glyph glyph-name="uni01D0" unicode="&#x1d0;" horiz-adv-x="310" 
d="M15 0l116 549h167l-117 -549h-166zM130 606q-15 34 -40 76.5t-46 71.5v12h112q17 -15 39.5 -39.5t37.5 -43.5q28 23 56.5 43.5t58.5 39.5h119v-12q-22 -20 -49 -46t-53 -53t-45 -49h-190z" />
    <glyph glyph-name="uni01D1" unicode="&#x1d1;" horiz-adv-x="733" 
d="M325 -10q-133 0 -201 74.5t-68 198.5q0 84 23 166t70 149t119 107t170 40q130 0 197 -74t67 -197q0 -86 -22 -168.5t-68 -149t-117.5 -106.5t-169.5 -40zM339 131q53 0 97 41.5t69.5 113.5t25.5 165q0 61 -27.5 97t-79.5 36q-44 0 -80 -26.5t-62 -71.5t-40.5 -102.5
t-14.5 -119.5q0 -65 29 -99t83 -34zM373 771q-15 34 -40 76.5t-46 71.5v12h112q17 -15 39.5 -39.5t37.5 -43.5q28 23 56.5 43.5t58.5 39.5h119v-12q-22 -20 -49 -46t-53 -53t-45 -49h-190z" />
    <glyph glyph-name="uni01D2" unicode="&#x1d2;" horiz-adv-x="595" 
d="M253 -10q-97 0 -153.5 56t-56.5 155q0 72 19 136.5t56.5 114.5t93.5 78.5t131 28.5q98 0 154 -56t56 -158q0 -70 -18.5 -134t-56 -113.5t-93.5 -78.5t-132 -29zM270 120q34 0 60 33t40 85t14 109q0 37 -13.5 59.5t-43.5 22.5q-28 0 -49.5 -21t-36.5 -55.5t-22.5 -74.5
t-7.5 -79q0 -79 59 -79zM266 606q-15 34 -40 76.5t-46 71.5v12h112q17 -15 39.5 -39.5t37.5 -43.5q28 23 56.5 43.5t58.5 39.5h119v-12q-22 -20 -49 -46t-53 -53t-45 -49h-190z" />
    <glyph glyph-name="uni01D3" unicode="&#x1d3;" horiz-adv-x="696" 
d="M296 -10q-111 0 -171 56.5t-60 147.5q0 15 1.5 33.5t5.5 35.5l96 451h169l-95 -448q-8 -34 -8 -58q0 -36 19.5 -56t59.5 -20q55 0 84 33.5t44 106.5l94 442h169l-98 -459q-17 -81 -53.5 -140.5t-99 -92t-157.5 -32.5zM350 771q-15 34 -40 76.5t-46 71.5v12h112
q17 -15 39.5 -39.5t37.5 -43.5q28 23 56.5 43.5t58.5 39.5h119v-12q-22 -20 -49 -46t-53 -53t-45 -49h-190z" />
    <glyph glyph-name="uni01D4" unicode="&#x1d4;" horiz-adv-x="612" 
d="M193 -10q-73 0 -107.5 44.5t-34.5 112.5q0 23 3 51.5t9 56.5l62 294h166l-65 -310q-8 -32 -8 -64q0 -51 45 -51q38 0 68.5 49t48.5 130l52 246h166l-116 -549h-130l8 90h-5q-29 -48 -68 -74t-94 -26zM277 606q-15 34 -40 76.5t-46 71.5v12h112q17 -15 39.5 -39.5
t37.5 -43.5q28 23 56.5 43.5t58.5 39.5h119v-12q-22 -20 -49 -46t-53 -53t-45 -49h-190z" />
    <glyph glyph-name="uni01D5" unicode="&#x1d5;" horiz-adv-x="696" 
d="M296 -10q-111 0 -171 56.5t-60 147.5q0 15 1.5 33.5t5.5 35.5l96 451h169l-95 -448q-8 -34 -8 -58q0 -36 19.5 -56t59.5 -20q55 0 84 33.5t44 106.5l94 442h169l-98 -459q-17 -81 -53.5 -140.5t-99 -92t-157.5 -32.5zM317 943l21 103h322l-22 -103h-321zM355 773
q-29 0 -48.5 11.5t-19.5 41.5q0 40 21.5 59t59.5 19q25 0 46.5 -10.5t21.5 -41.5q0 -36 -18.5 -57.5t-62.5 -21.5zM556 773q-29 0 -48.5 11.5t-19.5 41.5q0 40 21.5 59t59.5 19q26 0 46.5 -10.5t20.5 -41.5q0 -36 -18.5 -57.5t-61.5 -21.5z" />
    <glyph glyph-name="uni01D6" unicode="&#x1d6;" horiz-adv-x="612" 
d="M193 -10q-73 0 -107.5 44.5t-34.5 112.5q0 23 3 51.5t9 56.5l62 294h166l-65 -310q-8 -32 -8 -64q0 -51 45 -51q38 0 68.5 49t48.5 130l52 246h166l-116 -549h-130l8 90h-5q-29 -48 -68 -74t-94 -26zM244 778l21 103h322l-22 -103h-321zM282 608q-29 0 -48.5 11.5
t-19.5 41.5q0 40 21.5 59t59.5 19q25 0 46.5 -10.5t21.5 -41.5q0 -36 -18.5 -57.5t-62.5 -21.5zM483 608q-29 0 -48.5 11.5t-19.5 41.5q0 40 21.5 59t59.5 19q26 0 46.5 -10.5t20.5 -41.5q0 -36 -18.5 -57.5t-61.5 -21.5z" />
    <glyph glyph-name="uni01D7" unicode="&#x1d7;" horiz-adv-x="696" 
d="M296 -10q-111 0 -171 56.5t-60 147.5q0 15 1.5 33.5t5.5 35.5l96 451h169l-95 -448q-8 -34 -8 -58q0 -36 19.5 -56t59.5 -20q55 0 84 33.5t44 106.5l94 442h169l-98 -459q-17 -81 -53.5 -140.5t-99 -92t-157.5 -32.5zM398 913v11q26 27 55 63.5t50 69.5h175v-8
q-15 -18 -46 -44t-65 -51t-60 -41h-109zM348 767q-28 0 -46.5 11t-18.5 41q0 38 20.5 57t57.5 19q25 0 45 -10.5t20 -41.5q0 -34 -18 -55t-60 -21zM552 767q-29 0 -47.5 11t-18.5 41q0 38 20.5 57t58.5 19q25 0 44.5 -10.5t19.5 -41.5q0 -34 -18 -55t-59 -21z" />
    <glyph glyph-name="uni01D8" unicode="&#x1d8;" horiz-adv-x="612" 
d="M193 -10q-73 0 -107.5 44.5t-34.5 112.5q0 23 3 51.5t9 56.5l62 294h166l-65 -310q-8 -32 -8 -64q0 -51 45 -51q38 0 68.5 49t48.5 130l52 246h166l-116 -549h-130l8 90h-5q-29 -48 -68 -74t-94 -26zM325 748v11q26 27 55 63.5t50 69.5h175v-8q-15 -18 -46 -44t-65 -51
t-60 -41h-109zM275 602q-28 0 -46.5 11t-18.5 41q0 38 20.5 57t57.5 19q25 0 45 -10.5t20 -41.5q0 -34 -18 -55t-60 -21zM479 602q-29 0 -47.5 11t-18.5 41q0 38 20.5 57t58.5 19q25 0 44.5 -10.5t19.5 -41.5q0 -34 -18 -55t-59 -21z" />
    <glyph glyph-name="uni01D9" unicode="&#x1d9;" horiz-adv-x="696" 
d="M296 -10q-111 0 -171 56.5t-60 147.5q0 15 1.5 33.5t5.5 35.5l96 451h169l-95 -448q-8 -34 -8 -58q0 -36 19.5 -56t59.5 -20q55 0 84 33.5t44 106.5l94 442h169l-98 -459q-17 -81 -53.5 -140.5t-99 -92t-157.5 -32.5zM391 931q-17 31 -42 67.5t-46 62.5v10h102
q17 -13 40 -35.5t39 -38.5q28 20 57 39t59 35h110v-10q-22 -17 -49.5 -40t-54 -46.5t-44.5 -43.5h-171zM354 773q-29 0 -48.5 11.5t-19.5 41.5q0 40 21.5 59t59.5 19q25 0 46.5 -10.5t21.5 -41.5q0 -36 -18.5 -57.5t-62.5 -21.5zM555 773q-29 0 -48.5 11.5t-19.5 41.5
q0 40 21.5 59t59.5 19q26 0 46.5 -10.5t20.5 -41.5q0 -36 -18.5 -57.5t-61.5 -21.5z" />
    <glyph glyph-name="uni01DA" unicode="&#x1da;" horiz-adv-x="612" 
d="M193 -10q-73 0 -107.5 44.5t-34.5 112.5q0 23 3 51.5t9 56.5l62 294h166l-65 -310q-8 -32 -8 -64q0 -51 45 -51q38 0 68.5 49t48.5 130l52 246h166l-116 -549h-130l8 90h-5q-29 -48 -68 -74t-94 -26zM318 766q-17 31 -42 67.5t-46 62.5v10h102q17 -13 40 -35.5t39 -38.5
q28 20 57 39t59 35h110v-10q-22 -17 -49.5 -40t-54 -46.5t-44.5 -43.5h-171zM281 608q-29 0 -48.5 11.5t-19.5 41.5q0 40 21.5 59t59.5 19q25 0 46.5 -10.5t21.5 -41.5q0 -36 -18.5 -57.5t-62.5 -21.5zM482 608q-29 0 -48.5 11.5t-19.5 41.5q0 40 21.5 59t59.5 19
q26 0 46.5 -10.5t20.5 -41.5q0 -36 -18.5 -57.5t-61.5 -21.5z" />
    <glyph glyph-name="uni01DB" unicode="&#x1db;" horiz-adv-x="696" 
d="M296 -10q-111 0 -171 56.5t-60 147.5q0 15 1.5 33.5t5.5 35.5l96 451h169l-95 -448q-8 -34 -8 -58q0 -36 19.5 -56t59.5 -20q55 0 84 33.5t44 106.5l94 442h169l-98 -459q-17 -81 -53.5 -140.5t-99 -92t-157.5 -32.5zM435 913q-21 17 -45.5 40.5t-46 48t-32.5 44.5v11
h164q10 -32 28 -68t36 -64v-12h-104zM349 767q-28 0 -46.5 11t-18.5 41q0 38 20.5 57t57.5 19q25 0 45 -10.5t20 -41.5q0 -34 -18 -55t-60 -21zM553 767q-29 0 -47 11t-18 41q0 76 78 76q25 0 45 -10.5t20 -41.5q0 -34 -18 -55t-60 -21z" />
    <glyph glyph-name="uni01DC" unicode="&#x1dc;" horiz-adv-x="612" 
d="M193 -10q-73 0 -107.5 44.5t-34.5 112.5q0 23 3 51.5t9 56.5l62 294h166l-65 -310q-8 -32 -8 -64q0 -51 45 -51q38 0 68.5 49t48.5 130l52 246h166l-116 -549h-130l8 90h-5q-29 -48 -68 -74t-94 -26zM362 748q-21 17 -45.5 40.5t-46 48t-32.5 44.5v11h164q10 -32 28 -68
t36 -64v-12h-104zM276 602q-28 0 -46.5 11t-18.5 41q0 38 20.5 57t57.5 19q25 0 45 -10.5t20 -41.5q0 -34 -18 -55t-60 -21zM480 602q-29 0 -47 11t-18 41q0 76 78 76q25 0 45 -10.5t20 -41.5q0 -34 -18 -55t-60 -21z" />
    <glyph glyph-name="uni01DD" unicode="&#x1dd;" horiz-adv-x="567" 
d="M214 -10q-92 0 -141.5 42t-49.5 109q0 89 74.5 142.5t231.5 53.5h27q1 5 1 8v7q0 40 -23 62.5t-66 22.5t-79 -11.5t-82 -33.5v122q43 21 89 33t111 12q100 0 158.5 -55t58.5 -159q0 -69 -19.5 -132.5t-58.5 -113.5t-97 -79.5t-135 -29.5zM228 106q25 0 48 17t39.5 45
t23.5 62h-19q-75 0 -106.5 -25.5t-31.5 -56.5q0 -42 46 -42z" />
    <glyph glyph-name="uni01DE" unicode="&#x1de;" horiz-adv-x="650" 
d="M-60 0l369 714h212l66 -714h-164l-8 153h-226l-73 -153h-176zM254 292h154l-10 194q-2 26 -3 53t0 54h-3q-8 -25 -18.5 -49.5t-23.5 -51.5zM301 943l21 103h322l-22 -103h-321zM339 773q-29 0 -48.5 11.5t-19.5 41.5q0 40 21.5 59t59.5 19q25 0 46.5 -10.5t21.5 -41.5
q0 -36 -18.5 -57.5t-62.5 -21.5zM540 773q-29 0 -48.5 11.5t-19.5 41.5q0 40 21.5 59t59.5 19q26 0 46.5 -10.5t20.5 -41.5q0 -36 -18.5 -57.5t-61.5 -21.5z" />
    <glyph glyph-name="uni01DF" unicode="&#x1df;" horiz-adv-x="600" 
d="M198 -10q-41 0 -76.5 20t-57 64.5t-21.5 119.5q0 59 16.5 123t48 119t78 89t106.5 34q50 0 81.5 -21.5t50.5 -57.5h4l27 69h131l-117 -549h-129l6 66h-4q-26 -34 -60 -55t-84 -21zM265 124q26 0 48.5 22t38.5 57t23 74q6 36 6 73q0 33 -14.5 54t-40.5 21
q-24 0 -44.5 -19.5t-36 -52t-24.5 -71.5t-9 -79q0 -79 53 -79zM241 778l21 103h322l-22 -103h-321zM279 608q-29 0 -48.5 11.5t-19.5 41.5q0 40 21.5 59t59.5 19q25 0 46.5 -10.5t21.5 -41.5q0 -36 -18.5 -57.5t-62.5 -21.5zM480 608q-29 0 -48.5 11.5t-19.5 41.5
q0 40 21.5 59t59.5 19q26 0 46.5 -10.5t20.5 -41.5q0 -36 -18.5 -57.5t-61.5 -21.5z" />
    <glyph glyph-name="uni01E0" unicode="&#x1e0;" horiz-adv-x="650" 
d="M-60 0l369 714h212l66 -714h-164l-8 153h-226l-73 -153h-176zM254 292h154l-10 194q-2 26 -3 53t0 54h-3q-8 -25 -18.5 -49.5t-23.5 -51.5zM292 960l22 103h321l-21 -103h-322zM429 776q-31 0 -52 12.5t-21 45.5q0 44 23.5 65t64.5 21q27 0 50 -12t23 -46
q0 -39 -20.5 -62.5t-67.5 -23.5z" />
    <glyph glyph-name="uni01E1" unicode="&#x1e1;" horiz-adv-x="600" 
d="M198 -10q-41 0 -76.5 20t-57 64.5t-21.5 119.5q0 59 16.5 123t48 119t78 89t106.5 34q50 0 81.5 -21.5t50.5 -57.5h4l27 69h131l-117 -549h-129l6 66h-4q-26 -34 -60 -55t-84 -21zM265 124q26 0 48.5 22t38.5 57t23 74q6 36 6 73q0 33 -14.5 54t-40.5 21
q-24 0 -44.5 -19.5t-36 -52t-24.5 -71.5t-9 -79q0 -79 53 -79zM238 781l22 104h321l-21 -104h-322zM376 604q-31 0 -51.5 12t-20.5 43q0 41 23 60.5t64 19.5q26 0 48 -11.5t22 -43.5q0 -36 -19 -58t-66 -22z" />
    <glyph glyph-name="uni01E2" unicode="&#x1e2;" horiz-adv-x="919" 
d="M-60 0l447 714h563l-29 -138h-242l-28 -137h226l-31 -138h-226l-34 -161h242l-29 -140h-410l32 153h-206l-96 -153h-179zM304 296h148l58 280h-36zM469 771l23 109h313l-23 -109h-313z" />
    <glyph glyph-name="uni01E3" unicode="&#x1e3;" horiz-adv-x="872" 
d="M196 -10q-65 0 -109 49t-44 155q0 62 16.5 126t48.5 118.5t78 87.5t105 33q49 0 78 -20t52 -59h4l28 69h96l-5 -45q23 25 60.5 40t78.5 15q77 0 121.5 -41.5t44.5 -109.5q0 -88 -74.5 -142t-231.5 -54h-27q-1 -6 -1 -14q0 -38 22 -61.5t72 -23.5q39 0 79 12.5t77 31.5
v-121q-38 -20 -81 -33t-98 -13q-96 0 -137 56l-12 -46h-100l6 66h-5q-26 -34 -58.5 -55t-83.5 -21zM533 320h19q75 0 106.5 25t31.5 56q0 42 -46 42q-25 0 -48 -17t-39.5 -45t-23.5 -61zM264 124q25 0 46 20t36.5 53t23.5 72q4 19 6 38t2 39q0 36 -14 57.5t-41 21.5
q-24 0 -44.5 -19.5t-35 -52t-23 -71.5t-8.5 -79q0 -41 14.5 -60t37.5 -19zM345 606l23 109h313l-23 -109h-313z" />
    <glyph glyph-name="uni01E4" unicode="&#x1e4;" horiz-adv-x="694" 
d="M322 -10q-123 0 -194.5 71.5t-71.5 209.5q0 89 26 170.5t78.5 145.5t130.5 101t183 37q118 0 209 -50l-64 -136q-34 19 -70.5 31.5t-79.5 12.5q-64 0 -110 -28.5t-75 -74t-43 -99t-14 -102.5q0 -85 33 -123t92 -38q20 0 36.5 3t34.5 7l8 38h-112l20 99h115l9 44h-122
l30 136h285l-38 -180h63l-21 -99h-63l-29 -137q-50 -17 -107.5 -28t-138.5 -11z" />
    <glyph glyph-name="uni01E5" unicode="&#x1e5;" horiz-adv-x="600" 
d="M191 -240q-61 0 -101.5 9t-76.5 24v122q38 -20 80.5 -31t89.5 -11q31 0 54 11.5t38 31.5h-115l17 78h131l8 40q4 14 10 33t11 33h-4q-23 -30 -56.5 -49t-82.5 -19q-40 0 -73.5 18.5t-53.5 60.5t-20 112q0 55 16.5 114t47.5 109.5t76 81.5t103 31q51 0 79.5 -20t54.5 -59
h4l27 69h131l-118 -555h73l-16 -78h-80q-36 -88 -102.5 -122t-151.5 -34zM273 160q27 0 47 18.5t33.5 48t20.5 62.5t7 62q0 33 -14 53.5t-40 20.5q-31 0 -55.5 -29t-39.5 -72.5t-15 -89.5q0 -74 56 -74z" />
    <glyph glyph-name="uni01E6" unicode="&#x1e6;" horiz-adv-x="694" 
d="M322 -10q-123 0 -194.5 71.5t-71.5 209.5q0 89 26 170.5t78.5 145.5t130.5 101t183 37q118 0 209 -50l-64 -136q-34 19 -70.5 31.5t-79.5 12.5q-64 0 -110 -28.5t-75 -74t-43 -99t-14 -102.5q0 -74 30 -110.5t94 -36.5q23 0 39 2t36 7l29 131h-122l30 137h286l-81 -380
q-50 -17 -107.5 -28t-138.5 -11zM371 771q-15 34 -40 76.5t-46 71.5v12h112q17 -15 39.5 -39.5t37.5 -43.5q28 23 56.5 43.5t58.5 39.5h119v-12q-22 -20 -49 -46t-53 -53t-45 -49h-190z" />
    <glyph glyph-name="uni01E7" unicode="&#x1e7;" horiz-adv-x="600" 
d="M191 -240q-61 0 -101.5 9t-76.5 24v141q38 -20 81 -31t90 -11q95 0 120 88l4 18q4 19 11 40t8 26h-4q-23 -29 -54 -50.5t-80 -21.5q-41 0 -74 20t-52.5 64.5t-19.5 116.5q0 60 16.5 124t48 119t77.5 89t105 34q51 0 79.5 -20t54.5 -59h4l27 69h131l-120 -562
q-18 -86 -57.5 -135.5t-95 -70.5t-122.5 -21zM268 124q27 0 48 21.5t35.5 55.5t22 72.5t7.5 72.5q0 36 -14 57.5t-40 21.5q-24 0 -45 -19.5t-36.5 -52t-24.5 -71.5t-9 -79q0 -79 56 -79zM270 606q-15 34 -40 76.5t-46 71.5v12h112q17 -15 39.5 -39.5t37.5 -43.5
q28 23 56.5 43.5t58.5 39.5h119v-12q-22 -20 -49 -46t-53 -53t-45 -49h-190z" />
    <glyph glyph-name="uni01E8" unicode="&#x1e8;" horiz-adv-x="639" 
d="M21 0l151 714h169l-71 -327l74 102l180 225h199l-281 -336l138 -378h-188l-95 286l-54 -31l-53 -255h-169zM345 771q-15 34 -40 76.5t-46 71.5v12h112q17 -15 39.5 -39.5t37.5 -43.5q28 23 56.5 43.5t58.5 39.5h119v-12q-22 -20 -49 -46t-53 -53t-45 -49h-190z" />
    <glyph glyph-name="uni01E9" unicode="&#x1e9;" horiz-adv-x="591" 
d="M15 0l160 760h166l-70 -332q-5 -26 -15 -59t-15 -49h4l207 229h190l-242 -248l137 -301h-187l-79 199l-55 -31l-35 -168h-166zM171 817q-15 34 -40 76.5t-46 71.5v12h112q17 -15 39.5 -39.5t37.5 -43.5q28 23 56.5 43.5t58.5 39.5h119v-12q-22 -20 -49 -46t-53 -53
t-45 -49h-190z" />
    <glyph glyph-name="uni01EA" unicode="&#x1ea;" horiz-adv-x="733" 
d="M325 -10q-133 0 -201 74.5t-68 198.5q0 84 23 166t70 149t119 107t170 40q130 0 197 -74t67 -197q0 -86 -22 -168.5t-68 -149t-117.5 -106.5t-169.5 -40zM339 131q53 0 97 41.5t69.5 113.5t25.5 165q0 61 -27.5 97t-79.5 36q-44 0 -80 -26.5t-62 -71.5t-40.5 -102.5
t-14.5 -119.5q0 -65 29 -99t83 -34zM296 -247q-55 0 -85 28t-30 71q0 50 29.5 84.5t76.5 63.5h109q-38 -30 -65.5 -58t-27.5 -63q0 -27 27 -27q15 0 27.5 3t25.5 7v-96q-19 -6 -39.5 -9.5t-47.5 -3.5z" />
    <glyph glyph-name="uni01EB" unicode="&#x1eb;" horiz-adv-x="595" 
d="M253 -10q-97 0 -153.5 56t-56.5 155q0 72 19 136.5t56.5 114.5t93.5 78.5t131 28.5q98 0 154 -56t56 -158q0 -70 -18.5 -134t-56 -113.5t-93.5 -78.5t-132 -29zM270 120q34 0 60 33t40 85t14 109q0 37 -13.5 59.5t-43.5 22.5q-28 0 -49.5 -21t-36.5 -55.5t-22.5 -74.5
t-7.5 -79q0 -79 59 -79zM216 -247q-55 0 -85 28t-30 71q0 50 29.5 84.5t76.5 63.5h109q-38 -30 -65.5 -58t-27.5 -63q0 -27 27 -27q15 0 27.5 3t25.5 7v-96q-19 -6 -39.5 -9.5t-47.5 -3.5z" />
    <glyph glyph-name="uni01EC" unicode="&#x1ec;" horiz-adv-x="733" 
d="M325 -10q-133 0 -201 74.5t-68 198.5q0 84 23 166t70 149t119 107t170 40q130 0 197 -74t67 -197q0 -86 -22 -168.5t-68 -149t-117.5 -106.5t-169.5 -40zM339 131q53 0 97 41.5t69.5 113.5t25.5 165q0 61 -27.5 97t-79.5 36q-44 0 -80 -26.5t-62 -71.5t-40.5 -102.5
t-14.5 -119.5q0 -65 29 -99t83 -34zM307 771l23 109h313l-23 -109h-313zM296 -247q-55 0 -85 28t-30 71q0 50 29.5 84.5t76.5 63.5h109q-38 -30 -65.5 -58t-27.5 -63q0 -27 27 -27q15 0 27.5 3t25.5 7v-96q-19 -6 -39.5 -9.5t-47.5 -3.5z" />
    <glyph glyph-name="uni01ED" unicode="&#x1ed;" horiz-adv-x="595" 
d="M253 -10q-97 0 -153.5 56t-56.5 155q0 72 19 136.5t56.5 114.5t93.5 78.5t131 28.5q98 0 154 -56t56 -158q0 -70 -18.5 -134t-56 -113.5t-93.5 -78.5t-132 -29zM270 120q34 0 60 33t40 85t14 109q0 37 -13.5 59.5t-43.5 22.5q-28 0 -49.5 -21t-36.5 -55.5t-22.5 -74.5
t-7.5 -79q0 -79 59 -79zM200 606l23 109h313l-23 -109h-313zM216 -247q-55 0 -85 28t-30 71q0 50 29.5 84.5t76.5 63.5h109q-38 -30 -65.5 -58t-27.5 -63q0 -27 27 -27q15 0 27.5 3t25.5 7v-96q-19 -6 -39.5 -9.5t-47.5 -3.5z" />
    <glyph glyph-name="uni01EE" unicode="&#x1ee;" horiz-adv-x="564" 
d="M194 -10q-59 0 -110 10t-85 29v142q35 -21 86 -34t93 -13q68 0 112 23.5t44 80.5q0 38 -27.5 59.5t-102.5 21.5h-71l24 106l177 160h-217l30 139h429l-23 -107l-210 -191q79 -13 120.5 -60.5t41.5 -125.5q0 -112 -80.5 -176t-230.5 -64zM263 771q-15 34 -40 76.5
t-46 71.5v12h112q17 -15 39.5 -39.5t37.5 -43.5q28 23 56.5 43.5t58.5 39.5h119v-12q-22 -20 -49 -46t-53 -53t-45 -49h-190z" />
    <glyph glyph-name="uni01EF" unicode="&#x1ef;" horiz-adv-x="565" 
d="M151 -241q-113 0 -193 41v145q45 -26 96.5 -38t86.5 -12q74 0 114 37.5t40 98.5q0 26 -12.5 49t-41.5 37.5t-80 14.5h-59l25 120l184 170h-227l27 127h432l-22 -106l-225 -201q87 -16 129 -70t42 -133q0 -89 -40 -151.5t-111 -95.5t-165 -33zM219 606q-15 34 -40 76.5
t-46 71.5v12h112q17 -15 39.5 -39.5t37.5 -43.5q28 23 56.5 43.5t58.5 39.5h119v-12q-22 -20 -49 -46t-53 -53t-45 -49h-190z" />
    <glyph glyph-name="uni01F0" unicode="&#x1f0;" horiz-adv-x="310" 
d="M-36 -240q-25 0 -50.5 3.5t-41.5 8.5v132q16 -5 29 -7t26 -2q30 0 53 18t32 60l122 576h167l-129 -602q-10 -50 -34 -92.5t-66 -68.5t-108 -26zM126 606q-15 34 -40 76.5t-46 71.5v12h112q17 -15 39.5 -39.5t37.5 -43.5q28 23 56.5 43.5t58.5 39.5h119v-12
q-22 -20 -49 -46t-53 -53t-45 -49h-190z" />
    <glyph glyph-name="uni01F1" unicode="&#x1f1;" horiz-adv-x="1218" 
d="M21 0l151 714h198q131 0 205 -69.5t74 -200.5q0 -137 -47.5 -236.5t-137.5 -153.5t-218 -54h-225zM219 140h44q69 0 117 39.5t73 106t25 149.5q0 71 -32 105.5t-88 34.5h-46zM643 0l21 107l360 468h-251l29 139h468l-22 -109l-364 -466h279l-29 -139h-491z" />
    <glyph glyph-name="uni01F2" unicode="&#x1f2;" horiz-adv-x="1149" 
d="M21 0l151 714h198q131 0 205 -69.5t74 -200.5q0 -137 -47.5 -236.5t-137.5 -153.5t-218 -54h-225zM219 140h44q69 0 117 39.5t73 106t25 149.5q0 71 -32 105.5t-88 34.5h-46zM658 0l19 97l265 323h-183l28 129h380l-23 -107l-260 -313h201l-28 -129h-399z" />
    <glyph glyph-name="uni01F3" unicode="&#x1f3;" horiz-adv-x="1067" 
d="M198 -10q-41 0 -76.5 20t-57 64.5t-21.5 120.5q0 59 16 122.5t48 118.5t78.5 89t106.5 34q47 0 73 -21.5t47 -55.5h4q0 4 1.5 24t4 45t7.5 47l34 162h167l-161 -760h-130l7 66h-4q-25 -32 -58.5 -54t-85.5 -22zM267 124q29 0 50.5 23t35.5 58.5t21 73.5t7 67
q0 36 -14 57.5t-40 21.5q-24 0 -44.5 -19.5t-36.5 -52t-25 -71.5t-9 -79q0 -79 55 -79zM577 0l19 97l265 323h-183l28 129h380l-23 -107l-260 -313h201l-28 -129h-399z" />
    <glyph glyph-name="uni01F4" unicode="&#x1f4;" horiz-adv-x="694" 
d="M322 -10q-123 0 -194.5 71.5t-71.5 209.5q0 89 26 170.5t78.5 145.5t130.5 101t183 37q118 0 209 -50l-64 -136q-34 19 -70.5 31.5t-79.5 12.5q-64 0 -110 -28.5t-75 -74t-43 -99t-14 -102.5q0 -74 30 -110.5t94 -36.5q23 0 39 2t36 7l29 131h-122l30 137h286l-81 -380
q-50 -17 -107.5 -28t-138.5 -11zM378 771v12q29 28 62.5 70.5t58.5 77.5h187v-8q-11 -14 -33.5 -34t-50.5 -42.5t-56 -42.5t-49 -33h-119z" />
    <glyph glyph-name="uni01F5" unicode="&#x1f5;" horiz-adv-x="600" 
d="M191 -240q-61 0 -101.5 9t-76.5 24v141q38 -20 81 -31t90 -11q95 0 120 88l4 18q4 19 11 40t8 26h-4q-23 -29 -54 -50.5t-80 -21.5q-41 0 -74 20t-52.5 64.5t-19.5 116.5q0 60 16.5 124t48 119t77.5 89t105 34q51 0 79.5 -20t54.5 -59h4l27 69h131l-120 -562
q-18 -86 -57.5 -135.5t-95 -70.5t-122.5 -21zM268 124q27 0 48 21.5t35.5 55.5t22 72.5t7.5 72.5q0 36 -14 57.5t-40 21.5q-24 0 -45 -19.5t-36.5 -52t-24.5 -71.5t-9 -79q0 -79 56 -79zM278 606v12q29 28 62.5 70.5t58.5 77.5h187v-8q-11 -14 -33.5 -34t-50.5 -42.5
t-56 -42.5t-49 -33h-119z" />
    <glyph glyph-name="uni01F6" unicode="&#x1f6;" horiz-adv-x="1033" 
d="M664 -10q-109 0 -169 49t-60 137q0 36 7 67l12 59h-202l-63 -302h-168l151 714h168l-57 -274h201l57 274h170l-98 -460q-4 -18 -6 -34t-2 -29q0 -35 19.5 -51.5t53.5 -16.5q45 0 70 31.5t39 98.5l63 296h166l-62 -297q-18 -84 -51.5 -142.5t-91.5 -89t-147 -30.5z" />
    <glyph glyph-name="uni01F7" unicode="&#x1f7;" horiz-adv-x="650" 
d="M-30 -240l203 954h138l-5 -87h4q28 36 69 66.5t101 30.5q82 0 131 -53.5t49 -145.5q0 -117 -55 -220t-159.5 -180.5t-252.5 -116.5l-53 -248h-170zM224 162q57 18 105.5 52.5t84.5 80t56 97.5t20 104q0 40 -21 62.5t-58 22.5q-38 0 -63.5 -20t-40.5 -53.5t-24 -74.5z" />
    <glyph glyph-name="uni01F8" unicode="&#x1f8;" horiz-adv-x="771" 
d="M21 0l151 714h197l154 -505h4q3 21 8 54.5t11 68.5t11 62l69 320h150l-151 -714h-192l-159 522h-5q-1 -8 -3.5 -31t-7 -53.5t-9.5 -62.5t-10 -57l-67 -318h-151zM481 771q-21 20 -44.5 46t-44 53t-31.5 51v10h170q7 -33 20.5 -71.5t31.5 -76.5v-12h-102z" />
    <glyph glyph-name="uni01F9" unicode="&#x1f9;" horiz-adv-x="612" 
d="M15 0l116 549h130l-8 -90h4q29 48 68.5 74t94.5 26q74 0 108.5 -44.5t34.5 -112.5q0 -46 -11 -99l-64 -303h-166l65 311q3 15 5.5 32t2.5 31q0 52 -45 52q-40 0 -70 -49.5t-47 -130.5l-52 -246h-166zM365 606q-21 20 -44.5 46t-44 53t-31.5 51v10h170q7 -33 20.5 -71.5
t31.5 -76.5v-12h-102z" />
    <glyph glyph-name="Aringacute" unicode="&#x1fa;" horiz-adv-x="650" 
d="M374 865v6q23 17 52 42t48 45h186v-5q-22 -17 -52.5 -34t-61 -31t-53.5 -23h-119zM-60 0l360 669q-9 21 -9 50q0 55 35 87.5t91 32.5q53 0 90 -32t37 -87q0 -26 -9.5 -47t-24.5 -35l77 -638h-164l-12 149h-222l-73 -149h-176zM416 675q19 0 32.5 12t13.5 32t-13 32.5
t-32 12.5t-32.5 -12.5t-13.5 -32.5t11.5 -32t33.5 -12zM255 287h150l-13 150q-2 19 -3.5 51t-1.5 62h-6q-9 -23 -19.5 -47.5t-16.5 -37.5z" />
    <glyph glyph-name="aringacute" unicode="&#x1fb;" horiz-adv-x="600" 
d="M331 860v6l35 28t38.5 33t30.5 31h187v-5q-22 -18 -54 -36t-63.5 -33.5t-54.5 -23.5h-119zM365 585q-55 0 -90 32.5t-35 87.5t35 87t90 32q53 0 90 -31.5t37 -86.5q0 -56 -36.5 -88.5t-90.5 -32.5zM365 660q19 0 32 12.5t13 32.5t-13 32t-32 12t-32 -12t-13 -32
t11.5 -32.5t33.5 -12.5zM198 -10q-41 0 -76.5 20t-57 64.5t-21.5 119.5q0 59 16.5 123t48 119t78 89t106.5 34q50 0 81.5 -21.5t50.5 -57.5h4l27 69h131l-117 -549h-129l6 66h-4q-26 -34 -60 -55t-84 -21zM265 124q26 0 48.5 22t38.5 57t23 74q6 36 6 73q0 33 -14.5 54
t-40.5 21q-24 0 -44.5 -19.5t-36 -52t-24.5 -71.5t-9 -79q0 -79 53 -79z" />
    <glyph glyph-name="AEacute" unicode="&#x1fc;" horiz-adv-x="919" 
d="M-60 0l447 714h563l-29 -138h-242l-28 -137h226l-31 -138h-226l-34 -161h242l-29 -140h-410l32 153h-206l-96 -153h-179zM304 296h148l58 280h-36zM476 771v12q29 28 62.5 70.5t58.5 77.5h187v-8q-11 -14 -33.5 -34t-50.5 -42.5t-56 -42.5t-49 -33h-119z" />
    <glyph glyph-name="aeacute" unicode="&#x1fd;" horiz-adv-x="872" 
d="M196 -10q-65 0 -109 49t-44 155q0 62 16.5 126t48.5 118.5t78 87.5t105 33q49 0 78 -20t52 -59h4l28 69h96l-5 -45q23 25 60.5 40t78.5 15q77 0 121.5 -41.5t44.5 -109.5q0 -88 -74.5 -142t-231.5 -54h-27q-1 -6 -1 -14q0 -38 22 -61.5t72 -23.5q39 0 79 12.5t77 31.5
v-121q-38 -20 -81 -33t-98 -13q-96 0 -137 56l-12 -46h-100l6 66h-5q-26 -34 -58.5 -55t-83.5 -21zM533 320h19q75 0 106.5 25t31.5 56q0 42 -46 42q-25 0 -48 -17t-39.5 -45t-23.5 -61zM264 124q25 0 46 20t36.5 53t23.5 72q4 19 6 38t2 39q0 36 -14 57.5t-41 21.5
q-24 0 -44.5 -19.5t-35 -52t-23 -71.5t-8.5 -79q0 -41 14.5 -60t37.5 -19zM418 606v12q29 28 62.5 70.5t58.5 77.5h187v-8q-11 -14 -33.5 -34t-50.5 -42.5t-56 -42.5t-49 -33h-119z" />
    <glyph glyph-name="Oslashacute" unicode="&#x1fe;" horiz-adv-x="733" 
d="M124 -42l-76 56l58 73q-26 35 -38 79t-12 97q0 84 23 166t69.5 149t117.5 107t168 40q46 0 83.5 -9.5t67.5 -26.5l48 60l75 -57l-53 -67q24 -34 35.5 -77t11.5 -94q0 -86 -22.5 -168.5t-68 -149t-116 -106.5t-166.5 -40q-91 0 -152 35zM227 236l261 331q-13 8 -29.5 13.5
t-37.5 5.5q-44 0 -80 -25t-62 -68.5t-40 -100t-14 -118.5q0 -9 0.5 -18.5t1.5 -19.5zM340 130q56 0 99.5 40t69 110t25.5 161v15.5t-1 15.5l-259 -326q26 -16 66 -16zM384 769v12q29 28 62.5 70.5t58.5 77.5h187v-8q-11 -14 -33.5 -34t-50.5 -42.5t-56 -42.5t-49 -33h-119z
" />
    <glyph glyph-name="oslashacute" unicode="&#x1ff;" horiz-adv-x="605" 
d="M92 -52l-66 53l57 68q-40 54 -40 132q0 72 19 136.5t57.5 114.5t95.5 78.5t132 28.5q35 0 63.5 -7t52.5 -20l42 50l67 -53l-45 -56q17 -25 26 -57.5t9 -70.5q0 -70 -18.5 -134t-56 -113.5t-94.5 -78.5t-133 -29q-32 0 -60.5 7t-52.5 18zM202 214l172 208q-8 5 -18.5 9
t-23.5 4q-40 0 -67 -28.5t-43 -74.5t-19 -97q-1 -5 -1 -10.5v-10.5zM276 115q38 0 64 26.5t42 70t20 93.5q0 5 0.5 10.5t0.5 10.5l-166 -202q14 -9 39 -9zM300 606v12q29 28 62.5 70.5t58.5 77.5h187v-8q-11 -14 -33.5 -34t-50.5 -42.5t-56 -42.5t-49 -33h-119z" />
    <glyph glyph-name="uni0200" unicode="&#x200;" horiz-adv-x="650" 
d="M-60 0l369 714h212l66 -714h-164l-8 153h-226l-73 -153h-176zM254 292h154l-10 194q-2 26 -3 53t0 54h-3q-8 -25 -18.5 -49.5t-23.5 -51.5zM473 771q-21 20 -44.5 46t-44 53t-32.5 51v10h153q7 -33 20 -71.5t31 -76.5v-12h-83zM282 771q-21 20 -44.5 46t-44 53t-32.5 51
v10h153q7 -33 20 -71.5t31 -76.5v-12h-83z" />
    <glyph glyph-name="uni0201" unicode="&#x201;" horiz-adv-x="600" 
d="M198 -10q-41 0 -76.5 20t-57 64.5t-21.5 119.5q0 59 16.5 123t48 119t78 89t106.5 34q50 0 81.5 -21.5t50.5 -57.5h4l27 69h131l-117 -549h-129l6 66h-4q-26 -34 -60 -55t-84 -21zM265 124q26 0 48.5 22t38.5 57t23 74q6 36 6 73q0 33 -14.5 54t-40.5 21
q-24 0 -44.5 -19.5t-36 -52t-24.5 -71.5t-9 -79q0 -79 53 -79zM412 606q-21 20 -44.5 46t-44 53t-32.5 51v10h153q7 -33 20 -71.5t31 -76.5v-12h-83zM221 606q-21 20 -44.5 46t-44 53t-32.5 51v10h153q7 -33 20 -71.5t31 -76.5v-12h-83z" />
    <glyph glyph-name="uni0202" unicode="&#x202;" horiz-adv-x="650" 
d="M-60 0l369 714h212l66 -714h-164l-8 153h-226l-73 -153h-176zM254 292h154l-10 194q-2 26 -3 53t0 54h-3q-8 -25 -18.5 -49.5t-23.5 -51.5zM250 771q14 83 63.5 127.5t142.5 44.5q86 0 126 -42t40 -100q0 -10 -1 -17.5t-3 -12.5h-95q0 62 -77 62q-35 0 -60.5 -12.5
t-35.5 -49.5h-100z" />
    <glyph glyph-name="uni0203" unicode="&#x203;" horiz-adv-x="600" 
d="M198 -10q-41 0 -76.5 20t-57 64.5t-21.5 119.5q0 59 16.5 123t48 119t78 89t106.5 34q50 0 81.5 -21.5t50.5 -57.5h4l27 69h131l-117 -549h-129l6 66h-4q-26 -34 -60 -55t-84 -21zM265 124q26 0 48.5 22t38.5 57t23 74q6 36 6 73q0 33 -14.5 54t-40.5 21
q-24 0 -44.5 -19.5t-36 -52t-24.5 -71.5t-9 -79q0 -79 53 -79zM189 606q14 83 63.5 127.5t142.5 44.5q86 0 126 -42t40 -100q0 -10 -1 -17.5t-3 -12.5h-95q0 62 -77 62q-35 0 -60.5 -12.5t-35.5 -49.5h-100z" />
    <glyph glyph-name="uni0204" unicode="&#x204;" horiz-adv-x="551" 
d="M21 0l151 714h411l-29 -138h-242l-28 -137h225l-30 -138h-226l-34 -161h242l-29 -140h-411zM429 771q-21 20 -44.5 46t-44 53t-32.5 51v10h153q7 -33 20 -71.5t31 -76.5v-12h-83zM238 771q-21 20 -44.5 46t-44 53t-32.5 51v10h153q7 -33 20 -71.5t31 -76.5v-12h-83z" />
    <glyph glyph-name="uni0205" unicode="&#x205;" horiz-adv-x="567" 
d="M260 -10q-100 0 -158.5 55t-58.5 160q0 68 19.5 131.5t58.5 113.5t97 79.5t135 29.5q92 0 141.5 -41.5t49.5 -109.5q0 -88 -75 -142t-232 -54h-26q-1 -6 -1 -15q0 -84 89 -84q43 0 79 10.5t82 33.5v-121q-44 -22 -90 -34t-110 -12zM228 320h18q75 0 107 25t32 56
q0 42 -46 42q-25 0 -48 -17t-40 -45t-23 -61zM401 606q-21 20 -44.5 46t-44 53t-32.5 51v10h153q7 -33 20 -71.5t31 -76.5v-12h-83zM210 606q-21 20 -44.5 46t-44 53t-32.5 51v10h153q7 -33 20 -71.5t31 -76.5v-12h-83z" />
    <glyph glyph-name="uni0206" unicode="&#x206;" horiz-adv-x="551" 
d="M21 0l151 714h411l-29 -138h-242l-28 -137h225l-30 -138h-226l-34 -161h242l-29 -140h-411zM207 771q14 83 63.5 127.5t142.5 44.5q86 0 126 -42t40 -100q0 -10 -1 -17.5t-3 -12.5h-95q0 62 -77 62q-35 0 -60.5 -12.5t-35.5 -49.5h-100z" />
    <glyph glyph-name="uni0207" unicode="&#x207;" horiz-adv-x="567" 
d="M260 -10q-100 0 -158.5 55t-58.5 160q0 68 19.5 131.5t58.5 113.5t97 79.5t135 29.5q92 0 141.5 -41.5t49.5 -109.5q0 -88 -75 -142t-232 -54h-26q-1 -6 -1 -15q0 -84 89 -84q43 0 79 10.5t82 33.5v-121q-44 -22 -90 -34t-110 -12zM228 320h18q75 0 107 25t32 56
q0 42 -46 42q-25 0 -48 -17t-40 -45t-23 -61zM164 606q14 83 63.5 127.5t142.5 44.5q86 0 126 -42t40 -100q0 -10 -1 -17.5t-3 -12.5h-95q0 62 -77 62q-35 0 -60.5 -12.5t-35.5 -49.5h-100z" />
    <glyph glyph-name="uni0208" unicode="&#x208;" horiz-adv-x="403" 
d="M-32 0l20 97l92 39l94 440l-76 41l20 97h340l-20 -97l-96 -41l-93 -440l77 -39l-20 -97h-338zM341 771q-21 20 -44.5 46t-44 53t-32.5 51v10h153q7 -33 20 -71.5t31 -76.5v-12h-83zM150 771q-21 20 -44.5 46t-44 53t-32.5 51v10h153q7 -33 20 -71.5t31 -76.5v-12h-83z
" />
    <glyph glyph-name="uni0209" unicode="&#x209;" horiz-adv-x="310" 
d="M15 0l116 549h167l-117 -549h-166zM268 606q-21 20 -44.5 46t-44 53t-32.5 51v10h153q7 -33 20 -71.5t31 -76.5v-12h-83zM77 606q-21 20 -44.5 46t-44 53t-32.5 51v10h153q7 -33 20 -71.5t31 -76.5v-12h-83z" />
    <glyph glyph-name="uni020A" unicode="&#x20a;" horiz-adv-x="403" 
d="M-32 0l20 97l92 39l94 440l-76 41l20 97h340l-20 -97l-96 -41l-93 -440l77 -39l-20 -97h-338zM119 771q14 83 63.5 127.5t142.5 44.5q86 0 126 -42t40 -100q0 -10 -1 -17.5t-3 -12.5h-95q0 62 -77 62q-35 0 -60.5 -12.5t-35.5 -49.5h-100z" />
    <glyph glyph-name="uni020B" unicode="&#x20b;" horiz-adv-x="310" 
d="M15 0l116 549h167l-117 -549h-166zM45 606q14 83 63.5 127.5t142.5 44.5q86 0 126 -42t40 -100q0 -10 -1 -17.5t-3 -12.5h-95q0 62 -77 62q-35 0 -60.5 -12.5t-35.5 -49.5h-100z" />
    <glyph glyph-name="uni020C" unicode="&#x20c;" horiz-adv-x="733" 
d="M325 -10q-133 0 -201 74.5t-68 198.5q0 84 23 166t70 149t119 107t170 40q130 0 197 -74t67 -197q0 -86 -22 -168.5t-68 -149t-117.5 -106.5t-169.5 -40zM339 131q53 0 97 41.5t69.5 113.5t25.5 165q0 61 -27.5 97t-79.5 36q-44 0 -80 -26.5t-62 -71.5t-40.5 -102.5
t-14.5 -119.5q0 -65 29 -99t83 -34zM511 771q-21 20 -44.5 46t-44 53t-32.5 51v10h153q7 -33 20 -71.5t31 -76.5v-12h-83zM320 771q-21 20 -44.5 46t-44 53t-32.5 51v10h153q7 -33 20 -71.5t31 -76.5v-12h-83z" />
    <glyph glyph-name="uni020D" unicode="&#x20d;" horiz-adv-x="595" 
d="M253 -10q-97 0 -153.5 56t-56.5 155q0 72 19 136.5t56.5 114.5t93.5 78.5t131 28.5q98 0 154 -56t56 -158q0 -70 -18.5 -134t-56 -113.5t-93.5 -78.5t-132 -29zM270 120q34 0 60 33t40 85t14 109q0 37 -13.5 59.5t-43.5 22.5q-28 0 -49.5 -21t-36.5 -55.5t-22.5 -74.5
t-7.5 -79q0 -79 59 -79zM404 606q-21 20 -44.5 46t-44 53t-32.5 51v10h153q7 -33 20 -71.5t31 -76.5v-12h-83zM213 606q-21 20 -44.5 46t-44 53t-32.5 51v10h153q7 -33 20 -71.5t31 -76.5v-12h-83z" />
    <glyph glyph-name="uni020E" unicode="&#x20e;" horiz-adv-x="733" 
d="M325 -10q-133 0 -201 74.5t-68 198.5q0 84 23 166t70 149t119 107t170 40q130 0 197 -74t67 -197q0 -86 -22 -168.5t-68 -149t-117.5 -106.5t-169.5 -40zM339 131q53 0 97 41.5t69.5 113.5t25.5 165q0 61 -27.5 97t-79.5 36q-44 0 -80 -26.5t-62 -71.5t-40.5 -102.5
t-14.5 -119.5q0 -65 29 -99t83 -34zM289 771q14 83 63.5 127.5t142.5 44.5q86 0 126 -42t40 -100q0 -10 -1 -17.5t-3 -12.5h-95q0 62 -77 62q-35 0 -60.5 -12.5t-35.5 -49.5h-100z" />
    <glyph glyph-name="uni020F" unicode="&#x20f;" horiz-adv-x="595" 
d="M253 -10q-97 0 -153.5 56t-56.5 155q0 72 19 136.5t56.5 114.5t93.5 78.5t131 28.5q98 0 154 -56t56 -158q0 -70 -18.5 -134t-56 -113.5t-93.5 -78.5t-132 -29zM270 120q34 0 60 33t40 85t14 109q0 37 -13.5 59.5t-43.5 22.5q-28 0 -49.5 -21t-36.5 -55.5t-22.5 -74.5
t-7.5 -79q0 -79 59 -79zM181 606q14 83 63.5 127.5t142.5 44.5q86 0 126 -42t40 -100q0 -10 -1 -17.5t-3 -12.5h-95q0 62 -77 62q-35 0 -60.5 -12.5t-35.5 -49.5h-100z" />
    <glyph glyph-name="uni0210" unicode="&#x210;" horiz-adv-x="628" 
d="M21 0l151 714h182q115 0 178.5 -47.5t63.5 -148.5q0 -60 -21 -103.5t-55 -71t-72 -42.5l128 -301h-184l-98 268h-48l-56 -268h-169zM275 401h32q52 0 85.5 25.5t33.5 81.5q0 33 -19 52.5t-63 19.5h-32zM460 771q-21 20 -44.5 46t-44 53t-32.5 51v10h153q7 -33 20 -71.5
t31 -76.5v-12h-83zM269 771q-21 20 -44.5 46t-44 53t-32.5 51v10h153q7 -33 20 -71.5t31 -76.5v-12h-83z" />
    <glyph glyph-name="uni0211" unicode="&#x211;" horiz-adv-x="428" 
d="M15 0l116 549h130l-9 -97h4q34 56 74 81.5t94 25.5q26 0 44 -4l-36 -163q-10 4 -24 6.5t-31 2.5q-49 0 -87.5 -37.5t-56.5 -119.5l-52 -244h-166zM352 606q-21 20 -44.5 46t-44 53t-32.5 51v10h153q7 -33 20 -71.5t31 -76.5v-12h-83zM161 606q-21 20 -44.5 46t-44 53
t-32.5 51v10h153q7 -33 20 -71.5t31 -76.5v-12h-83z" />
    <glyph glyph-name="uni0212" unicode="&#x212;" horiz-adv-x="628" 
d="M21 0l151 714h182q115 0 178.5 -47.5t63.5 -148.5q0 -60 -21 -103.5t-55 -71t-72 -42.5l128 -301h-184l-98 268h-48l-56 -268h-169zM275 401h32q52 0 85.5 25.5t33.5 81.5q0 33 -19 52.5t-63 19.5h-32zM237 771q14 83 63.5 127.5t142.5 44.5q86 0 126 -42t40 -100
q0 -10 -1 -17.5t-3 -12.5h-95q0 62 -77 62q-35 0 -60.5 -12.5t-35.5 -49.5h-100z" />
    <glyph glyph-name="uni0213" unicode="&#x213;" horiz-adv-x="428" 
d="M15 0l116 549h130l-9 -97h4q34 56 74 81.5t94 25.5q26 0 44 -4l-36 -163q-10 4 -24 6.5t-31 2.5q-49 0 -87.5 -37.5t-56.5 -119.5l-52 -244h-166zM129 606q14 83 63.5 127.5t142.5 44.5q86 0 126 -42t40 -100q0 -10 -1 -17.5t-3 -12.5h-95q0 62 -77 62q-35 0 -60.5 -12.5
t-35.5 -49.5h-100z" />
    <glyph glyph-name="uni0214" unicode="&#x214;" horiz-adv-x="696" 
d="M296 -10q-111 0 -171 56.5t-60 147.5q0 15 1.5 33.5t5.5 35.5l96 451h169l-95 -448q-8 -34 -8 -58q0 -36 19.5 -56t59.5 -20q55 0 84 33.5t44 106.5l94 442h169l-98 -459q-17 -81 -53.5 -140.5t-99 -92t-157.5 -32.5zM488 771q-21 20 -44.5 46t-44 53t-32.5 51v10h153
q7 -33 20 -71.5t31 -76.5v-12h-83zM297 771q-21 20 -44.5 46t-44 53t-32.5 51v10h153q7 -33 20 -71.5t31 -76.5v-12h-83z" />
    <glyph glyph-name="uni0215" unicode="&#x215;" horiz-adv-x="612" 
d="M193 -10q-73 0 -107.5 44.5t-34.5 112.5q0 23 3 51.5t9 56.5l62 294h166l-65 -310q-8 -32 -8 -64q0 -51 45 -51q38 0 68.5 49t48.5 130l52 246h166l-116 -549h-130l8 90h-5q-29 -48 -68 -74t-94 -26zM415 606q-21 20 -44.5 46t-44 53t-32.5 51v10h153q7 -33 20 -71.5
t31 -76.5v-12h-83zM224 606q-21 20 -44.5 46t-44 53t-32.5 51v10h153q7 -33 20 -71.5t31 -76.5v-12h-83z" />
    <glyph glyph-name="uni0216" unicode="&#x216;" horiz-adv-x="696" 
d="M296 -10q-111 0 -171 56.5t-60 147.5q0 15 1.5 33.5t5.5 35.5l96 451h169l-95 -448q-8 -34 -8 -58q0 -36 19.5 -56t59.5 -20q55 0 84 33.5t44 106.5l94 442h169l-98 -459q-17 -81 -53.5 -140.5t-99 -92t-157.5 -32.5zM266 771q14 83 63.5 127.5t142.5 44.5q86 0 126 -42
t40 -100q0 -10 -1 -17.5t-3 -12.5h-95q0 62 -77 62q-35 0 -60.5 -12.5t-35.5 -49.5h-100z" />
    <glyph glyph-name="uni0217" unicode="&#x217;" horiz-adv-x="612" 
d="M193 -10q-73 0 -107.5 44.5t-34.5 112.5q0 23 3 51.5t9 56.5l62 294h166l-65 -310q-8 -32 -8 -64q0 -51 45 -51q38 0 68.5 49t48.5 130l52 246h166l-116 -549h-130l8 90h-5q-29 -48 -68 -74t-94 -26zM193 606q14 83 63.5 127.5t142.5 44.5q86 0 126 -42t40 -100
q0 -10 -1 -17.5t-3 -12.5h-95q0 62 -77 62q-35 0 -60.5 -12.5t-35.5 -49.5h-100z" />
    <glyph glyph-name="uni0218" unicode="&#x218;" horiz-adv-x="538" 
d="M199 -10q-53 0 -99.5 12t-79.5 33v151q42 -24 89.5 -40t92.5 -16q44 0 70.5 17t26.5 52t-24 57.5t-60 49.5q-47 36 -81.5 82.5t-34.5 116.5q0 64 31 113.5t87 77.5t131 28q112 0 201 -50l-59 -128q-36 17 -72 28t-69 11q-41 0 -60.5 -20t-19.5 -48q0 -31 20 -53t64 -53
q59 -41 87.5 -88t28.5 -108q0 -73 -34 -123.5t-95 -76t-141 -25.5zM70 -221v13q13 31 30 73t28 74h156v-10q-21 -36 -50.5 -74.5t-62.5 -75.5h-101z" />
    <glyph glyph-name="uni0219" unicode="&#x219;" horiz-adv-x="486" 
d="M181 -10q-104 0 -168 32v135q79 -44 159 -44q26 0 52 10.5t26 36.5q0 12 -6 22.5t-23 23t-50 30.5q-52 28 -77.5 62t-25.5 87q0 82 55 128t162 46q50 0 94.5 -11.5t86.5 -37.5l-53 -113q-29 18 -62 30.5t-64 12.5q-21 0 -35.5 -10t-14.5 -30q0 -16 15.5 -29t54.5 -33
q53 -26 82.5 -62.5t29.5 -89.5q0 -98 -64.5 -147t-173.5 -49zM48 -221v13q13 31 30 73t28 74h156v-10q-21 -36 -50.5 -74.5t-62.5 -75.5h-101z" />
    <glyph glyph-name="uni021A" unicode="&#x21a;" horiz-adv-x="541" 
d="M123 0l120 573h-164l30 141h498l-31 -141h-164l-121 -573h-168zM75 -221v13q13 31 30 73t28 74h156v-10q-21 -36 -50.5 -74.5t-62.5 -75.5h-101z" />
    <glyph glyph-name="uni021B" unicode="&#x21b;" horiz-adv-x="432" 
d="M200 -10q-68 0 -106 29t-38 100q0 16 2.5 35.5t5.5 36.5l50 232h-75l17 82l100 42l66 116h109l-24 -114h140l-28 -126h-139l-49 -228q-5 -23 -5 -37q0 -18 10 -26t27 -8q19 0 40 5.5t44 14.5v-125q-27 -13 -64 -21t-83 -8zM52 -221v13q13 31 30 73t28 74h156v-10
q-21 -36 -50.5 -74.5t-62.5 -75.5h-101z" />
    <glyph glyph-name="uni021C" unicode="&#x21c;" horiz-adv-x="633" 
d="M-45 -180l31 148q88 18 164.5 40.5t134 52t89.5 70t32 95.5q0 28 -12 48t-34 34q-40 -14 -85.5 -25t-94.5 -22v127q83 20 145 38t96.5 42t34.5 62q0 30 -23.5 43t-65.5 13q-49 0 -102 -16t-101 -41l-48 116q68 40 142 59.5t152 19.5q101 0 159.5 -48t58.5 -123
q0 -65 -35 -109.5t-93 -75.5q31 -22 54 -56t23 -86q0 -74 -34 -131.5t-94 -101t-139 -76t-169.5 -56t-185.5 -41.5z" />
    <glyph glyph-name="uni021D" unicode="&#x21d;" horiz-adv-x="527" 
d="M-67 -240l29 138q109 20 184 45t114.5 62t39.5 94q0 43 -28 70q-32 -11 -68 -21t-74 -18v119q112 26 166.5 53t54.5 74q0 26 -19.5 37t-53.5 11q-42 0 -83 -10.5t-79 -24.5l-26 121q52 23 106.5 35.5t111.5 12.5q95 0 150 -41t55 -115q0 -59 -31 -100t-82 -73
q28 -20 46 -52t18 -76q0 -68 -30.5 -118.5t-83.5 -86.5t-121.5 -61t-144 -43t-151.5 -32z" />
    <glyph glyph-name="uni021E" unicode="&#x21e;" horiz-adv-x="706" 
d="M21 0l151 714h169l-57 -273h202l57 273h168l-151 -714h-168l63 300h-202l-63 -300h-169zM356 771q-15 34 -40 76.5t-46 71.5v12h112q17 -15 39.5 -39.5t37.5 -43.5q28 23 56.5 43.5t58.5 39.5h119v-12q-22 -20 -49 -46t-53 -53t-45 -49h-190z" />
    <glyph glyph-name="uni021F" unicode="&#x21f;" horiz-adv-x="612" 
d="M15 0l161 760h166l-27 -127q-6 -27 -15 -58.5t-16.5 -56.5t-11.5 -33h4q28 36 63 55t81 19q74 0 108.5 -44.5t34.5 -112.5q0 -46 -11 -99l-64 -303h-166l65 311q3 15 5.5 32t2.5 31q0 52 -45 52q-40 0 -70 -49t-47 -131l-52 -246h-166zM175 817q-15 34 -40 76.5t-46 71.5
v12h112q17 -15 39.5 -39.5t37.5 -43.5q28 23 56.5 43.5t58.5 39.5h119v-12q-22 -20 -49 -46t-53 -53t-45 -49h-190z" />
    <glyph glyph-name="uni0220" unicode="&#x220;" horiz-adv-x="745" 
d="M381 -240l142 660q5 26 8.5 47.5t3.5 39.5q0 37 -18.5 58.5t-56.5 21.5q-47 0 -86.5 -32t-68 -85.5t-42.5 -120.5l-74 -349h-168l151 714h141l-12 -115h4q41 56 92.5 91t124.5 35q85 0 133.5 -53.5t48.5 -139.5q0 -22 -2.5 -45.5t-8.5 -51.5l-142 -675h-170z" />
    <glyph glyph-name="uni0221" unicode="&#x221;" horiz-adv-x="746" 
d="M523 -79l-86 19q5 20 11 39l12 38q-28 12 -48.5 31t-31.5 46h-4q-68 -104 -175 -104q-43 0 -78.5 20t-57.5 64.5t-22 120.5q0 59 16 122.5t48 118.5t78.5 89t106.5 34q47 0 73 -21.5t47 -55.5h4q0 16 3 50t10 66l34 162h167l-111 -525q-3 -17 -5.5 -35t-2.5 -32
q0 -16 4 -28q31 50 74 78.5t107 28.5q63 0 92 -33t29 -78q0 -68 -52 -107t-150 -39q-18 0 -36 1t-35 3q-5 -17 -10.5 -35.5t-10.5 -37.5zM267 124q29 0 50.5 23t35.5 58.5t21 73.5t7 67q0 36 -14 57.5t-40 21.5q-24 0 -44.5 -19.5t-36.5 -52t-25 -71.5t-9 -79q0 -79 55 -79z
M633 86q73 0 73 39q0 27 -36 27q-52 0 -87 -63q23 -3 50 -3z" />
    <glyph glyph-name="uni0222" unicode="&#x222;" horiz-adv-x="780" 
d="M347 -35q-105 0 -174 30.5t-103 84t-34 123.5q0 95 46.5 157t133.5 97q-37 19 -53.5 53t-16.5 71q0 15 2 31t7 37l14 65h165l-12 -63q-2 -13 -3.5 -24t-1.5 -25q0 -40 27.5 -67t87.5 -27q74 0 113 35t52 98l15 73h170l-15 -71q-14 -69 -47.5 -124t-98.5 -86
q49 -35 69 -76t20 -93q0 -149 -96.5 -224t-266.5 -75zM359 104q90 0 135 42t45 115q0 47 -33.5 77t-110.5 30q-82 0 -134.5 -37.5t-52.5 -113.5q0 -53 39 -83t112 -30z" />
    <glyph glyph-name="uni0223" unicode="&#x223;" horiz-adv-x="646" 
d="M292 -10q-114 0 -182.5 58.5t-68.5 164.5q0 103 50.5 167t132.5 86q-33 20 -51.5 54t-18.5 79q0 19 2 39.5t7 39.5l18 82h164l-20 -92q-5 -22 -7.5 -39.5t-2.5 -33.5q0 -34 16.5 -52.5t47.5 -18.5q48 0 68 37t34 106l19 93h167l-22 -111q-15 -73 -50 -123.5t-101 -74.5
q45 -25 72 -69t27 -108q0 -54 -17 -105t-53 -91t-93 -64t-138 -24zM300 122q44 0 72 25t41 65.5t13 87.5q0 43 -23 67.5t-64 24.5q-37 0 -62 -16.5t-40.5 -43t-22.5 -55.5t-7 -55q0 -47 24.5 -73.5t68.5 -26.5z" />
    <glyph glyph-name="uni0224" unicode="&#x224;" horiz-adv-x="537" 
d="M274 -238q-24 0 -44 3.5t-37 9.5l1 112q20 -9 48 -9q25 0 38.5 15t20.5 43l14 64h-352l21 107l360 468h-251l29 139h468l-22 -109l-364 -466h279l-42 -199q-20 -96 -58.5 -137t-108.5 -41z" />
    <glyph glyph-name="uni0225" unicode="&#x225;" horiz-adv-x="469" 
d="M199 -235q-24 0 -43 3.5t-35 9.5v113q9 -4 22 -6.5t26 -2.5q46 0 57 56l13 62h-261l19 97l265 323h-183l28 129h380l-23 -107l-260 -313h201l-40 -188q-21 -97 -60 -136.5t-106 -39.5z" />
    <glyph glyph-name="uni0226" unicode="&#x226;" horiz-adv-x="650" 
d="M-60 0l369 714h212l66 -714h-164l-8 153h-226l-73 -153h-176zM254 292h154l-10 194q-2 26 -3 53t0 54h-3q-8 -25 -18.5 -49.5t-23.5 -51.5zM435 775q-35 0 -59 14t-24 50q0 48 26 71t73 23q31 0 56.5 -13t25.5 -51q0 -41 -22.5 -67.5t-75.5 -26.5z" />
    <glyph glyph-name="uni0227" unicode="&#x227;" horiz-adv-x="600" 
d="M198 -10q-41 0 -76.5 20t-57 64.5t-21.5 119.5q0 59 16.5 123t48 119t78 89t106.5 34q50 0 81.5 -21.5t50.5 -57.5h4l27 69h131l-117 -549h-129l6 66h-4q-26 -34 -60 -55t-84 -21zM265 124q26 0 48.5 22t38.5 57t23 74q6 36 6 73q0 33 -14.5 54t-40.5 21
q-24 0 -44.5 -19.5t-36 -52t-24.5 -71.5t-9 -79q0 -79 53 -79zM374 610q-35 0 -59 14t-24 50q0 48 26 71t73 23q31 0 56.5 -13t25.5 -51q0 -41 -22.5 -67.5t-75.5 -26.5z" />
    <glyph glyph-name="uni0228" unicode="&#x228;" horiz-adv-x="551" 
d="M21 0l151 714h411l-29 -138h-242l-28 -137h225l-30 -138h-226l-34 -161h242l-29 -140h-411zM204 -240q-26 0 -47.5 4t-35.5 8v91q13 -5 33.5 -8.5t33.5 -3.5q42 0 42 32q0 16 -14.5 27.5t-55.5 18.5l42 71h95l-16 -28q33 -9 55.5 -30t22.5 -61q0 -54 -38.5 -87.5
t-116.5 -33.5z" />
    <glyph glyph-name="uni0229" unicode="&#x229;" horiz-adv-x="567" 
d="M260 -10q-100 0 -158.5 55t-58.5 160q0 68 19.5 131.5t58.5 113.5t97 79.5t135 29.5q92 0 141.5 -41.5t49.5 -109.5q0 -88 -75 -142t-232 -54h-26q-1 -6 -1 -15q0 -84 89 -84q43 0 79 10.5t82 33.5v-121q-44 -22 -90 -34t-110 -12zM228 320h18q75 0 107 25t32 56
q0 42 -46 42q-25 0 -48 -17t-40 -45t-23 -61zM202 -240q-26 0 -47.5 4t-35.5 8v91q13 -5 33.5 -8.5t33.5 -3.5q42 0 42 32q0 16 -14.5 27.5t-55.5 18.5l42 71h95l-16 -28q33 -9 55.5 -30t22.5 -61q0 -54 -38.5 -87.5t-116.5 -33.5z" />
    <glyph glyph-name="uni022A" unicode="&#x22a;" horiz-adv-x="733" 
d="M325 -10q-133 0 -201 74.5t-68 198.5q0 84 23 166t70 149t119 107t170 40q130 0 197 -74t67 -197q0 -86 -22 -168.5t-68 -149t-117.5 -106.5t-169.5 -40zM339 131q53 0 97 41.5t69.5 113.5t25.5 165q0 61 -27.5 97t-79.5 36q-44 0 -80 -26.5t-62 -71.5t-40.5 -102.5
t-14.5 -119.5q0 -65 29 -99t83 -34zM340 943l21 103h322l-22 -103h-321zM378 773q-29 0 -48.5 11.5t-19.5 41.5q0 40 21.5 59t59.5 19q25 0 46.5 -10.5t21.5 -41.5q0 -36 -18.5 -57.5t-62.5 -21.5zM579 773q-29 0 -48.5 11.5t-19.5 41.5q0 40 21.5 59t59.5 19
q26 0 46.5 -10.5t20.5 -41.5q0 -36 -18.5 -57.5t-61.5 -21.5z" />
    <glyph glyph-name="uni022B" unicode="&#x22b;" horiz-adv-x="595" 
d="M253 -10q-97 0 -153.5 56t-56.5 155q0 72 19 136.5t56.5 114.5t93.5 78.5t131 28.5q98 0 154 -56t56 -158q0 -70 -18.5 -134t-56 -113.5t-93.5 -78.5t-132 -29zM270 120q34 0 60 33t40 85t14 109q0 37 -13.5 59.5t-43.5 22.5q-28 0 -49.5 -21t-36.5 -55.5t-22.5 -74.5
t-7.5 -79q0 -79 59 -79zM232 778l21 103h322l-22 -103h-321zM270 608q-29 0 -48.5 11.5t-19.5 41.5q0 40 21.5 59t59.5 19q25 0 46.5 -10.5t21.5 -41.5q0 -36 -18.5 -57.5t-62.5 -21.5zM471 608q-29 0 -48.5 11.5t-19.5 41.5q0 40 21.5 59t59.5 19q26 0 46.5 -10.5
t20.5 -41.5q0 -36 -18.5 -57.5t-61.5 -21.5z" />
    <glyph glyph-name="uni022C" unicode="&#x22c;" horiz-adv-x="733" 
d="M325 -10q-133 0 -201 74.5t-68 198.5q0 84 23 166t70 149t119 107t170 40q130 0 197 -74t67 -197q0 -86 -22 -168.5t-68 -149t-117.5 -106.5t-169.5 -40zM339 131q53 0 97 41.5t69.5 113.5t25.5 165q0 61 -27.5 97t-79.5 36q-44 0 -80 -26.5t-62 -71.5t-40.5 -102.5
t-14.5 -119.5q0 -65 29 -99t83 -34zM334 938l22 103h321l-21 -103h-322zM275 769q14 71 50.5 103.5t87.5 32.5q29 0 52 -11t42.5 -21.5t40.5 -10.5q18 0 31 11.5t21 31.5h83q-15 -74 -51 -104.5t-88 -30.5q-29 0 -52 10.5t-43 21t-40 10.5q-17 0 -30.5 -12.5t-18.5 -30.5
h-85z" />
    <glyph glyph-name="uni022D" unicode="&#x22d;" horiz-adv-x="595" 
d="M253 -10q-97 0 -153.5 56t-56.5 155q0 72 19 136.5t56.5 114.5t93.5 78.5t131 28.5q98 0 154 -56t56 -158q0 -70 -18.5 -134t-56 -113.5t-93.5 -78.5t-132 -29zM270 120q34 0 60 33t40 85t14 109q0 37 -13.5 59.5t-43.5 22.5q-28 0 -49.5 -21t-36.5 -55.5t-22.5 -74.5
t-7.5 -79q0 -79 59 -79zM227 773l22 103h321l-21 -103h-322zM168 604q14 71 50.5 103.5t87.5 32.5q29 0 52 -11t42.5 -21.5t40.5 -10.5q18 0 31 11.5t21 31.5h83q-15 -74 -51 -104.5t-88 -30.5q-29 0 -52 10.5t-43 21t-40 10.5q-17 0 -30.5 -12.5t-18.5 -30.5h-85z" />
    <glyph glyph-name="uni022E" unicode="&#x22e;" horiz-adv-x="733" 
d="M325 -10q-133 0 -201 74.5t-68 198.5q0 84 23 166t70 149t119 107t170 40q130 0 197 -74t67 -197q0 -86 -22 -168.5t-68 -149t-117.5 -106.5t-169.5 -40zM339 131q53 0 97 41.5t69.5 113.5t25.5 165q0 61 -27.5 97t-79.5 36q-44 0 -80 -26.5t-62 -71.5t-40.5 -102.5
t-14.5 -119.5q0 -65 29 -99t83 -34zM474 775q-35 0 -59 14t-24 50q0 48 26 71t73 23q31 0 56.5 -13t25.5 -51q0 -41 -22.5 -67.5t-75.5 -26.5z" />
    <glyph glyph-name="uni022F" unicode="&#x22f;" horiz-adv-x="595" 
d="M253 -10q-97 0 -153.5 56t-56.5 155q0 72 19 136.5t56.5 114.5t93.5 78.5t131 28.5q98 0 154 -56t56 -158q0 -70 -18.5 -134t-56 -113.5t-93.5 -78.5t-132 -29zM270 120q34 0 60 33t40 85t14 109q0 37 -13.5 59.5t-43.5 22.5q-28 0 -49.5 -21t-36.5 -55.5t-22.5 -74.5
t-7.5 -79q0 -79 59 -79zM366 610q-35 0 -59 14t-24 50q0 48 26 71t73 23q31 0 56.5 -13t25.5 -51q0 -41 -22.5 -67.5t-75.5 -26.5z" />
    <glyph glyph-name="uni0230" unicode="&#x230;" horiz-adv-x="733" 
d="M325 -10q-133 0 -201 74.5t-68 198.5q0 84 23 166t70 149t119 107t170 40q130 0 197 -74t67 -197q0 -86 -22 -168.5t-68 -149t-117.5 -106.5t-169.5 -40zM339 131q53 0 97 41.5t69.5 113.5t25.5 165q0 61 -27.5 97t-79.5 36q-44 0 -80 -26.5t-62 -71.5t-40.5 -102.5
t-14.5 -119.5q0 -65 29 -99t83 -34zM331 960l22 103h321l-21 -103h-322zM468 776q-31 0 -52 12.5t-21 45.5q0 44 23.5 65t64.5 21q27 0 50 -12t23 -46q0 -39 -20.5 -62.5t-67.5 -23.5z" />
    <glyph glyph-name="uni0231" unicode="&#x231;" horiz-adv-x="595" 
d="M253 -10q-97 0 -153.5 56t-56.5 155q0 72 19 136.5t56.5 114.5t93.5 78.5t131 28.5q98 0 154 -56t56 -158q0 -70 -18.5 -134t-56 -113.5t-93.5 -78.5t-132 -29zM270 120q34 0 60 33t40 85t14 109q0 37 -13.5 59.5t-43.5 22.5q-28 0 -49.5 -21t-36.5 -55.5t-22.5 -74.5
t-7.5 -79q0 -79 59 -79zM229 781l22 104h321l-21 -104h-322zM367 604q-31 0 -51.5 12t-20.5 43q0 41 23 60.5t64 19.5q26 0 48 -11.5t22 -43.5q0 -36 -19 -58t-66 -22z" />
    <glyph glyph-name="uni0232" unicode="&#x232;" horiz-adv-x="582" 
d="M143 0l58 275l-115 439h173l54 -278l169 278h188l-301 -439l-58 -275h-168zM218 771l23 109h313l-23 -109h-313z" />
    <glyph glyph-name="uni0233" unicode="&#x233;" horiz-adv-x="531" 
d="M7 -240q-27 0 -44.5 2.5t-28.5 6.5v132q10 -2 24 -4t31 -2q45 0 73.5 22.5t50.5 63.5l12 22l-80 546h166l23 -253q3 -30 3.5 -62t0.5 -58h4q8 23 19 54t25 61l119 258h179l-329 -623q-45 -85 -105 -125.5t-143 -40.5zM156 606l23 109h313l-23 -109h-313z" />
    <glyph glyph-name="uni0234" unicode="&#x234;" horiz-adv-x="451" 
d="M46 -73l-93 30q15 51 45 102t61 82q-4 22 -1.5 49t7.5 54l111 516h166l-111 -523q18 7 40.5 10t47.5 3q65 0 98 -33t33 -80q0 -68 -50 -107.5t-135 -39.5q-56 0 -97.5 17t-64.5 40q-15 -21 -31.5 -54.5t-25.5 -65.5zM281 88q26 0 42 9.5t16 28.5q0 15 -12.5 23.5
t-33.5 8.5q-44 0 -73 -18q4 -26 21 -39t40 -13z" />
    <glyph glyph-name="uni0235" unicode="&#x235;" horiz-adv-x="767" 
d="M400 -66l-91 35q15 35 31.5 61.5t30.5 46.5q-12 19 -13 54.5t7 75.5l22 104q3 15 5.5 32t2.5 31q0 52 -45 52q-40 0 -70 -49.5t-47 -130.5l-52 -246h-166l116 549h130l-8 -90h4q29 48 68.5 74t94.5 26q74 0 108.5 -44.5t34.5 -112.5q0 -46 -12 -99l-18 -82
q18 12 43.5 20.5t56.5 8.5q58 0 88.5 -31.5t30.5 -79.5q0 -69 -51.5 -109t-139.5 -40q-35 0 -66 7t-51 17q-11 -14 -22.5 -34.5t-21.5 -45.5zM580 90q57 0 57 37q0 30 -36 30q-21 0 -37.5 -9t-29.5 -24q5 -16 15.5 -25t30.5 -9z" />
    <glyph glyph-name="uni0236" unicode="&#x236;" horiz-adv-x="460" 
d="M103 -66l-90 35q14 35 30.5 61.5t30.5 46.5q-12 19 -13 54.5t7 75.5l46 216h-75l17 82l100 42l66 116h109l-24 -114h140l-28 -126h-140l-43 -202q18 12 43.5 20.5t56.5 8.5q58 0 88.5 -31.5t30.5 -79.5q0 -69 -51.5 -109t-139.5 -40q-34 0 -65.5 7t-50.5 17
q-24 -30 -45 -80zM284 90q57 0 57 37q0 30 -37 30q-21 0 -37.5 -9t-28.5 -24q5 -16 15.5 -25t30.5 -9z" />
    <glyph glyph-name="uni0237" unicode="&#x237;" horiz-adv-x="310" 
d="M-36 -240q-25 0 -50.5 3.5t-41.5 8.5v132q16 -5 29 -7t26 -2q30 0 53 18t32 60l122 576h167l-129 -602q-10 -50 -34 -92.5t-66 -68.5t-108 -26z" />
    <glyph glyph-name="uni0238" unicode="&#x238;" horiz-adv-x="889" 
d="M232 -10q-86 0 -137.5 50t-51.5 156q0 60 16.5 123.5t48.5 118t78.5 88t106.5 33.5q43 0 70.5 -21t48.5 -56h4q2 23 5.5 61t10.5 69l31 148h168l-32 -146q-9 -45 -20 -79.5t-18 -47.5h5q24 29 50.5 50.5t75.5 21.5q68 0 111.5 -50t43.5 -155q0 -45 -9.5 -95t-30 -97.5
t-51.5 -86.5t-74.5 -62t-99.5 -23q-59 0 -104.5 23t-68.5 72q-29 -41 -72 -68t-105 -27zM265 124q29 0 50.5 22t35.5 56t21 73t7 74q0 39 -14.5 57.5t-38.5 18.5q-26 0 -47 -22t-36 -56t-23 -72t-8 -70q0 -38 13.5 -59.5t39.5 -21.5zM566 124q27 0 47.5 22t34.5 56.5
t21.5 72.5t7.5 70q0 80 -54 80q-28 0 -49 -23t-35.5 -59t-21.5 -76t-7 -74q0 -31 14.5 -50t41.5 -19z" />
    <glyph glyph-name="uni0239" unicode="&#x239;" horiz-adv-x="889" 
d="M657 559q86 0 137.5 -50t51.5 -156q0 -60 -16.5 -123.5t-48.5 -118t-78.5 -88t-106.5 -33.5q-43 0 -70.5 21t-48.5 56h-4q-2 -23 -5.5 -61t-10.5 -69l-31 -148h-168l32 146q9 45 20 79.5t18 47.5h-5q-24 -29 -50.5 -50.5t-75.5 -21.5q-68 0 -111.5 50t-43.5 155
q0 45 9.5 95t30 97.5t51.5 86.5t74.5 62t99.5 23q59 0 104.5 -23t68.5 -72q29 41 72 68t105 27zM624 425q-29 0 -50.5 -22t-35.5 -56t-21 -73t-7 -74q0 -39 14.5 -57.5t38.5 -18.5q26 0 47 22t36 56t23 72t8 70q0 38 -13.5 59.5t-39.5 21.5zM323 425q-27 0 -47.5 -22
t-34.5 -56.5t-21.5 -72.5t-7.5 -70q0 -80 54 -80q28 0 49 23t35.5 59t21.5 76t7 74q0 31 -14.5 50t-41.5 19z" />
    <glyph glyph-name="uni023A" unicode="&#x23a;" horiz-adv-x="650" 
d="M-60 0l369 714h182l22 46h92l-74 -155l56 -605h-164l-8 153h-99l-108 -228h-94l109 228h-34l-73 -153h-176zM254 292h35l107 224q-1 19 -1.5 38.5t0.5 38.5h-3q-8 -25 -18.5 -49.5t-23.5 -51.5zM408 292l-2 48l-24 -48h26z" />
    <glyph glyph-name="uni023B" unicode="&#x23b;" horiz-adv-x="620" 
d="M133 -75l46 96q-62 33 -92.5 97t-30.5 151q0 63 14 128t43 123.5t74 105t107 73t142 26.5q41 0 77 -5l19 40h92l-29 -62q30 -11 63 -30l-64 -134q-16 9 -31.5 17t-31.5 14l-205 -432q12 -2 25 -2q42 0 83.5 10.5t88.5 30.5v-141q-41 -17 -92 -29t-112 -12q-31 0 -59 5
l-33 -70h-94zM227 278q0 -67 25 -103l196 409h-12q-52 0 -91.5 -27t-65.5 -72t-39 -99t-13 -108z" />
    <glyph glyph-name="uni023C" unicode="&#x23c;" horiz-adv-x="493" 
d="M58 -150l79 165q-43 23 -68.5 69t-25.5 119t20 137.5t57.5 113.5t91.5 77t123 28q32 0 60 -4l62 130h92l-72 -151q13 -5 27 -12l-52 -125q-8 4 -16.5 7.5t-16.5 6.5l-137 -287h2q36 0 68.5 11.5t67.5 29.5v-134q-37 -19 -78 -30t-95 -11q-14 0 -28 1l-67 -141h-94z
M211 215q0 -21 4 -37l118 248q-40 -4 -67 -37.5t-41 -80.5t-14 -93z" />
    <glyph glyph-name="uni023D" unicode="&#x23d;" horiz-adv-x="522" 
d="M21 0l60 280h-61l31 138h59l62 296h169l-63 -296h98l-31 -138h-96l-30 -141h242l-29 -139h-411z" />
    <glyph glyph-name="uni023E" unicode="&#x23e;" horiz-adv-x="541" 
d="M-57 -39l247 359l53 253h-164l30 141h352l56 82h110l-56 -82h36l-31 -141h-102l-90 -131l-93 -442h-168l18 87l-86 -126h-112z" />
    <glyph glyph-name="uni023F" unicode="&#x23f;" horiz-adv-x="486" 
d="M256 -240q-62 0 -101.5 35t-63.5 115q-11 39 -21 60t-32 36q-7 5 -13 8.5t-12 7.5v135q79 -44 159 -44q26 0 52 10.5t26 36.5q0 12 -6 22.5t-23 23t-50 30.5q-52 28 -77.5 62t-25.5 87q0 82 55 128t162 46q50 0 94.5 -11.5t86.5 -37.5l-53 -113q-29 18 -62 30.5t-64 12.5
q-21 0 -35.5 -10t-14.5 -30q0 -16 15.5 -29t54.5 -33q53 -26 82.5 -62.5t29.5 -89.5q0 -92 -59.5 -141t-159.5 -54q9 -8 16 -20t12 -25q11 -31 23.5 -46t37.5 -15q13 0 25.5 2.5t24.5 6.5v-121q-16 -6 -36.5 -9.5t-46.5 -3.5z" />
    <glyph glyph-name="uni0240" unicode="&#x240;" horiz-adv-x="469" 
d="M296 -240q-50 0 -82.5 16.5t-55.5 50t-43 85.5q-11 28 -22.5 48t-31 30t-55.5 10h-28l19 97l265 323h-183l28 129h380l-23 -107l-296 -355q27 -11 45.5 -34t38.5 -65q16 -34 26.5 -56t23 -32.5t33.5 -10.5q23 0 49 9l1 -124q-34 -14 -89 -14z" />
    <glyph glyph-name="uni0241" unicode="&#x241;" horiz-adv-x="491" 
d="M76 0l70 327q49 18 95.5 44.5t76.5 63.5t30 84q0 35 -20.5 52t-52.5 17q-37 0 -75 -15.5t-69 -32.5l-52 121q53 29 106 46.5t123 17.5q71 0 117 -24t68.5 -65.5t22.5 -91.5q0 -100 -54.5 -173t-164.5 -123l-53 -248h-168z" />
    <glyph glyph-name="uni0242" unicode="&#x242;" horiz-adv-x="491" 
d="M70 0l34 162q49 18 95.5 44.5t77 63t30.5 83.5q0 35 -20.5 52.5t-52.5 17.5q-36 0 -74 -16t-70 -33l-51 121q53 29 105 47t122 18q71 0 117.5 -24.5t69 -66t22.5 -91.5q0 -100 -54.5 -172t-166.5 -122l-18 -84h-166z" />
    <glyph glyph-name="uni0243" unicode="&#x243;" horiz-adv-x="626" 
d="M21 0l38 177h-75l20 93h75l93 444h222q108 0 164.5 -40t56.5 -118q0 -73 -39.5 -119t-111.5 -64v-4q46 -13 73.5 -48t27.5 -88q0 -82 -37.5 -133.5t-101.5 -75.5t-144 -24h-261zM276 431h60q57 0 84.5 24t27.5 68q0 61 -80 61h-58zM213 131h70q53 0 86 29t33 79
q0 35 -19.5 55.5t-65.5 20.5h-64l-10 -45h101l-20 -93h-101z" />
    <glyph glyph-name="uni0244" unicode="&#x244;" horiz-adv-x="696" 
d="M286 -10q-70 0 -119.5 27t-75.5 74t-26 107q0 15 1.5 31.5t5.5 33.5l13 62h-83l29 136h83l54 253h169l-54 -253h199l53 253h169l-54 -253h85l-29 -136h-85l-15 -70q-18 -81 -56.5 -140.5t-103 -92t-160.5 -32.5zM311 132q52 0 83.5 33.5t46.5 106.5l12 53h-199l-12 -59
q-8 -34 -8 -58q0 -36 19 -56t58 -20z" />
    <glyph glyph-name="uni0245" unicode="&#x245;" horiz-adv-x="608" 
d="M-59 0l360 716h188l61 -716h-164l-21 380q-2 38 -2.5 87t1.5 87q-10 -35 -25.5 -74t-28.5 -67l-191 -413h-178z" />
    <glyph glyph-name="uni0246" unicode="&#x246;" horiz-adv-x="551" 
d="M21 0l151 714h292l21 46h96l-21 -46h23l-29 -138h-55l-61 -137h71l-30 -138h-103l-72 -161h157l-29 -140h-190l-34 -75h-97l34 75h-124zM284 439h57l62 137h-91zM253 301l-24 -112l50 112h-26z" />
    <glyph glyph-name="uni0247" unicode="&#x247;" horiz-adv-x="567" 
d="M62 -208l90 220q-52 23 -80.5 72t-28.5 121q0 68 19.5 131.5t58.5 113.5t97 79.5t135 29.5h11.5t10.5 -1l77 189h77l-83 -203q47 -17 72.5 -52.5t25.5 -83.5q0 -78 -57.5 -127.5t-172.5 -61.5l-42 -103q12 -3 27 -3q43 0 79 10.5t82 33.5v-121q-44 -22 -90 -34t-110 -12
q-20 0 -38 3l-82 -201h-78zM216 313h21h19.5t18.5 1l55 134q-44 -10 -74 -49t-40 -86zM359 329q35 12 49 31.5t14 41.5q0 24 -18 38zM210 155l25 61h-36v-17q0 -25 11 -44z" />
    <glyph glyph-name="uni0248" unicode="&#x248;" horiz-adv-x="350" 
d="M-61 -217q-29 0 -53 4t-44 10v138q17 -4 37 -7.5t45 -3.5q47 0 77 27.5t44 96.5l52 242h-90l30 136h89l61 288h168l-61 -288h90l-30 -136h-89l-57 -265q-18 -87 -51.5 -140.5t-87 -77.5t-130.5 -24z" />
    <glyph glyph-name="uni0249" unicode="&#x249;" horiz-adv-x="310" 
d="M239 610q-35 0 -58.5 14.5t-23.5 49.5q0 46 25.5 70t72.5 24q33 0 58 -14.5t25 -49.5q0 -42 -24.5 -68t-74.5 -26zM-37 -240q-24 0 -50 3.5t-42 8.5v132q17 -5 29.5 -7t26.5 -2q30 0 52.5 18t31.5 60l54 252h-78l23 104h77l47 220h166l-47 -220h77l-23 -104h-76l-59 -278
q-10 -50 -34.5 -92.5t-67 -68.5t-107.5 -26z" />
    <glyph glyph-name="uni024A" unicode="&#x24a;" horiz-adv-x="752" 
d="M584 -240q-82 0 -123 36t-41 103q0 11 2 24.5t4 25.5l6 33q6 26 12 47.5t13 49.5h-6q-35 -43 -76 -66.5t-103 -23.5q-95 0 -155 69.5t-60 199.5q0 99 27 183.5t74.5 148.5t112 99.5t139.5 35.5q67 0 103.5 -26t59.5 -62h4l32 77h148l-158 -746q-2 -11 -4 -22.5t-2 -18.5
q0 -37 37 -37q20 0 36 3.5t24 6.5v-125q-14 -5 -44 -10t-62 -5zM336 130q64 0 106 54t65 155l10 49q12 52 12 84q0 47 -23 80.5t-79 33.5q-49 0 -86 -30t-62 -77.5t-38 -102.5t-13 -105q0 -73 29 -107t79 -34z" />
    <glyph glyph-name="uni024B" unicode="&#x24b;" horiz-adv-x="600" 
d="M448 -240q-78 0 -119 36.5t-41 96.5q0 11 1.5 23.5t3.5 25.5l7 33q7 31 16 57t12 32h-4q-23 -30 -53.5 -52t-80.5 -22q-36 0 -70 20t-55.5 65t-21.5 118q0 60 16 124t48 119t78.5 89t106.5 34q48 0 77 -20t55 -59h4l27 69h131l-123 -580q-4 -15 -6 -26t-2 -19
q0 -33 39 -33q13 0 24.5 2.5t25.5 6.5v-125q-18 -7 -44.5 -11t-51.5 -4zM268 124q28 0 49.5 23t35.5 58.5t21 73.5t7 67q0 36 -14 57.5t-40 21.5q-24 0 -44.5 -19.5t-36.5 -52t-25 -71.5t-9 -79q0 -79 56 -79z" />
    <glyph glyph-name="uni024C" unicode="&#x24c;" horiz-adv-x="628" 
d="M21 0l57 268h-75l29 133h74l66 313h182q115 0 178.5 -47.5t63.5 -148.5q0 -60 -21 -103.5t-55 -71t-72 -42.5l128 -301h-184l-98 268h-48l-56 -268h-169zM275 401h32q52 0 85.5 25.5t33.5 81.5q0 33 -19 52.5t-63 19.5h-32z" />
    <glyph glyph-name="uni024D" unicode="&#x24d;" horiz-adv-x="428" 
d="M15 0l45 215h-76l22 104h76l49 230h130l-9 -97h4q34 56 74 81.5t94 25.5q26 0 44 -4l-36 -163q-10 4 -24 6.5t-31 2.5q-35 0 -66 -19t-52 -63h89l-22 -104h-99l-46 -215h-166z" />
    <glyph glyph-name="uni024E" unicode="&#x24e;" horiz-adv-x="582" 
d="M143 0l58 275l-66 251h-94l22 102h46l-23 86h173l16 -86h154l53 86h188l-59 -86h50l-22 -102h-98l-172 -251l-58 -275h-168zM313 436l54 90h-72z" />
    <glyph glyph-name="uni024F" unicode="&#x24f;" horiz-adv-x="531" 
d="M7 -240q-27 0 -44.5 2.5t-28.5 6.5v132q10 -2 24 -4t31 -2q45 0 73.5 22.5t50.5 63.5l12 22l-42 285h-82l22 104h45l-23 157h166l14 -157h108l72 157h179l-83 -157h53l-21 -104h-87l-191 -362q-45 -85 -105 -125.5t-143 -40.5zM238 176h4q8 23 18.5 53.5t24.5 58.5h-50
q2 -28 2.5 -58t0.5 -54z" />
    <glyph glyph-name="uni0250" unicode="&#x250;" horiz-adv-x="591" 
d="M254 -10q-93 0 -148 39t-55 121q0 11 2.5 29.5t5.5 32.5l71 337h116l10 -74h3q38 41 77 63t98 22q65 0 101 -41t36 -107q0 -103 -67.5 -151.5t-192.5 -52.5l-87 -3l-4 -18q-3 -15 -3 -29q0 -48 63 -48q39 0 77 11t84 28l37 -109q-52 -24 -106 -37t-118 -13zM243 299l45 2
q63 3 89.5 30t26.5 61q0 22 -14.5 34.5t-36.5 12.5q-37 0 -64.5 -26t-36.5 -70z" />
    <glyph glyph-name="uni0251" unicode="&#x251;" horiz-adv-x="600" 
d="M198 -10q-41 0 -76.5 20t-57 64.5t-21.5 119.5q0 59 16.5 123t48 119t78 89t106.5 34q50 0 81.5 -21.5t50.5 -57.5h4l27 69h131l-117 -549h-129l6 66h-4q-26 -34 -60 -55t-84 -21zM265 124q26 0 48.5 22t38.5 57t23 74q6 36 6 73q0 33 -14.5 54t-40.5 21
q-24 0 -44.5 -19.5t-36 -52t-24.5 -71.5t-9 -79q0 -79 53 -79z" />
    <glyph glyph-name="uni0252" unicode="&#x252;" horiz-adv-x="601" 
d="M403 559q41 0 76.5 -20t57 -64.5t21.5 -119.5q0 -59 -16.5 -123t-48 -119t-78 -89t-106.5 -34q-50 0 -81.5 21.5t-50.5 57.5h-4l-27 -69h-131l117 549h129l-6 -66h4q26 34 60 55t84 21zM336 425q-26 0 -48.5 -22t-38.5 -57t-23 -74q-6 -36 -6 -73q0 -33 14.5 -54
t40.5 -21q24 0 44.5 19.5t36 52t24.5 71.5t9 79q0 79 -53 79z" />
    <glyph glyph-name="uni0253" unicode="&#x253;" horiz-adv-x="601" 
d="M309 -10q-47 0 -79 19t-55 57h-4l-26 -66h-130l128 604q35 163 191 163q29 0 50 -5.5t30 -9.5v-125q-7 3 -19.5 6.5t-29.5 3.5q-23 0 -38.5 -12t-22.5 -39l-4 -13q-6 -23 -13 -44.5t-14 -43.5h4q23 29 50 51.5t76 22.5q41 0 76 -19.5t57 -64.5t22 -120q0 -59 -16.5 -123
t-48 -119t-78 -89t-106.5 -34zM274 124q24 0 44.5 19.5t36.5 52t25 72t9 78.5q0 79 -54 79q-30 0 -51.5 -23t-35.5 -58t-21 -73t-7 -68q0 -36 14 -57.5t40 -21.5z" />
    <glyph glyph-name="uni0254" unicode="&#x254;" horiz-adv-x="493" 
d="M158 -10q-50 0 -91 9.5t-78 27.5l52 125q25 -11 52.5 -20t56.5 -9q33 0 57.5 19.5t41 51t25 68.5t8.5 73q0 47 -19 68.5t-54 21.5q-36 0 -68.5 -11.5t-67.5 -29.5v134q37 20 78 30.5t95 10.5q56 0 102.5 -21.5t74 -68t27.5 -122.5q0 -73 -20 -138t-57.5 -114t-91.5 -77
t-123 -28z" />
    <glyph glyph-name="uni0255" unicode="&#x255;" horiz-adv-x="502" 
d="M65 -54l-66 38q17 27 33 51.5t36 50.5q-11 21 -18 52t-7 64q0 100 35 181t100.5 128.5t156.5 47.5q53 0 93 -10t76 -27l-52 -125q-28 12 -53 20.5t-57 8.5q-50 0 -86 -44t-47 -114q-1 -6 -1.5 -12t-1.5 -12q30 23 64.5 36.5t80.5 13.5q65 0 99.5 -34.5t34.5 -89.5
q0 -48 -19.5 -82.5t-51 -56t-70.5 -31.5t-78 -10q-50 0 -87.5 11t-59.5 28q-16 -23 -27.5 -40t-26.5 -43zM295 108q31 0 57 13.5t26 42.5q0 16 -12 26.5t-37 10.5q-39 0 -69 -17t-46 -31q19 -45 81 -45z" />
    <glyph glyph-name="uni0256" unicode="&#x256;" horiz-adv-x="599" 
d="M448 -240q-76 0 -117.5 34.5t-41.5 96.5q0 27 8 59l6 26q3 16 8.5 35t10 33t6.5 17h-4q-23 -30 -53 -50.5t-77 -20.5q-41 0 -75.5 20.5t-55 66t-20.5 118.5q0 59 16 122.5t48 118.5t78.5 89t106.5 34q47 0 73 -21.5t47 -55.5h4q0 4 1.5 24t4 45t7.5 47l34 162h167
l-164 -777q-4 -15 -7 -31t-3 -26q0 -35 39 -35q13 0 24 2.5t25 6.5v-125q-18 -7 -44.5 -11t-51.5 -4zM268 124q28 0 49.5 23t35.5 58.5t21 73.5t7 67q0 36 -14 57.5t-40 21.5q-24 0 -44.5 -19.5t-36.5 -52t-25 -71.5t-9 -79q0 -79 56 -79z" />
    <glyph glyph-name="uni0257" unicode="&#x257;" horiz-adv-x="599" 
d="M198 -10q-41 0 -76.5 20t-57 64.5t-21.5 120.5q0 59 16 122.5t48 118.5t78.5 89t106.5 34q47 0 73 -21.5t47 -55.5h4q0 3 1.5 22t4 44.5t7.5 48.5l3 13q37 157 191 157q30 0 51 -5.5t30 -9.5v-125q-7 3 -19.5 6.5t-28.5 3.5q-24 0 -40.5 -13.5t-23.5 -44.5l-123 -579
h-130l7 66h-4q-25 -32 -58.5 -54t-85.5 -22zM267 124q29 0 50.5 23t35.5 58.5t21 73.5t7 67q0 36 -14 57.5t-40 21.5q-24 0 -44.5 -19.5t-36.5 -52t-25 -71.5t-9 -79q0 -79 55 -79z" />
    <glyph glyph-name="uni0258" unicode="&#x258;" horiz-adv-x="553" 
d="M200 -10q-62 0 -104 11.5t-77 30.5v121q37 -19 73.5 -30t84.5 -11q54 0 91.5 24t50.5 77h-32q-120 0 -175 44.5t-55 114.5q0 61 30 102.5t82.5 63t119.5 21.5q73 0 122 -29t73.5 -79.5t24.5 -114.5q0 -65 -18.5 -127t-56.5 -111.5t-96 -78.5t-138 -29zM342 319q1 5 1 9.5
v9.5q0 46 -17 76t-52 30q-28 0 -44.5 -16t-16.5 -45q0 -26 23 -45t79 -19h27z" />
    <glyph glyph-name="uni0259" unicode="&#x259;" horiz-adv-x="567" 
d="M214 -10q-92 0 -141.5 42t-49.5 109q0 89 74.5 142.5t231.5 53.5h27q1 5 1 8v7q0 40 -23 62.5t-66 22.5t-79 -11.5t-82 -33.5v122q43 21 89 33t111 12q100 0 158.5 -55t58.5 -159q0 -69 -19.5 -132.5t-58.5 -113.5t-97 -79.5t-135 -29.5zM228 106q25 0 48 17t39.5 45
t23.5 62h-19q-75 0 -106.5 -25.5t-31.5 -56.5q0 -42 46 -42z" />
    <glyph glyph-name="uni025A" unicode="&#x25a;" horiz-adv-x="811" 
d="M212 -10q-92 0 -141.5 40t-49.5 104q0 58 34 94t97.5 59t154.5 43l48 10q0 97 -85 97q-43 0 -77.5 -9.5t-84.5 -35.5v122q44 22 90 33.5t107 11.5q86 0 144.5 -44.5t68.5 -139.5l147 36l5 -49q4 -46 13 -65t32 -19q18 0 31.5 6.5t24.5 15.5l38 -90q-23 -17 -52.5 -29
t-66.5 -12q-47 0 -80 28t-41 87l-56 -14q-9 -54 -31.5 -104t-60 -89.5t-89.5 -63t-120 -23.5zM228 105q25 0 47.5 18.5t38.5 47.5t22 61l-25 -5q-73 -17 -100.5 -36.5t-27.5 -46.5q0 -39 45 -39z" />
    <glyph glyph-name="uni025B" unicode="&#x25b;" horiz-adv-x="533" 
d="M247 -10q-101 0 -164.5 39t-63.5 112q0 66 42.5 100.5t120.5 47.5v4q-36 13 -60 40t-24 67q0 54 31 89t85 52.5t124 17.5q65 0 115.5 -11.5t91.5 -31.5l-50 -120q-35 18 -73 29t-76 11q-42 0 -67.5 -11.5t-25.5 -39.5q0 -21 22 -32t72 -11h68l-24 -113h-78
q-55 0 -87.5 -15.5t-32.5 -43.5q0 -22 21.5 -37.5t68.5 -15.5q58 0 97.5 13.5t70.5 29.5v-131q-37 -18 -86 -28.5t-118 -10.5z" />
    <glyph glyph-name="uni025C" unicode="&#x25c;" horiz-adv-x="551" 
d="M208 -10q-62 0 -112 11t-82 28v132q39 -19 86 -31.5t99 -12.5q30 0 57 5t44.5 18t17.5 37q0 25 -21.5 39t-71.5 14h-78l24 111h67q60 0 88 11.5t28 40.5q0 20 -14 31.5t-54 11.5q-33 0 -77.5 -10.5t-84.5 -28.5l-37 120q49 19 105 30.5t121 11.5q57 0 104 -13t75 -43.5
t28 -81.5q0 -55 -33 -86t-92 -48v-4q43 -12 67.5 -39.5t24.5 -70.5q0 -82 -68 -132.5t-211 -50.5z" />
    </font>
</defs>
</svg>
